solid OpenSCAD_Model
  facet normal 0 -0 -1
    outer loop
      vertex -2.375 2.5 0
      vertex 2.375 2.5 0
      vertex -4.75 0 0
    endloop
  endfacet
  facet normal 0 -0 -1
    outer loop
      vertex 2.375 2.5 0
      vertex 4.75 0 0
      vertex -4.75 0 0
    endloop
  endfacet
  facet normal 0 0 1
    outer loop
      vertex -4.75 0 40
      vertex 2.375 2.5 40
      vertex -2.375 2.5 40
    endloop
  endfacet
  facet normal 0 0 1
    outer loop
      vertex -4.75 0 40
      vertex 4.75 0 40
      vertex 2.375 2.5 40
    endloop
  endfacet
  facet normal 0 1 0
    outer loop
      vertex -2.375 2.5 0
      vertex 2.375 2.5 40
      vertex 2.375 2.5 0
    endloop
  endfacet
  facet normal 0 1 0
    outer loop
      vertex -2.375 2.5 0
      vertex -2.375 2.5 40
      vertex 2.375 2.5 40
    endloop
  endfacet
  facet normal -0.724999 0.688749 0
    outer loop
      vertex -4.75 0 0
      vertex -2.375 2.5 40
      vertex -2.375 2.5 0
    endloop
  endfacet
  facet normal -0.724999 0.688749 0
    outer loop
      vertex -4.75 0 0
      vertex -4.75 0 40
      vertex -2.375 2.5 40
    endloop
  endfacet
  facet normal 0 -1 0
    outer loop
      vertex 4.75 0 0
      vertex -4.75 0 40
      vertex -4.75 0 0
    endloop
  endfacet
  facet normal 0 -1 0
    outer loop
      vertex 4.75 0 0
      vertex 4.75 0 40
      vertex -4.75 0 40
    endloop
  endfacet
  facet normal 0.724999 0.688749 0
    outer loop
      vertex 2.375 2.5 0
      vertex 4.75 0 40
      vertex 4.75 0 0
    endloop
  endfacet
  facet normal 0.724999 0.688749 -0
    outer loop
      vertex 2.375 2.5 0
      vertex 2.375 2.5 40
      vertex 4.75 0 40
    endloop
  endfacet
endsolid OpenSCAD_Model
