solid OpenSCAD_Model
  facet normal -0 0 1
    outer loop
      vertex -20.9271 2 130.853
      vertex 20.9271 -3 130.853
      vertex 20.9271 2 130.853
    endloop
  endfacet
  facet normal 0 0 1
    outer loop
      vertex 20.9271 -3 130.853
      vertex -20.9271 2 130.853
      vertex -20.9271 -3 130.853
    endloop
  endfacet
  facet normal -0.587785 0 -0.809017
    outer loop
      vertex -31.6913 -3 -4.43145
      vertex -30 2 -5.66025
      vertex -30 -3 -5.66025
    endloop
  endfacet
  facet normal -0.587785 0 -0.809017
    outer loop
      vertex -30 2 -5.66025
      vertex -31.6913 -3 -4.43145
      vertex -31.6913 2 -4.43145
    endloop
  endfacet
  facet normal 0 0 -1
    outer loop
      vertex -26.0453 -3 -6.94522
      vertex 24.0453 2 -6.94522
      vertex 24.0453 -3 -6.94522
    endloop
  endfacet
  facet normal -0 0 -1
    outer loop
      vertex 24.0453 2 -6.94522
      vertex -26.0453 -3 -6.94522
      vertex -26.0453 2 -6.94522
    endloop
  endfacet
  facet normal 0.406742 0 -0.913543
    outer loop
      vertex 26.0902 -3 -6.51056
      vertex 28 2 -5.66025
      vertex 28 -3 -5.66025
    endloop
  endfacet
  facet normal 0.406742 0 -0.913543
    outer loop
      vertex 28 2 -5.66025
      vertex 26.0902 -3 -6.51056
      vertex 26.0902 2 -6.51056
    endloop
  endfacet
  facet normal -0.207913 0 -0.978147
    outer loop
      vertex -28.0902 -3 -6.51056
      vertex -26.0453 2 -6.94522
      vertex -26.0453 -3 -6.94522
    endloop
  endfacet
  facet normal -0.207913 0 -0.978147
    outer loop
      vertex -26.0453 2 -6.94522
      vertex -28.0902 -3 -6.51056
      vertex -28.0902 2 -6.51056
    endloop
  endfacet
  facet normal 0 1 0
    outer loop
      vertex 23 2 128
      vertex 20.9271 2 130.853
      vertex 22.4271 2 129.763
    endloop
  endfacet
  facet normal 0 1 0
    outer loop
      vertex 20.9271 2 130.853
      vertex 13.555 2 124.45
      vertex -20.9271 2 130.853
    endloop
  endfacet
  facet normal 0 1 0
    outer loop
      vertex 20.9271 2 130.853
      vertex 23 2 128
      vertex 15.247 2 124.064
    endloop
  endfacet
  facet normal 0 1 -0
    outer loop
      vertex -14.445 2 124.45
      vertex -20.9271 2 130.853
      vertex 13.555 2 124.45
    endloop
  endfacet
  facet normal 0 1 -0
    outer loop
      vertex -15.8019 2 123.368
      vertex -20.9271 2 130.853
      vertex -14.445 2 124.45
    endloop
  endfacet
  facet normal 0 1 0
    outer loop
      vertex 20.9271 2 130.853
      vertex 15.247 2 124.064
      vertex 13.555 2 124.45
    endloop
  endfacet
  facet normal 0 1 0
    outer loop
      vertex 23 2 128
      vertex 16 2 122.5
      vertex 15.247 2 124.064
    endloop
  endfacet
  facet normal 0 1 0
    outer loop
      vertex 23 2 128
      vertex 16 2 99.5
      vertex 16 2 122.5
    endloop
  endfacet
  facet normal 0 1 0
    outer loop
      vertex 13.555 2 97.5501
      vertex 13.555 2 94.4499
      vertex -14.445 2 97.5501
    endloop
  endfacet
  facet normal 0 1 0
    outer loop
      vertex 15.247 2 97.9363
      vertex 13.555 2 94.4499
      vertex 13.555 2 97.5501
    endloop
  endfacet
  facet normal 0 1 0
    outer loop
      vertex 15.247 2 97.9363
      vertex 15.247 2 94.0637
      vertex 13.555 2 94.4499
    endloop
  endfacet
  facet normal 0 1 0
    outer loop
      vertex 16 2 99.5
      vertex 15.247 2 94.0637
      vertex 15.247 2 97.9363
    endloop
  endfacet
  facet normal 0 1 0
    outer loop
      vertex 16 2 92.5
      vertex 16 2 99.5
      vertex 23 2 128
    endloop
  endfacet
  facet normal 0 1 0
    outer loop
      vertex 16 2 99.5
      vertex 16 2 92.5
      vertex 15.247 2 94.0637
    endloop
  endfacet
  facet normal 0 1 0
    outer loop
      vertex 23 2 128
      vertex 16 2 69.5
      vertex 16 2 92.5
    endloop
  endfacet
  facet normal 0 1 0
    outer loop
      vertex 13.555 2 67.5501
      vertex 13.555 2 64.4499
      vertex -14.445 2 67.5501
    endloop
  endfacet
  facet normal 0 1 0
    outer loop
      vertex 15.247 2 67.9363
      vertex 13.555 2 64.4499
      vertex 13.555 2 67.5501
    endloop
  endfacet
  facet normal 0 1 0
    outer loop
      vertex 15.247 2 67.9363
      vertex 15.247 2 64.0637
      vertex 13.555 2 64.4499
    endloop
  endfacet
  facet normal 0 1 0
    outer loop
      vertex 16 2 69.5
      vertex 15.247 2 64.0637
      vertex 15.247 2 67.9363
    endloop
  endfacet
  facet normal 0 1 0
    outer loop
      vertex 16 2 69.5
      vertex 16 2 62.5
      vertex 15.247 2 64.0637
    endloop
  endfacet
  facet normal 0 1 0
    outer loop
      vertex 33 2 3
      vertex 16 2 69.5
      vertex 23 2 128
    endloop
  endfacet
  facet normal 0 1 0
    outer loop
      vertex 16 2 69.5
      vertex 33 2 3
      vertex 16 2 62.5
    endloop
  endfacet
  facet normal 0 1 0
    outer loop
      vertex 13.555 2 37.5501
      vertex 13.555 2 34.4499
      vertex -14.445 2 37.5501
    endloop
  endfacet
  facet normal 0 1 0
    outer loop
      vertex 15.247 2 37.9363
      vertex 13.555 2 34.4499
      vertex 13.555 2 37.5501
    endloop
  endfacet
  facet normal 0 1 0
    outer loop
      vertex 15.247 2 37.9363
      vertex 15.247 2 34.0637
      vertex 13.555 2 34.4499
    endloop
  endfacet
  facet normal 0 1 0
    outer loop
      vertex 16 2 39.5
      vertex 15.247 2 34.0637
      vertex 15.247 2 37.9363
    endloop
  endfacet
  facet normal 0 1 0
    outer loop
      vertex 16 2 39.5
      vertex 16 2 32.5
      vertex 15.247 2 34.0637
    endloop
  endfacet
  facet normal 0 1 0
    outer loop
      vertex 16 2 62.5
      vertex 33 2 3
      vertex 16 2 39.5
    endloop
  endfacet
  facet normal 0 1 0
    outer loop
      vertex 16 2 39.5
      vertex 33 2 3
      vertex 16 2 32.5
    endloop
  endfacet
  facet normal 0 1 0
    outer loop
      vertex 15.247 2 7.93634
      vertex 24.0453 2 -6.94522
      vertex 13.555 2 7.55014
    endloop
  endfacet
  facet normal 0 1 -0
    outer loop
      vertex 24.0453 2 -6.94522
      vertex 15.247 2 7.93634
      vertex 33 2 3
    endloop
  endfacet
  facet normal 0 1 0
    outer loop
      vertex 16 2 9.5
      vertex 33 2 3
      vertex 15.247 2 7.93634
    endloop
  endfacet
  facet normal 0 1 0
    outer loop
      vertex 16 2 32.5
      vertex 33 2 3
      vertex 16 2 9.5
    endloop
  endfacet
  facet normal -0 1 0
    outer loop
      vertex -23 2 128
      vertex -20.9271 2 130.853
      vertex -15.8019 2 123.368
    endloop
  endfacet
  facet normal 0 1 0
    outer loop
      vertex -20.9271 2 130.853
      vertex -23 2 128
      vertex -22.4271 2 129.763
    endloop
  endfacet
  facet normal 0 1 -0
    outer loop
      vertex -15.8019 2 98.6322
      vertex -23 2 128
      vertex -15.8019 2 123.368
    endloop
  endfacet
  facet normal 0 1 0
    outer loop
      vertex -14.445 2 94.4499
      vertex -14.445 2 97.5501
      vertex 13.555 2 94.4499
    endloop
  endfacet
  facet normal 0 1 -0
    outer loop
      vertex -14.445 2 94.4499
      vertex -15.8019 2 98.6322
      vertex -14.445 2 97.5501
    endloop
  endfacet
  facet normal 0 1 0
    outer loop
      vertex -15.8019 2 93.3678
      vertex -15.8019 2 98.6322
      vertex -14.445 2 94.4499
    endloop
  endfacet
  facet normal 0 1 -0
    outer loop
      vertex -15.8019 2 93.3678
      vertex -23 2 128
      vertex -15.8019 2 98.6322
    endloop
  endfacet
  facet normal 0 1 -0
    outer loop
      vertex -15.8019 2 68.6322
      vertex -23 2 128
      vertex -15.8019 2 93.3678
    endloop
  endfacet
  facet normal 0 1 0
    outer loop
      vertex -14.445 2 64.4499
      vertex -14.445 2 67.5501
      vertex 13.555 2 64.4499
    endloop
  endfacet
  facet normal 0 1 -0
    outer loop
      vertex -14.445 2 64.4499
      vertex -15.8019 2 68.6322
      vertex -14.445 2 67.5501
    endloop
  endfacet
  facet normal 0 1 0
    outer loop
      vertex -15.8019 2 63.3678
      vertex -15.8019 2 68.6322
      vertex -14.445 2 64.4499
    endloop
  endfacet
  facet normal 0 1 0
    outer loop
      vertex -35 2 3
      vertex -15.8019 2 68.6322
      vertex -15.8019 2 63.3678
    endloop
  endfacet
  facet normal 0 1 0
    outer loop
      vertex -35 2 3
      vertex -15.8019 2 63.3678
      vertex -15.8019 2 38.6322
    endloop
  endfacet
  facet normal 0 1 0
    outer loop
      vertex -14.445 2 34.4499
      vertex -14.445 2 37.5501
      vertex 13.555 2 34.4499
    endloop
  endfacet
  facet normal 0 1 -0
    outer loop
      vertex -14.445 2 34.4499
      vertex -15.8019 2 38.6322
      vertex -14.445 2 37.5501
    endloop
  endfacet
  facet normal 0 1 0
    outer loop
      vertex -15.8019 2 33.3678
      vertex -15.8019 2 38.6322
      vertex -14.445 2 34.4499
    endloop
  endfacet
  facet normal 0 1 0
    outer loop
      vertex -35 2 3
      vertex -15.8019 2 38.6322
      vertex -15.8019 2 33.3678
    endloop
  endfacet
  facet normal 0 1 0
    outer loop
      vertex -35 2 3
      vertex -15.8019 2 33.3678
      vertex -15.8019 2 8.63223
    endloop
  endfacet
  facet normal 0 1 0
    outer loop
      vertex -15.8019 2 68.6322
      vertex -35 2 3
      vertex -23 2 128
    endloop
  endfacet
  facet normal 0 1 0
    outer loop
      vertex -26.0453 2 -6.94522
      vertex -15.8019 2 8.63223
      vertex -14.445 2 7.55014
    endloop
  endfacet
  facet normal 0 1 0
    outer loop
      vertex 13.555 2 7.55014
      vertex 24.0453 2 -6.94522
      vertex -14.445 2 7.55014
    endloop
  endfacet
  facet normal 0 1 0
    outer loop
      vertex 24.0453 2 -6.94522
      vertex 33 2 3
      vertex 32.7815 2 0.920883
    endloop
  endfacet
  facet normal 0 1 0
    outer loop
      vertex -26.0453 2 -6.94522
      vertex -14.445 2 7.55014
      vertex 24.0453 2 -6.94522
    endloop
  endfacet
  facet normal 0 1 0
    outer loop
      vertex 24.0453 2 -6.94522
      vertex 32.7815 2 0.920883
      vertex 32.1355 2 -1.06737
    endloop
  endfacet
  facet normal 0 1 0
    outer loop
      vertex -15.8019 2 8.63223
      vertex -26.0453 2 -6.94522
      vertex -35 2 3
    endloop
  endfacet
  facet normal 0 1 0
    outer loop
      vertex 24.0453 2 -6.94522
      vertex 32.1355 2 -1.06737
      vertex 31.0902 2 -2.87785
    endloop
  endfacet
  facet normal 0 1 0
    outer loop
      vertex -35 2 3
      vertex -26.0453 2 -6.94522
      vertex -34.7815 2 0.920883
    endloop
  endfacet
  facet normal 0 1 0
    outer loop
      vertex 24.0453 2 -6.94522
      vertex 31.0902 2 -2.87785
      vertex 29.6913 2 -4.43145
    endloop
  endfacet
  facet normal 0 1 0
    outer loop
      vertex -34.7815 2 0.920883
      vertex -26.0453 2 -6.94522
      vertex -34.1355 2 -1.06737
    endloop
  endfacet
  facet normal 0 1 0
    outer loop
      vertex 24.0453 2 -6.94522
      vertex 29.6913 2 -4.43145
      vertex 28 2 -5.66025
    endloop
  endfacet
  facet normal 0 1 0
    outer loop
      vertex -34.1355 2 -1.06737
      vertex -26.0453 2 -6.94522
      vertex -33.0902 2 -2.87785
    endloop
  endfacet
  facet normal 0 1 0
    outer loop
      vertex 24.0453 2 -6.94522
      vertex 28 2 -5.66025
      vertex 26.0902 2 -6.51056
    endloop
  endfacet
  facet normal 0 1 0
    outer loop
      vertex -33.0902 2 -2.87785
      vertex -26.0453 2 -6.94522
      vertex -31.6913 2 -4.43145
    endloop
  endfacet
  facet normal 0 1 0
    outer loop
      vertex -31.6913 2 -4.43145
      vertex -26.0453 2 -6.94522
      vertex -30 2 -5.66025
    endloop
  endfacet
  facet normal 0 1 0
    outer loop
      vertex -30 2 -5.66025
      vertex -26.0453 2 -6.94522
      vertex -28.0902 2 -6.51056
    endloop
  endfacet
  facet normal -0.994523 0 -0.104517
    outer loop
      vertex -34.7815 -3 0.920883
      vertex -35 2 3
      vertex -34.7815 2 0.920883
    endloop
  endfacet
  facet normal -0.994523 -0 -0.104517
    outer loop
      vertex -35 2 3
      vertex -34.7815 -3 0.920883
      vertex -35 -3 3
    endloop
  endfacet
  facet normal -0.95106 0 -0.309007
    outer loop
      vertex -34.1355 -3 -1.06737
      vertex -34.7815 2 0.920883
      vertex -34.1355 2 -1.06737
    endloop
  endfacet
  facet normal -0.95106 -0 -0.309007
    outer loop
      vertex -34.7815 2 0.920883
      vertex -34.1355 -3 -1.06737
      vertex -34.7815 -3 0.920883
    endloop
  endfacet
  facet normal 0.951046 -0 0.309049
    outer loop
      vertex 22.4271 -3 129.763
      vertex 23 2 128
      vertex 22.4271 2 129.763
    endloop
  endfacet
  facet normal 0.951046 0 0.309049
    outer loop
      vertex 23 2 128
      vertex 22.4271 -3 129.763
      vertex 23 -3 128
    endloop
  endfacet
  facet normal 0.207913 0 -0.978147
    outer loop
      vertex 24.0453 -3 -6.94522
      vertex 26.0902 2 -6.51056
      vertex 26.0902 -3 -6.51056
    endloop
  endfacet
  facet normal 0.207913 0 -0.978147
    outer loop
      vertex 26.0902 2 -6.51056
      vertex 24.0453 -3 -6.94522
      vertex 24.0453 2 -6.94522
    endloop
  endfacet
  facet normal 0.587851 0 0.808969
    outer loop
      vertex 20.9271 2 130.853
      vertex 22.4271 -3 129.763
      vertex 22.4271 2 129.763
    endloop
  endfacet
  facet normal 0.587851 0 0.808969
    outer loop
      vertex 22.4271 -3 129.763
      vertex 20.9271 2 130.853
      vertex 20.9271 -3 130.853
    endloop
  endfacet
  facet normal 0.994523 0 -0.104517
    outer loop
      vertex 33 -3 3
      vertex 32.7815 2 0.920883
      vertex 33 2 3
    endloop
  endfacet
  facet normal 0.994523 0 -0.104517
    outer loop
      vertex 32.7815 2 0.920883
      vertex 33 -3 3
      vertex 32.7815 -3 0.920883
    endloop
  endfacet
  facet normal 0.587785 0 -0.809017
    outer loop
      vertex 28 -3 -5.66025
      vertex 29.6913 2 -4.43145
      vertex 29.6913 -3 -4.43145
    endloop
  endfacet
  facet normal 0.587785 0 -0.809017
    outer loop
      vertex 29.6913 2 -4.43145
      vertex 28 -3 -5.66025
      vertex 28 2 -5.66025
    endloop
  endfacet
  facet normal 0.866021 0 -0.500007
    outer loop
      vertex 32.1355 -3 -1.06737
      vertex 31.0902 2 -2.87785
      vertex 32.1355 2 -1.06737
    endloop
  endfacet
  facet normal 0.866021 0 -0.500007
    outer loop
      vertex 31.0902 2 -2.87785
      vertex 32.1355 -3 -1.06737
      vertex 31.0902 -3 -2.87785
    endloop
  endfacet
  facet normal -0.743137 0 -0.669139
    outer loop
      vertex -31.6913 -3 -4.43145
      vertex -33.0902 2 -2.87785
      vertex -31.6913 2 -4.43145
    endloop
  endfacet
  facet normal -0.743137 -0 -0.669139
    outer loop
      vertex -33.0902 2 -2.87785
      vertex -31.6913 -3 -4.43145
      vertex -33.0902 -3 -2.87785
    endloop
  endfacet
  facet normal -0.995424 0 0.0955607
    outer loop
      vertex -35 -3 3
      vertex -23 2 128
      vertex -35 2 3
    endloop
  endfacet
  facet normal -0.995424 0 0.0955607
    outer loop
      vertex -23 2 128
      vertex -35 -3 3
      vertex -23 -3 128
    endloop
  endfacet
  facet normal -0.951046 0 0.309049
    outer loop
      vertex -23 -3 128
      vertex -22.4271 2 129.763
      vertex -23 2 128
    endloop
  endfacet
  facet normal -0.951046 0 0.309049
    outer loop
      vertex -22.4271 2 129.763
      vertex -23 -3 128
      vertex -22.4271 -3 129.763
    endloop
  endfacet
  facet normal -0.587851 0 0.808969
    outer loop
      vertex -22.4271 2 129.763
      vertex -20.9271 -3 130.853
      vertex -20.9271 2 130.853
    endloop
  endfacet
  facet normal -0.587851 0 0.808969
    outer loop
      vertex -20.9271 -3 130.853
      vertex -22.4271 2 129.763
      vertex -22.4271 -3 129.763
    endloop
  endfacet
  facet normal -0.406742 0 -0.913543
    outer loop
      vertex -30 -3 -5.66025
      vertex -28.0902 2 -6.51056
      vertex -28.0902 -3 -6.51056
    endloop
  endfacet
  facet normal -0.406742 0 -0.913543
    outer loop
      vertex -28.0902 2 -6.51056
      vertex -30 -3 -5.66025
      vertex -30 2 -5.66025
    endloop
  endfacet
  facet normal 0 -1 0
    outer loop
      vertex -23 -3 128
      vertex -20.9271 -3 130.853
      vertex -22.4271 -3 129.763
    endloop
  endfacet
  facet normal 0 -1 0
    outer loop
      vertex 13.555 -3 124.45
      vertex -20.9271 -3 130.853
      vertex -14.445 -3 124.45
    endloop
  endfacet
  facet normal 0 -1 -0
    outer loop
      vertex -20.9271 -3 130.853
      vertex -23 -3 128
      vertex -15.8019 -3 123.368
    endloop
  endfacet
  facet normal 0 -1 0
    outer loop
      vertex -20.9271 -3 130.853
      vertex 13.555 -3 124.45
      vertex 20.9271 -3 130.853
    endloop
  endfacet
  facet normal 0 -1 0
    outer loop
      vertex 15.247 -3 124.064
      vertex 20.9271 -3 130.853
      vertex 13.555 -3 124.45
    endloop
  endfacet
  facet normal 0 -1 0
    outer loop
      vertex -20.9271 -3 130.853
      vertex -15.8019 -3 123.368
      vertex -14.445 -3 124.45
    endloop
  endfacet
  facet normal 0 -1 0
    outer loop
      vertex -23 -3 128
      vertex -15.8019 -3 98.6322
      vertex -15.8019 -3 123.368
    endloop
  endfacet
  facet normal 0 -1 0
    outer loop
      vertex -14.445 -3 97.5501
      vertex -14.445 -3 94.4499
      vertex 13.555 -3 97.5501
    endloop
  endfacet
  facet normal 0 -1 0
    outer loop
      vertex -15.8019 -3 98.6322
      vertex -14.445 -3 94.4499
      vertex -14.445 -3 97.5501
    endloop
  endfacet
  facet normal 0 -1 0
    outer loop
      vertex -15.8019 -3 98.6322
      vertex -15.8019 -3 93.3678
      vertex -14.445 -3 94.4499
    endloop
  endfacet
  facet normal 0 -1 0
    outer loop
      vertex -23 -3 128
      vertex -15.8019 -3 93.3678
      vertex -15.8019 -3 98.6322
    endloop
  endfacet
  facet normal 0 -1 0
    outer loop
      vertex -23 -3 128
      vertex -15.8019 -3 68.6322
      vertex -15.8019 -3 93.3678
    endloop
  endfacet
  facet normal 0 -1 0
    outer loop
      vertex -14.445 -3 67.5501
      vertex -14.445 -3 64.4499
      vertex 13.555 -3 67.5501
    endloop
  endfacet
  facet normal 0 -1 0
    outer loop
      vertex -15.8019 -3 68.6322
      vertex -14.445 -3 64.4499
      vertex -14.445 -3 67.5501
    endloop
  endfacet
  facet normal 0 -1 0
    outer loop
      vertex -15.8019 -3 68.6322
      vertex -15.8019 -3 63.3678
      vertex -14.445 -3 64.4499
    endloop
  endfacet
  facet normal 0 -1 0
    outer loop
      vertex -35 -3 3
      vertex -15.8019 -3 68.6322
      vertex -23 -3 128
    endloop
  endfacet
  facet normal 0 -1 -0
    outer loop
      vertex -15.8019 -3 68.6322
      vertex -35 -3 3
      vertex -15.8019 -3 63.3678
    endloop
  endfacet
  facet normal 0 -1 0
    outer loop
      vertex -14.445 -3 37.5501
      vertex -14.445 -3 34.4499
      vertex 13.555 -3 37.5501
    endloop
  endfacet
  facet normal 0 -1 0
    outer loop
      vertex -15.8019 -3 38.6322
      vertex -14.445 -3 34.4499
      vertex -14.445 -3 37.5501
    endloop
  endfacet
  facet normal 0 -1 0
    outer loop
      vertex -15.8019 -3 38.6322
      vertex -15.8019 -3 33.3678
      vertex -14.445 -3 34.4499
    endloop
  endfacet
  facet normal 0 -1 -0
    outer loop
      vertex -15.8019 -3 63.3678
      vertex -35 -3 3
      vertex -15.8019 -3 38.6322
    endloop
  endfacet
  facet normal 0 -1 -0
    outer loop
      vertex -15.8019 -3 38.6322
      vertex -35 -3 3
      vertex -15.8019 -3 33.3678
    endloop
  endfacet
  facet normal 0 -1 -0
    outer loop
      vertex -15.8019 -3 8.63223
      vertex -26.0453 -3 -6.94522
      vertex -14.445 -3 7.55014
    endloop
  endfacet
  facet normal 0 -1 0
    outer loop
      vertex -26.0453 -3 -6.94522
      vertex -15.8019 -3 8.63223
      vertex -35 -3 3
    endloop
  endfacet
  facet normal 0 -1 -0
    outer loop
      vertex -15.8019 -3 33.3678
      vertex -35 -3 3
      vertex -15.8019 -3 8.63223
    endloop
  endfacet
  facet normal -0 -1 0
    outer loop
      vertex 23 -3 128
      vertex 20.9271 -3 130.853
      vertex 15.247 -3 124.064
    endloop
  endfacet
  facet normal 0 -1 0
    outer loop
      vertex 20.9271 -3 130.853
      vertex 23 -3 128
      vertex 22.4271 -3 129.763
    endloop
  endfacet
  facet normal 0 -1 0
    outer loop
      vertex 16 -3 122.5
      vertex 23 -3 128
      vertex 15.247 -3 124.064
    endloop
  endfacet
  facet normal 0 -1 0
    outer loop
      vertex 16 -3 99.5
      vertex 23 -3 128
      vertex 16 -3 122.5
    endloop
  endfacet
  facet normal 0 -1 0
    outer loop
      vertex 13.555 -3 94.4499
      vertex 13.555 -3 97.5501
      vertex -14.445 -3 94.4499
    endloop
  endfacet
  facet normal 0 -1 0
    outer loop
      vertex 13.555 -3 94.4499
      vertex 15.247 -3 97.9363
      vertex 13.555 -3 97.5501
    endloop
  endfacet
  facet normal 0 -1 0
    outer loop
      vertex 15.247 -3 94.0637
      vertex 15.247 -3 97.9363
      vertex 13.555 -3 94.4499
    endloop
  endfacet
  facet normal 0 -1 0
    outer loop
      vertex 15.247 -3 94.0637
      vertex 16 -3 99.5
      vertex 15.247 -3 97.9363
    endloop
  endfacet
  facet normal 0 -1 0
    outer loop
      vertex 16 -3 92.5
      vertex 16 -3 99.5
      vertex 15.247 -3 94.0637
    endloop
  endfacet
  facet normal 0 -1 0
    outer loop
      vertex 16 -3 99.5
      vertex 16 -3 92.5
      vertex 23 -3 128
    endloop
  endfacet
  facet normal 0 -1 0
    outer loop
      vertex 16 -3 69.5
      vertex 23 -3 128
      vertex 16 -3 92.5
    endloop
  endfacet
  facet normal 0 -1 0
    outer loop
      vertex 13.555 -3 64.4499
      vertex 13.555 -3 67.5501
      vertex -14.445 -3 64.4499
    endloop
  endfacet
  facet normal 0 -1 0
    outer loop
      vertex 13.555 -3 64.4499
      vertex 15.247 -3 67.9363
      vertex 13.555 -3 67.5501
    endloop
  endfacet
  facet normal 0 -1 0
    outer loop
      vertex 15.247 -3 64.0637
      vertex 15.247 -3 67.9363
      vertex 13.555 -3 64.4499
    endloop
  endfacet
  facet normal 0 -1 0
    outer loop
      vertex 15.247 -3 64.0637
      vertex 16 -3 69.5
      vertex 15.247 -3 67.9363
    endloop
  endfacet
  facet normal 0 -1 0
    outer loop
      vertex 16 -3 62.5
      vertex 16 -3 69.5
      vertex 15.247 -3 64.0637
    endloop
  endfacet
  facet normal 0 -1 0
    outer loop
      vertex 33 -3 3
      vertex 16 -3 69.5
      vertex 16 -3 62.5
    endloop
  endfacet
  facet normal 0 -1 0
    outer loop
      vertex 33 -3 3
      vertex 16 -3 62.5
      vertex 16 -3 39.5
    endloop
  endfacet
  facet normal 0 -1 0
    outer loop
      vertex 13.555 -3 34.4499
      vertex 13.555 -3 37.5501
      vertex -14.445 -3 34.4499
    endloop
  endfacet
  facet normal 0 -1 0
    outer loop
      vertex 13.555 -3 34.4499
      vertex 15.247 -3 37.9363
      vertex 13.555 -3 37.5501
    endloop
  endfacet
  facet normal 0 -1 0
    outer loop
      vertex 15.247 -3 34.0637
      vertex 15.247 -3 37.9363
      vertex 13.555 -3 34.4499
    endloop
  endfacet
  facet normal 0 -1 0
    outer loop
      vertex 15.247 -3 34.0637
      vertex 16 -3 39.5
      vertex 15.247 -3 37.9363
    endloop
  endfacet
  facet normal 0 -1 0
    outer loop
      vertex 16 -3 32.5
      vertex 16 -3 39.5
      vertex 15.247 -3 34.0637
    endloop
  endfacet
  facet normal 0 -1 0
    outer loop
      vertex 33 -3 3
      vertex 16 -3 39.5
      vertex 16 -3 32.5
    endloop
  endfacet
  facet normal 0 -1 0
    outer loop
      vertex 33 -3 3
      vertex 16 -3 32.5
      vertex 16 -3 9.5
    endloop
  endfacet
  facet normal 0 -1 0
    outer loop
      vertex 16 -3 69.5
      vertex 33 -3 3
      vertex 23 -3 128
    endloop
  endfacet
  facet normal 0 -1 0
    outer loop
      vertex 15.247 -3 7.93634
      vertex 33 -3 3
      vertex 16 -3 9.5
    endloop
  endfacet
  facet normal 0 -1 0
    outer loop
      vertex 24.0453 -3 -6.94522
      vertex 15.247 -3 7.93634
      vertex 13.555 -3 7.55014
    endloop
  endfacet
  facet normal 0 -1 0
    outer loop
      vertex 24.0453 -3 -6.94522
      vertex -14.445 -3 7.55014
      vertex -26.0453 -3 -6.94522
    endloop
  endfacet
  facet normal 0 -1 0
    outer loop
      vertex -26.0453 -3 -6.94522
      vertex -35 -3 3
      vertex -34.7815 -3 0.920883
    endloop
  endfacet
  facet normal 0 -1 0
    outer loop
      vertex -14.445 -3 7.55014
      vertex 24.0453 -3 -6.94522
      vertex 13.555 -3 7.55014
    endloop
  endfacet
  facet normal 0 -1 0
    outer loop
      vertex -26.0453 -3 -6.94522
      vertex -34.7815 -3 0.920883
      vertex -34.1355 -3 -1.06737
    endloop
  endfacet
  facet normal -0 -1 0
    outer loop
      vertex 26.0902 -3 -6.51056
      vertex 15.247 -3 7.93634
      vertex 24.0453 -3 -6.94522
    endloop
  endfacet
  facet normal 0 -1 0
    outer loop
      vertex -26.0453 -3 -6.94522
      vertex -34.1355 -3 -1.06737
      vertex -33.0902 -3 -2.87785
    endloop
  endfacet
  facet normal 0 -1 0
    outer loop
      vertex 15.247 -3 7.93634
      vertex 32.7815 -3 0.920883
      vertex 33 -3 3
    endloop
  endfacet
  facet normal 0 -1 0
    outer loop
      vertex -26.0453 -3 -6.94522
      vertex -33.0902 -3 -2.87785
      vertex -31.6913 -3 -4.43145
    endloop
  endfacet
  facet normal 0 -1 0
    outer loop
      vertex 15.247 -3 7.93634
      vertex 32.1355 -3 -1.06737
      vertex 32.7815 -3 0.920883
    endloop
  endfacet
  facet normal 0 -1 0
    outer loop
      vertex -26.0453 -3 -6.94522
      vertex -31.6913 -3 -4.43145
      vertex -30 -3 -5.66025
    endloop
  endfacet
  facet normal 0 -1 0
    outer loop
      vertex 15.247 -3 7.93634
      vertex 31.0902 -3 -2.87785
      vertex 32.1355 -3 -1.06737
    endloop
  endfacet
  facet normal 0 -1 0
    outer loop
      vertex -26.0453 -3 -6.94522
      vertex -30 -3 -5.66025
      vertex -28.0902 -3 -6.51056
    endloop
  endfacet
  facet normal 0 -1 0
    outer loop
      vertex 15.247 -3 7.93634
      vertex 29.6913 -3 -4.43145
      vertex 31.0902 -3 -2.87785
    endloop
  endfacet
  facet normal 0 -1 0
    outer loop
      vertex 15.247 -3 7.93634
      vertex 28 -3 -5.66025
      vertex 29.6913 -3 -4.43145
    endloop
  endfacet
  facet normal 0 -1 0
    outer loop
      vertex 15.247 -3 7.93634
      vertex 26.0902 -3 -6.51056
      vertex 28 -3 -5.66025
    endloop
  endfacet
  facet normal 0.95106 0 -0.309007
    outer loop
      vertex 32.7815 -3 0.920883
      vertex 32.1355 2 -1.06737
      vertex 32.7815 2 0.920883
    endloop
  endfacet
  facet normal 0.95106 0 -0.309007
    outer loop
      vertex 32.1355 2 -1.06737
      vertex 32.7815 -3 0.920883
      vertex 32.1355 -3 -1.06737
    endloop
  endfacet
  facet normal -0.866021 0 -0.500007
    outer loop
      vertex -33.0902 -3 -2.87785
      vertex -34.1355 2 -1.06737
      vertex -33.0902 2 -2.87785
    endloop
  endfacet
  facet normal -0.866021 -0 -0.500007
    outer loop
      vertex -34.1355 2 -1.06737
      vertex -33.0902 -3 -2.87785
      vertex -34.1355 -3 -1.06737
    endloop
  endfacet
  facet normal 0.743137 0 -0.669139
    outer loop
      vertex 31.0902 -3 -2.87785
      vertex 29.6913 2 -4.43145
      vertex 31.0902 2 -2.87785
    endloop
  endfacet
  facet normal 0.743137 0 -0.669139
    outer loop
      vertex 29.6913 2 -4.43145
      vertex 31.0902 -3 -2.87785
      vertex 29.6913 -3 -4.43145
    endloop
  endfacet
  facet normal 0.996815 -0 0.0797452
    outer loop
      vertex 23 -3 128
      vertex 33 2 3
      vertex 23 2 128
    endloop
  endfacet
  facet normal 0.996815 0 0.0797452
    outer loop
      vertex 33 2 3
      vertex 23 -3 128
      vertex 33 -3 3
    endloop
  endfacet
  facet normal -0 0 1
    outer loop
      vertex -14.445 2 7.55014
      vertex 13.555 -3 7.55014
      vertex 13.555 2 7.55014
    endloop
  endfacet
  facet normal 0 0 1
    outer loop
      vertex 13.555 -3 7.55014
      vertex -14.445 2 7.55014
      vertex -14.445 -3 7.55014
    endloop
  endfacet
  facet normal -0.900977 0 -0.433866
    outer loop
      vertex 16 -3 32.5
      vertex 15.247 2 34.0637
      vertex 16 2 32.5
    endloop
  endfacet
  facet normal -0.900977 -0 -0.433866
    outer loop
      vertex 15.247 2 34.0637
      vertex 16 -3 32.5
      vertex 15.247 -3 34.0637
    endloop
  endfacet
  facet normal -0.222528 0 -0.974926
    outer loop
      vertex 13.555 -3 34.4499
      vertex 15.247 2 34.0637
      vertex 15.247 -3 34.0637
    endloop
  endfacet
  facet normal -0.222528 0 -0.974926
    outer loop
      vertex 15.247 2 34.0637
      vertex 13.555 -3 34.4499
      vertex 13.555 2 34.4499
    endloop
  endfacet
  facet normal 1 -0 0
    outer loop
      vertex -15.8019 -3 33.3678
      vertex -15.8019 2 8.63223
      vertex -15.8019 2 33.3678
    endloop
  endfacet
  facet normal 1 0 0
    outer loop
      vertex -15.8019 2 8.63223
      vertex -15.8019 -3 33.3678
      vertex -15.8019 -3 8.63223
    endloop
  endfacet
  facet normal -1 0 0
    outer loop
      vertex 16 -3 9.5
      vertex 16 2 32.5
      vertex 16 2 9.5
    endloop
  endfacet
  facet normal -1 -0 0
    outer loop
      vertex 16 2 32.5
      vertex 16 -3 9.5
      vertex 16 -3 32.5
    endloop
  endfacet
  facet normal 0 0 -1
    outer loop
      vertex -14.445 -3 34.4499
      vertex 13.555 2 34.4499
      vertex 13.555 -3 34.4499
    endloop
  endfacet
  facet normal -0 0 -1
    outer loop
      vertex 13.555 2 34.4499
      vertex -14.445 -3 34.4499
      vertex -14.445 2 34.4499
    endloop
  endfacet
  facet normal -0.900973 0 0.433875
    outer loop
      vertex 15.247 -3 7.93634
      vertex 16 2 9.5
      vertex 15.247 2 7.93634
    endloop
  endfacet
  facet normal -0.900973 0 0.433875
    outer loop
      vertex 16 2 9.5
      vertex 15.247 -3 7.93634
      vertex 16 -3 9.5
    endloop
  endfacet
  facet normal -0.222528 0 0.974926
    outer loop
      vertex 13.555 2 7.55014
      vertex 15.247 -3 7.93634
      vertex 15.247 2 7.93634
    endloop
  endfacet
  facet normal -0.222528 0 0.974926
    outer loop
      vertex 15.247 -3 7.93634
      vertex 13.555 2 7.55014
      vertex 13.555 -3 7.55014
    endloop
  endfacet
  facet normal 0.623489 0 0.781832
    outer loop
      vertex -15.8019 2 8.63223
      vertex -14.445 -3 7.55014
      vertex -14.445 2 7.55014
    endloop
  endfacet
  facet normal 0.623489 0 0.781832
    outer loop
      vertex -14.445 -3 7.55014
      vertex -15.8019 2 8.63223
      vertex -15.8019 -3 8.63223
    endloop
  endfacet
  facet normal 0.623493 0 -0.781829
    outer loop
      vertex -15.8019 -3 33.3678
      vertex -14.445 2 34.4499
      vertex -14.445 -3 34.4499
    endloop
  endfacet
  facet normal 0.623493 0 -0.781829
    outer loop
      vertex -14.445 2 34.4499
      vertex -15.8019 -3 33.3678
      vertex -15.8019 2 33.3678
    endloop
  endfacet
  facet normal -0.222528 0 0.974926
    outer loop
      vertex 13.555 2 37.5501
      vertex 15.247 -3 37.9363
      vertex 15.247 2 37.9363
    endloop
  endfacet
  facet normal -0.222528 0 0.974926
    outer loop
      vertex 15.247 -3 37.9363
      vertex 13.555 2 37.5501
      vertex 13.555 -3 37.5501
    endloop
  endfacet
  facet normal 0.623493 0 -0.781829
    outer loop
      vertex -15.8019 -3 63.3678
      vertex -14.445 2 64.4499
      vertex -14.445 -3 64.4499
    endloop
  endfacet
  facet normal 0.623493 0 -0.781829
    outer loop
      vertex -14.445 2 64.4499
      vertex -15.8019 -3 63.3678
      vertex -15.8019 2 63.3678
    endloop
  endfacet
  facet normal -0 0 1
    outer loop
      vertex -14.445 2 37.5501
      vertex 13.555 -3 37.5501
      vertex 13.555 2 37.5501
    endloop
  endfacet
  facet normal 0 0 1
    outer loop
      vertex 13.555 -3 37.5501
      vertex -14.445 2 37.5501
      vertex -14.445 -3 37.5501
    endloop
  endfacet
  facet normal 0.623493 0 0.781829
    outer loop
      vertex -15.8019 2 38.6322
      vertex -14.445 -3 37.5501
      vertex -14.445 2 37.5501
    endloop
  endfacet
  facet normal 0.623493 0 0.781829
    outer loop
      vertex -14.445 -3 37.5501
      vertex -15.8019 2 38.6322
      vertex -15.8019 -3 38.6322
    endloop
  endfacet
  facet normal 1 -0 0
    outer loop
      vertex -15.8019 -3 63.3678
      vertex -15.8019 2 38.6322
      vertex -15.8019 2 63.3678
    endloop
  endfacet
  facet normal 1 0 0
    outer loop
      vertex -15.8019 2 38.6322
      vertex -15.8019 -3 63.3678
      vertex -15.8019 -3 38.6322
    endloop
  endfacet
  facet normal -1 0 0
    outer loop
      vertex 16 -3 39.5
      vertex 16 2 62.5
      vertex 16 2 39.5
    endloop
  endfacet
  facet normal -1 -0 0
    outer loop
      vertex 16 2 62.5
      vertex 16 -3 39.5
      vertex 16 -3 62.5
    endloop
  endfacet
  facet normal 0 0 -1
    outer loop
      vertex -14.445 -3 64.4499
      vertex 13.555 2 64.4499
      vertex 13.555 -3 64.4499
    endloop
  endfacet
  facet normal -0 0 -1
    outer loop
      vertex 13.555 2 64.4499
      vertex -14.445 -3 64.4499
      vertex -14.445 2 64.4499
    endloop
  endfacet
  facet normal -0.900977 0 0.433866
    outer loop
      vertex 15.247 -3 37.9363
      vertex 16 2 39.5
      vertex 15.247 2 37.9363
    endloop
  endfacet
  facet normal -0.900977 0 0.433866
    outer loop
      vertex 16 2 39.5
      vertex 15.247 -3 37.9363
      vertex 16 -3 39.5
    endloop
  endfacet
  facet normal -0.900977 0 -0.433866
    outer loop
      vertex 16 -3 62.5
      vertex 15.247 2 64.0637
      vertex 16 2 62.5
    endloop
  endfacet
  facet normal -0.900977 -0 -0.433866
    outer loop
      vertex 15.247 2 64.0637
      vertex 16 -3 62.5
      vertex 15.247 -3 64.0637
    endloop
  endfacet
  facet normal -0.222528 0 -0.974926
    outer loop
      vertex 13.555 -3 64.4499
      vertex 15.247 2 64.0637
      vertex 15.247 -3 64.0637
    endloop
  endfacet
  facet normal -0.222528 0 -0.974926
    outer loop
      vertex 15.247 2 64.0637
      vertex 13.555 -3 64.4499
      vertex 13.555 2 64.4499
    endloop
  endfacet
  facet normal -0.900977 0 -0.433866
    outer loop
      vertex 16 -3 92.5
      vertex 15.247 2 94.0637
      vertex 16 2 92.5
    endloop
  endfacet
  facet normal -0.900977 -0 -0.433866
    outer loop
      vertex 15.247 2 94.0637
      vertex 16 -3 92.5
      vertex 15.247 -3 94.0637
    endloop
  endfacet
  facet normal -0.900977 0 0.433866
    outer loop
      vertex 15.247 -3 67.9363
      vertex 16 2 69.5
      vertex 15.247 2 67.9363
    endloop
  endfacet
  facet normal -0.900977 0 0.433866
    outer loop
      vertex 16 2 69.5
      vertex 15.247 -3 67.9363
      vertex 16 -3 69.5
    endloop
  endfacet
  facet normal -1 0 0
    outer loop
      vertex 16 -3 69.5
      vertex 16 2 92.5
      vertex 16 2 69.5
    endloop
  endfacet
  facet normal -1 -0 0
    outer loop
      vertex 16 2 92.5
      vertex 16 -3 69.5
      vertex 16 -3 92.5
    endloop
  endfacet
  facet normal 1 -0 0
    outer loop
      vertex -15.8019 -3 93.3678
      vertex -15.8019 2 68.6322
      vertex -15.8019 2 93.3678
    endloop
  endfacet
  facet normal 1 0 0
    outer loop
      vertex -15.8019 2 68.6322
      vertex -15.8019 -3 93.3678
      vertex -15.8019 -3 68.6322
    endloop
  endfacet
  facet normal -0.222528 0 -0.974926
    outer loop
      vertex 13.555 -3 94.4499
      vertex 15.247 2 94.0637
      vertex 15.247 -3 94.0637
    endloop
  endfacet
  facet normal -0.222528 0 -0.974926
    outer loop
      vertex 15.247 2 94.0637
      vertex 13.555 -3 94.4499
      vertex 13.555 2 94.4499
    endloop
  endfacet
  facet normal -0.222528 0 0.974926
    outer loop
      vertex 13.555 2 67.5501
      vertex 15.247 -3 67.9363
      vertex 15.247 2 67.9363
    endloop
  endfacet
  facet normal -0.222528 0 0.974926
    outer loop
      vertex 15.247 -3 67.9363
      vertex 13.555 2 67.5501
      vertex 13.555 -3 67.5501
    endloop
  endfacet
  facet normal 0.623493 0 -0.781829
    outer loop
      vertex -15.8019 -3 93.3678
      vertex -14.445 2 94.4499
      vertex -14.445 -3 94.4499
    endloop
  endfacet
  facet normal 0.623493 0 -0.781829
    outer loop
      vertex -14.445 2 94.4499
      vertex -15.8019 -3 93.3678
      vertex -15.8019 2 93.3678
    endloop
  endfacet
  facet normal 0.623493 0 0.781829
    outer loop
      vertex -15.8019 2 68.6322
      vertex -14.445 -3 67.5501
      vertex -14.445 2 67.5501
    endloop
  endfacet
  facet normal 0.623493 0 0.781829
    outer loop
      vertex -14.445 -3 67.5501
      vertex -15.8019 2 68.6322
      vertex -15.8019 -3 68.6322
    endloop
  endfacet
  facet normal 0 0 -1
    outer loop
      vertex -14.445 -3 94.4499
      vertex 13.555 2 94.4499
      vertex 13.555 -3 94.4499
    endloop
  endfacet
  facet normal -0 0 -1
    outer loop
      vertex 13.555 2 94.4499
      vertex -14.445 -3 94.4499
      vertex -14.445 2 94.4499
    endloop
  endfacet
  facet normal -0 0 1
    outer loop
      vertex -14.445 2 67.5501
      vertex 13.555 -3 67.5501
      vertex 13.555 2 67.5501
    endloop
  endfacet
  facet normal 0 0 1
    outer loop
      vertex 13.555 -3 67.5501
      vertex -14.445 2 67.5501
      vertex -14.445 -3 67.5501
    endloop
  endfacet
  facet normal -0.222418 0 -0.974951
    outer loop
      vertex 13.555 -3 124.45
      vertex 15.247 2 124.064
      vertex 15.247 -3 124.064
    endloop
  endfacet
  facet normal -0.222418 0 -0.974951
    outer loop
      vertex 15.247 2 124.064
      vertex 13.555 -3 124.45
      vertex 13.555 2 124.45
    endloop
  endfacet
  facet normal 0.623458 0 -0.781857
    outer loop
      vertex -15.8019 -3 123.368
      vertex -14.445 2 124.45
      vertex -14.445 -3 124.45
    endloop
  endfacet
  facet normal 0.623458 0 -0.781857
    outer loop
      vertex -14.445 2 124.45
      vertex -15.8019 -3 123.368
      vertex -15.8019 2 123.368
    endloop
  endfacet
  facet normal -0.222528 0 0.974926
    outer loop
      vertex 13.555 2 97.5501
      vertex 15.247 -3 97.9363
      vertex 15.247 2 97.9363
    endloop
  endfacet
  facet normal -0.222528 0 0.974926
    outer loop
      vertex 15.247 -3 97.9363
      vertex 13.555 2 97.5501
      vertex 13.555 -3 97.5501
    endloop
  endfacet
  facet normal -1 0 0
    outer loop
      vertex 16 -3 99.5
      vertex 16 2 122.5
      vertex 16 2 99.5
    endloop
  endfacet
  facet normal -1 -0 0
    outer loop
      vertex 16 2 122.5
      vertex 16 -3 99.5
      vertex 16 -3 122.5
    endloop
  endfacet
  facet normal -0.900977 0 0.433866
    outer loop
      vertex 15.247 -3 97.9363
      vertex 16 2 99.5
      vertex 15.247 2 97.9363
    endloop
  endfacet
  facet normal -0.900977 0 0.433866
    outer loop
      vertex 16 2 99.5
      vertex 15.247 -3 97.9363
      vertex 16 -3 99.5
    endloop
  endfacet
  facet normal -0.90101 0 -0.433798
    outer loop
      vertex 16 -3 122.5
      vertex 15.247 2 124.064
      vertex 16 2 122.5
    endloop
  endfacet
  facet normal -0.90101 -0 -0.433798
    outer loop
      vertex 15.247 2 124.064
      vertex 16 -3 122.5
      vertex 15.247 -3 124.064
    endloop
  endfacet
  facet normal 0.623493 0 0.781829
    outer loop
      vertex -15.8019 2 98.6322
      vertex -14.445 -3 97.5501
      vertex -14.445 2 97.5501
    endloop
  endfacet
  facet normal 0.623493 0 0.781829
    outer loop
      vertex -14.445 -3 97.5501
      vertex -15.8019 2 98.6322
      vertex -15.8019 -3 98.6322
    endloop
  endfacet
  facet normal 1 -0 0
    outer loop
      vertex -15.8019 -3 123.368
      vertex -15.8019 2 98.6322
      vertex -15.8019 2 123.368
    endloop
  endfacet
  facet normal 1 0 0
    outer loop
      vertex -15.8019 2 98.6322
      vertex -15.8019 -3 123.368
      vertex -15.8019 -3 98.6322
    endloop
  endfacet
  facet normal 0 0 -1
    outer loop
      vertex -14.445 -3 124.45
      vertex 13.555 2 124.45
      vertex 13.555 -3 124.45
    endloop
  endfacet
  facet normal -0 0 -1
    outer loop
      vertex 13.555 2 124.45
      vertex -14.445 -3 124.45
      vertex -14.445 2 124.45
    endloop
  endfacet
  facet normal -0 0 1
    outer loop
      vertex -14.445 2 97.5501
      vertex 13.555 -3 97.5501
      vertex 13.555 2 97.5501
    endloop
  endfacet
  facet normal 0 0 1
    outer loop
      vertex 13.555 -3 97.5501
      vertex -14.445 2 97.5501
      vertex -14.445 -3 97.5501
    endloop
  endfacet
endsolid OpenSCAD_Model
