solid OpenSCAD_Model
  facet normal 0 0 -1
    outer loop
      vertex -25.0453 -3 1.05478
      vertex 23.0453 2 1.05478
      vertex 23.0453 -3 1.05478
    endloop
  endfacet
  facet normal -0 0 -1
    outer loop
      vertex 23.0453 2 1.05478
      vertex -25.0453 -3 1.05478
      vertex -25.0453 2 1.05478
    endloop
  endfacet
  facet normal 0.951046 -0 0.309049
    outer loop
      vertex 21.4271 -3 127.763
      vertex 22 2 126
      vertex 21.4271 2 127.763
    endloop
  endfacet
  facet normal 0.951046 0 0.309049
    outer loop
      vertex 22 2 126
      vertex 21.4271 -3 127.763
      vertex 22 -3 126
    endloop
  endfacet
  facet normal 0 -1 0
    outer loop
      vertex -22 -3 126
      vertex -19.9271 -3 128.853
      vertex -21.4271 -3 127.763
    endloop
  endfacet
  facet normal 0 -1 0
    outer loop
      vertex -19.9271 -3 128.853
      vertex 0.485745 -3 112.982
      vertex 19.9271 -3 128.853
    endloop
  endfacet
  facet normal 0 -1 0
    outer loop
      vertex -4.76484 -3 110.921
      vertex -19.9271 -3 128.853
      vertex -22 -3 126
    endloop
  endfacet
  facet normal 0 -1 0
    outer loop
      vertex 2.37472 -3 112.551
      vertex 19.9271 -3 128.853
      vertex 0.485745 -3 112.982
    endloop
  endfacet
  facet normal 0 -1 0
    outer loop
      vertex 4.05268 -3 111.582
      vertex 19.9271 -3 128.853
      vertex 2.37472 -3 112.551
    endloop
  endfacet
  facet normal 0 -1 0
    outer loop
      vertex -19.9271 -3 128.853
      vertex -1.44639 -3 112.837
      vertex 0.485745 -3 112.982
    endloop
  endfacet
  facet normal 0 -1 0
    outer loop
      vertex -19.9271 -3 128.853
      vertex -3.25 -3 112.129
      vertex -1.44639 -3 112.837
    endloop
  endfacet
  facet normal 0 -1 0
    outer loop
      vertex -19.9271 -3 128.853
      vertex -4.76484 -3 110.921
      vertex -3.25 -3 112.129
    endloop
  endfacet
  facet normal 0 -1 0
    outer loop
      vertex -22 -3 126
      vertex -5.8563 -3 109.32
      vertex -4.76484 -3 110.921
    endloop
  endfacet
  facet normal 0 -1 0
    outer loop
      vertex -22 -3 126
      vertex -6.4274 -3 107.469
      vertex -5.8563 -3 109.32
    endloop
  endfacet
  facet normal 0 -1 0
    outer loop
      vertex -22 -3 126
      vertex -6.4274 -3 105.531
      vertex -6.4274 -3 107.469
    endloop
  endfacet
  facet normal 0 -1 0
    outer loop
      vertex -22 -3 126
      vertex -5.8563 -3 103.68
      vertex -6.4274 -3 105.531
    endloop
  endfacet
  facet normal 0 -1 0
    outer loop
      vertex -5.8563 -3 81.3202
      vertex -5.8563 -3 103.68
      vertex -22 -3 126
    endloop
  endfacet
  facet normal 0 -1 0
    outer loop
      vertex -1.44639 -3 100.163
      vertex 0.485745 -3 84.9818
      vertex 0.485745 -3 100.018
    endloop
  endfacet
  facet normal 0 -1 0
    outer loop
      vertex -1.44639 -3 84.837
      vertex -1.44639 -3 100.163
      vertex -3.25 -3 100.871
    endloop
  endfacet
  facet normal 0 -1 0
    outer loop
      vertex -3.25 -3 84.1292
      vertex -3.25 -3 100.871
      vertex -4.76484 -3 102.079
    endloop
  endfacet
  facet normal 0 -1 0
    outer loop
      vertex -5.8563 -3 103.68
      vertex -5.8563 -3 81.3202
      vertex -4.76484 -3 102.079
    endloop
  endfacet
  facet normal 0 -1 0
    outer loop
      vertex -1.44639 -3 100.163
      vertex -1.44639 -3 84.837
      vertex 0.485745 -3 84.9818
    endloop
  endfacet
  facet normal 0 -1 0
    outer loop
      vertex -3.25 -3 100.871
      vertex -3.25 -3 84.1292
      vertex -1.44639 -3 84.837
    endloop
  endfacet
  facet normal 0 -1 0
    outer loop
      vertex -4.76484 -3 102.079
      vertex -4.76484 -3 82.9211
      vertex -3.25 -3 84.1292
    endloop
  endfacet
  facet normal 0 -1 -0
    outer loop
      vertex -4.76484 -3 102.079
      vertex -5.8563 -3 81.3202
      vertex -4.76484 -3 82.9211
    endloop
  endfacet
  facet normal 0 -1 0
    outer loop
      vertex -22 -3 126
      vertex -6.4274 -3 79.4688
      vertex -5.8563 -3 81.3202
    endloop
  endfacet
  facet normal 0 -1 0
    outer loop
      vertex -22 -3 126
      vertex -6.4274 -3 77.5312
      vertex -6.4274 -3 79.4688
    endloop
  endfacet
  facet normal 0 -1 0
    outer loop
      vertex -34 -3 11
      vertex -6.4274 -3 77.5312
      vertex -22 -3 126
    endloop
  endfacet
  facet normal 0 -1 0
    outer loop
      vertex -1.44639 -3 72.163
      vertex 0.485745 -3 56.9818
      vertex 0.485745 -3 72.0182
    endloop
  endfacet
  facet normal 0 -1 0
    outer loop
      vertex -1.44639 -3 56.837
      vertex -1.44639 -3 72.163
      vertex -3.25 -3 72.8708
    endloop
  endfacet
  facet normal 0 -1 0
    outer loop
      vertex -3.25 -3 56.1292
      vertex -3.25 -3 72.8708
      vertex -4.76484 -3 74.0789
    endloop
  endfacet
  facet normal 0 -1 0
    outer loop
      vertex -4.76484 -3 54.9211
      vertex -4.76484 -3 74.0789
      vertex -5.8563 -3 75.6798
    endloop
  endfacet
  facet normal 0 -1 0
    outer loop
      vertex -1.44639 -3 72.163
      vertex -1.44639 -3 56.837
      vertex 0.485745 -3 56.9818
    endloop
  endfacet
  facet normal -0 -1 0
    outer loop
      vertex -6.4274 -3 51.4688
      vertex -6.4274 -3 77.5312
      vertex -34 -3 11
    endloop
  endfacet
  facet normal 0 -1 0
    outer loop
      vertex -3.25 -3 72.8708
      vertex -3.25 -3 56.1292
      vertex -1.44639 -3 56.837
    endloop
  endfacet
  facet normal 0 -1 0
    outer loop
      vertex -4.76484 -3 74.0789
      vertex -4.76484 -3 54.9211
      vertex -3.25 -3 56.1292
    endloop
  endfacet
  facet normal 0 -1 0
    outer loop
      vertex -5.8563 -3 75.6798
      vertex -5.8563 -3 53.3202
      vertex -4.76484 -3 54.9211
    endloop
  endfacet
  facet normal 0 -1 -0
    outer loop
      vertex -5.8563 -3 75.6798
      vertex -6.4274 -3 51.4688
      vertex -5.8563 -3 53.3202
    endloop
  endfacet
  facet normal 0 -1 0
    outer loop
      vertex -6.4274 -3 77.5312
      vertex -6.4274 -3 51.4688
      vertex -5.8563 -3 75.6798
    endloop
  endfacet
  facet normal 0 -1 0
    outer loop
      vertex -1.44639 -3 44.163
      vertex 0.485745 -3 28.9818
      vertex 0.485745 -3 44.0182
    endloop
  endfacet
  facet normal 0 -1 0
    outer loop
      vertex -1.44639 -3 28.837
      vertex -1.44639 -3 44.163
      vertex -3.25 -3 44.8708
    endloop
  endfacet
  facet normal 0 -1 0
    outer loop
      vertex -3.25 -3 28.1292
      vertex -3.25 -3 44.8708
      vertex -4.76484 -3 46.0789
    endloop
  endfacet
  facet normal 0 -1 0
    outer loop
      vertex -4.76484 -3 26.9211
      vertex -4.76484 -3 46.0789
      vertex -5.8563 -3 47.6798
    endloop
  endfacet
  facet normal 0 -1 0
    outer loop
      vertex -1.44639 -3 44.163
      vertex -1.44639 -3 28.837
      vertex 0.485745 -3 28.9818
    endloop
  endfacet
  facet normal 0 -1 0
    outer loop
      vertex -34 -3 11
      vertex -5.8563 -3 47.6798
      vertex -6.4274 -3 49.5312
    endloop
  endfacet
  facet normal 0 -1 0
    outer loop
      vertex -3.25 -3 44.8708
      vertex -3.25 -3 28.1292
      vertex -1.44639 -3 28.837
    endloop
  endfacet
  facet normal 0 -1 -0
    outer loop
      vertex -6.4274 -3 51.4688
      vertex -34 -3 11
      vertex -6.4274 -3 49.5312
    endloop
  endfacet
  facet normal 0 -1 0
    outer loop
      vertex -4.76484 -3 46.0789
      vertex -4.76484 -3 26.9211
      vertex -3.25 -3 28.1292
    endloop
  endfacet
  facet normal 0 -1 -0
    outer loop
      vertex -5.8563 -3 47.6798
      vertex -34 -3 11
      vertex -5.8563 -3 25.3202
    endloop
  endfacet
  facet normal 0 -1 0
    outer loop
      vertex -5.8563 -3 47.6798
      vertex -5.8563 -3 25.3202
      vertex -4.76484 -3 26.9211
    endloop
  endfacet
  facet normal 0 -1 0
    outer loop
      vertex -5.8563 -3 25.3202
      vertex -34 -3 11
      vertex -6.4274 -3 23.4688
    endloop
  endfacet
  facet normal 0 -1 -0
    outer loop
      vertex -3.25 -3 16.8708
      vertex -25.0453 -3 1.05478
      vertex -1.44639 -3 16.163
    endloop
  endfacet
  facet normal 0 -1 -0
    outer loop
      vertex -4.76484 -3 18.0789
      vertex -25.0453 -3 1.05478
      vertex -3.25 -3 16.8708
    endloop
  endfacet
  facet normal 0 -1 -0
    outer loop
      vertex -5.8563 -3 19.6798
      vertex -25.0453 -3 1.05478
      vertex -4.76484 -3 18.0789
    endloop
  endfacet
  facet normal 0 -1 0
    outer loop
      vertex -25.0453 -3 1.05478
      vertex -5.8563 -3 19.6798
      vertex -34 -3 11
    endloop
  endfacet
  facet normal 0 -1 -0
    outer loop
      vertex -6.4274 -3 21.5312
      vertex -34 -3 11
      vertex -5.8563 -3 19.6798
    endloop
  endfacet
  facet normal 0 -1 -0
    outer loop
      vertex -6.4274 -3 23.4688
      vertex -34 -3 11
      vertex -6.4274 -3 21.5312
    endloop
  endfacet
  facet normal -0 -1 0
    outer loop
      vertex 22 -3 126
      vertex 19.9271 -3 128.853
      vertex 4.05268 -3 111.582
    endloop
  endfacet
  facet normal 0 -1 0
    outer loop
      vertex 19.9271 -3 128.853
      vertex 22 -3 126
      vertex 21.4271 -3 127.763
    endloop
  endfacet
  facet normal 0 -1 0
    outer loop
      vertex 5.37055 -3 110.162
      vertex 22 -3 126
      vertex 4.05268 -3 111.582
    endloop
  endfacet
  facet normal 0 -1 0
    outer loop
      vertex 6.21122 -3 108.416
      vertex 22 -3 126
      vertex 5.37055 -3 110.162
    endloop
  endfacet
  facet normal 0 -1 0
    outer loop
      vertex 6.5 -3 106.5
      vertex 22 -3 126
      vertex 6.21122 -3 108.416
    endloop
  endfacet
  facet normal 0 -1 0
    outer loop
      vertex 6.21122 -3 104.584
      vertex 22 -3 126
      vertex 6.5 -3 106.5
    endloop
  endfacet
  facet normal 0 -1 0
    outer loop
      vertex 6.21122 -3 80.4159
      vertex 6.21122 -3 104.584
      vertex 5.37055 -3 102.838
    endloop
  endfacet
  facet normal 0 -1 0
    outer loop
      vertex 0.485745 -3 84.9818
      vertex 2.37472 -3 100.449
      vertex 0.485745 -3 100.018
    endloop
  endfacet
  facet normal 0 -1 0
    outer loop
      vertex 2.37472 -3 84.5507
      vertex 2.37472 -3 100.449
      vertex 0.485745 -3 84.9818
    endloop
  endfacet
  facet normal 0 -1 0
    outer loop
      vertex 2.37472 -3 100.449
      vertex 2.37472 -3 84.5507
      vertex 4.05268 -3 101.418
    endloop
  endfacet
  facet normal 0 -1 0
    outer loop
      vertex 4.05268 -3 83.5819
      vertex 4.05268 -3 101.418
      vertex 2.37472 -3 84.5507
    endloop
  endfacet
  facet normal 0 -1 0
    outer loop
      vertex 4.05268 -3 101.418
      vertex 4.05268 -3 83.5819
      vertex 5.37055 -3 102.838
    endloop
  endfacet
  facet normal 0 -1 0
    outer loop
      vertex 5.37055 -3 82.1616
      vertex 5.37055 -3 102.838
      vertex 4.05268 -3 83.5819
    endloop
  endfacet
  facet normal 0 -1 0
    outer loop
      vertex 6.21122 -3 80.4159
      vertex 5.37055 -3 102.838
      vertex 5.37055 -3 82.1616
    endloop
  endfacet
  facet normal 0 -1 0
    outer loop
      vertex 6.21122 -3 104.584
      vertex 6.21122 -3 80.4159
      vertex 22 -3 126
    endloop
  endfacet
  facet normal 0 -1 0
    outer loop
      vertex 6.5 -3 78.5
      vertex 22 -3 126
      vertex 6.21122 -3 80.4159
    endloop
  endfacet
  facet normal 0 -1 0
    outer loop
      vertex 32 -3 11
      vertex 6.5 -3 78.5
      vertex 6.21122 -3 76.5841
    endloop
  endfacet
  facet normal 0 -1 0
    outer loop
      vertex 0.485745 -3 56.9818
      vertex 2.37472 -3 72.4493
      vertex 0.485745 -3 72.0182
    endloop
  endfacet
  facet normal 0 -1 0
    outer loop
      vertex 2.37472 -3 56.5507
      vertex 2.37472 -3 72.4493
      vertex 0.485745 -3 56.9818
    endloop
  endfacet
  facet normal 0 -1 0
    outer loop
      vertex 2.37472 -3 72.4493
      vertex 2.37472 -3 56.5507
      vertex 4.05268 -3 73.4181
    endloop
  endfacet
  facet normal 0 -1 0
    outer loop
      vertex 4.05268 -3 55.5819
      vertex 4.05268 -3 73.4181
      vertex 2.37472 -3 56.5507
    endloop
  endfacet
  facet normal 0 -1 0
    outer loop
      vertex 4.05268 -3 73.4181
      vertex 4.05268 -3 55.5819
      vertex 5.37055 -3 74.8384
    endloop
  endfacet
  facet normal 0 -1 0
    outer loop
      vertex 5.37055 -3 54.1616
      vertex 5.37055 -3 74.8384
      vertex 4.05268 -3 55.5819
    endloop
  endfacet
  facet normal 0 -1 0
    outer loop
      vertex 5.37055 -3 74.8384
      vertex 5.37055 -3 54.1616
      vertex 6.21122 -3 76.5841
    endloop
  endfacet
  facet normal 0 -1 0
    outer loop
      vertex 6.21122 -3 52.4159
      vertex 6.21122 -3 76.5841
      vertex 5.37055 -3 54.1616
    endloop
  endfacet
  facet normal 0 -1 0
    outer loop
      vertex 32 -3 11
      vertex 6.21122 -3 76.5841
      vertex 6.21122 -3 52.4159
    endloop
  endfacet
  facet normal 0 -1 0
    outer loop
      vertex 32 -3 11
      vertex 6.21122 -3 52.4159
      vertex 6.5 -3 50.5
    endloop
  endfacet
  facet normal 0 -1 0
    outer loop
      vertex 32 -3 11
      vertex 6.5 -3 50.5
      vertex 6.21122 -3 48.5841
    endloop
  endfacet
  facet normal 0 -1 0
    outer loop
      vertex 0.485745 -3 28.9818
      vertex 2.37472 -3 44.4493
      vertex 0.485745 -3 44.0182
    endloop
  endfacet
  facet normal 0 -1 0
    outer loop
      vertex 2.37472 -3 28.5507
      vertex 2.37472 -3 44.4493
      vertex 0.485745 -3 28.9818
    endloop
  endfacet
  facet normal 0 -1 0
    outer loop
      vertex 2.37472 -3 44.4493
      vertex 2.37472 -3 28.5507
      vertex 4.05268 -3 45.4181
    endloop
  endfacet
  facet normal 0 -1 0
    outer loop
      vertex 4.05268 -3 27.5819
      vertex 4.05268 -3 45.4181
      vertex 2.37472 -3 28.5507
    endloop
  endfacet
  facet normal 0 -1 0
    outer loop
      vertex 4.05268 -3 45.4181
      vertex 4.05268 -3 27.5819
      vertex 5.37055 -3 46.8384
    endloop
  endfacet
  facet normal 0 -1 0
    outer loop
      vertex 5.37055 -3 26.1616
      vertex 5.37055 -3 46.8384
      vertex 4.05268 -3 27.5819
    endloop
  endfacet
  facet normal 0 -1 0
    outer loop
      vertex 5.37055 -3 46.8384
      vertex 5.37055 -3 26.1616
      vertex 6.21122 -3 48.5841
    endloop
  endfacet
  facet normal 0 -1 -0
    outer loop
      vertex 6.21122 -3 48.5841
      vertex 5.37055 -3 26.1616
      vertex 32 -3 11
    endloop
  endfacet
  facet normal 0 -1 0
    outer loop
      vertex 32 -3 11
      vertex 5.37055 -3 26.1616
      vertex 6.21122 -3 24.4159
    endloop
  endfacet
  facet normal 0 -1 0
    outer loop
      vertex 32 -3 11
      vertex 6.21122 -3 24.4159
      vertex 6.5 -3 22.5
    endloop
  endfacet
  facet normal 0 -1 0
    outer loop
      vertex 6.5 -3 78.5
      vertex 32 -3 11
      vertex 22 -3 126
    endloop
  endfacet
  facet normal 0 -1 0
    outer loop
      vertex 6.21122 -3 20.5841
      vertex 32 -3 11
      vertex 6.5 -3 22.5
    endloop
  endfacet
  facet normal 0 -1 0
    outer loop
      vertex 23.0453 -3 1.05478
      vertex 6.21122 -3 20.5841
      vertex 5.37055 -3 18.8384
    endloop
  endfacet
  facet normal 0 -1 0
    outer loop
      vertex 23.0453 -3 1.05478
      vertex 5.37055 -3 18.8384
      vertex 4.05268 -3 17.4181
    endloop
  endfacet
  facet normal 0 -1 0
    outer loop
      vertex 23.0453 -3 1.05478
      vertex 4.05268 -3 17.4181
      vertex 2.37472 -3 16.4493
    endloop
  endfacet
  facet normal 0 -1 0
    outer loop
      vertex 23.0453 -3 1.05478
      vertex 2.37472 -3 16.4493
      vertex 0.485745 -3 16.0182
    endloop
  endfacet
  facet normal 0 -1 -0
    outer loop
      vertex -1.44639 -3 16.163
      vertex -25.0453 -3 1.05478
      vertex 0.485745 -3 16.0182
    endloop
  endfacet
  facet normal 0 -1 0
    outer loop
      vertex -25.0453 -3 1.05478
      vertex -34 -3 11
      vertex -33.7815 -3 8.92088
    endloop
  endfacet
  facet normal 0 -1 0
    outer loop
      vertex 23.0453 -3 1.05478
      vertex 0.485745 -3 16.0182
      vertex -25.0453 -3 1.05478
    endloop
  endfacet
  facet normal 0 -1 0
    outer loop
      vertex -25.0453 -3 1.05478
      vertex -33.7815 -3 8.92088
      vertex -33.1355 -3 6.93263
    endloop
  endfacet
  facet normal 0 -1 0
    outer loop
      vertex 6.21122 -3 20.5841
      vertex 23.0453 -3 1.05478
      vertex 32 -3 11
    endloop
  endfacet
  facet normal 0 -1 0
    outer loop
      vertex -25.0453 -3 1.05478
      vertex -33.1355 -3 6.93263
      vertex -32.0902 -3 5.12215
    endloop
  endfacet
  facet normal 0 -1 0
    outer loop
      vertex 32 -3 11
      vertex 23.0453 -3 1.05478
      vertex 31.7815 -3 8.92088
    endloop
  endfacet
  facet normal 0 -1 0
    outer loop
      vertex -25.0453 -3 1.05478
      vertex -32.0902 -3 5.12215
      vertex -30.6913 -3 3.56855
    endloop
  endfacet
  facet normal 0 -1 0
    outer loop
      vertex 31.7815 -3 8.92088
      vertex 23.0453 -3 1.05478
      vertex 31.1355 -3 6.93263
    endloop
  endfacet
  facet normal 0 -1 0
    outer loop
      vertex -25.0453 -3 1.05478
      vertex -30.6913 -3 3.56855
      vertex -29 -3 2.33975
    endloop
  endfacet
  facet normal 0 -1 0
    outer loop
      vertex 31.1355 -3 6.93263
      vertex 23.0453 -3 1.05478
      vertex 30.0902 -3 5.12215
    endloop
  endfacet
  facet normal 0 -1 0
    outer loop
      vertex -25.0453 -3 1.05478
      vertex -29 -3 2.33975
      vertex -27.0902 -3 1.48944
    endloop
  endfacet
  facet normal 0 -1 0
    outer loop
      vertex 30.0902 -3 5.12215
      vertex 23.0453 -3 1.05478
      vertex 28.6913 -3 3.56855
    endloop
  endfacet
  facet normal 0 -1 0
    outer loop
      vertex 28.6913 -3 3.56855
      vertex 23.0453 -3 1.05478
      vertex 27 -3 2.33975
    endloop
  endfacet
  facet normal 0 -1 0
    outer loop
      vertex 27 -3 2.33975
      vertex 23.0453 -3 1.05478
      vertex 25.0902 -3 1.48944
    endloop
  endfacet
  facet normal 0.406742 0 -0.913543
    outer loop
      vertex 25.0902 -3 1.48944
      vertex 27 2 2.33975
      vertex 27 -3 2.33975
    endloop
  endfacet
  facet normal 0.406742 0 -0.913543
    outer loop
      vertex 27 2 2.33975
      vertex 25.0902 -3 1.48944
      vertex 25.0902 2 1.48944
    endloop
  endfacet
  facet normal -0.587785 0 -0.809017
    outer loop
      vertex -30.6913 -3 3.56855
      vertex -29 2 2.33975
      vertex -29 -3 2.33975
    endloop
  endfacet
  facet normal -0.587785 0 -0.809017
    outer loop
      vertex -29 2 2.33975
      vertex -30.6913 -3 3.56855
      vertex -30.6913 2 3.56855
    endloop
  endfacet
  facet normal 0.996241 -0 0.0866296
    outer loop
      vertex 22 -3 126
      vertex 32 2 11
      vertex 22 2 126
    endloop
  endfacet
  facet normal 0.996241 0 0.0866296
    outer loop
      vertex 32 2 11
      vertex 22 -3 126
      vertex 32 -3 11
    endloop
  endfacet
  facet normal 0.866021 0 -0.500007
    outer loop
      vertex 31.1355 -3 6.93263
      vertex 30.0902 2 5.12215
      vertex 31.1355 2 6.93263
    endloop
  endfacet
  facet normal 0.866021 0 -0.500007
    outer loop
      vertex 30.0902 2 5.12215
      vertex 31.1355 -3 6.93263
      vertex 30.0902 -3 5.12215
    endloop
  endfacet
  facet normal -0.994523 0 -0.104517
    outer loop
      vertex -33.7815 -3 8.92088
      vertex -34 2 11
      vertex -33.7815 2 8.92088
    endloop
  endfacet
  facet normal -0.994523 -0 -0.104517
    outer loop
      vertex -34 2 11
      vertex -33.7815 -3 8.92088
      vertex -34 -3 11
    endloop
  endfacet
  facet normal 0.994523 0 -0.104517
    outer loop
      vertex 32 -3 11
      vertex 31.7815 2 8.92088
      vertex 32 2 11
    endloop
  endfacet
  facet normal 0.994523 0 -0.104517
    outer loop
      vertex 31.7815 2 8.92088
      vertex 32 -3 11
      vertex 31.7815 -3 8.92088
    endloop
  endfacet
  facet normal -0.95106 0 -0.309008
    outer loop
      vertex -33.1355 -3 6.93263
      vertex -33.7815 2 8.92088
      vertex -33.1355 2 6.93263
    endloop
  endfacet
  facet normal -0.95106 -0 -0.309008
    outer loop
      vertex -33.7815 2 8.92088
      vertex -33.1355 -3 6.93263
      vertex -33.7815 -3 8.92088
    endloop
  endfacet
  facet normal -0.866021 0 -0.500007
    outer loop
      vertex -32.0902 -3 5.12215
      vertex -33.1355 2 6.93263
      vertex -32.0902 2 5.12215
    endloop
  endfacet
  facet normal -0.866021 -0 -0.500007
    outer loop
      vertex -33.1355 2 6.93263
      vertex -32.0902 -3 5.12215
      vertex -33.1355 -3 6.93263
    endloop
  endfacet
  facet normal 0.95106 0 -0.309008
    outer loop
      vertex 31.7815 -3 8.92088
      vertex 31.1355 2 6.93263
      vertex 31.7815 2 8.92088
    endloop
  endfacet
  facet normal 0.95106 0 -0.309008
    outer loop
      vertex 31.1355 2 6.93263
      vertex 31.7815 -3 8.92088
      vertex 31.1355 -3 6.93263
    endloop
  endfacet
  facet normal 0.743137 0 -0.669139
    outer loop
      vertex 30.0902 -3 5.12215
      vertex 28.6913 2 3.56855
      vertex 30.0902 2 5.12215
    endloop
  endfacet
  facet normal 0.743137 0 -0.669139
    outer loop
      vertex 28.6913 2 3.56855
      vertex 30.0902 -3 5.12215
      vertex 28.6913 -3 3.56855
    endloop
  endfacet
  facet normal -0.951046 0 0.309049
    outer loop
      vertex -22 -3 126
      vertex -21.4271 2 127.763
      vertex -22 2 126
    endloop
  endfacet
  facet normal -0.951046 0 0.309049
    outer loop
      vertex -21.4271 2 127.763
      vertex -22 -3 126
      vertex -21.4271 -3 127.763
    endloop
  endfacet
  facet normal 0.207913 0 -0.978147
    outer loop
      vertex 23.0453 -3 1.05478
      vertex 25.0902 2 1.48944
      vertex 25.0902 -3 1.48944
    endloop
  endfacet
  facet normal 0.207913 0 -0.978147
    outer loop
      vertex 25.0902 2 1.48944
      vertex 23.0453 -3 1.05478
      vertex 23.0453 2 1.05478
    endloop
  endfacet
  facet normal -0.743137 0 -0.669139
    outer loop
      vertex -30.6913 -3 3.56855
      vertex -32.0902 2 5.12215
      vertex -30.6913 2 3.56855
    endloop
  endfacet
  facet normal -0.743137 -0 -0.669139
    outer loop
      vertex -32.0902 2 5.12215
      vertex -30.6913 -3 3.56855
      vertex -32.0902 -3 5.12215
    endloop
  endfacet
  facet normal 0.587785 0 -0.809017
    outer loop
      vertex 27 -3 2.33975
      vertex 28.6913 2 3.56855
      vertex 28.6913 -3 3.56855
    endloop
  endfacet
  facet normal 0.587785 0 -0.809017
    outer loop
      vertex 28.6913 2 3.56855
      vertex 27 -3 2.33975
      vertex 27 2 2.33975
    endloop
  endfacet
  facet normal -0.9946 0 0.103784
    outer loop
      vertex -34 -3 11
      vertex -22 2 126
      vertex -34 2 11
    endloop
  endfacet
  facet normal -0.9946 0 0.103784
    outer loop
      vertex -22 2 126
      vertex -34 -3 11
      vertex -22 -3 126
    endloop
  endfacet
  facet normal -0.406742 0 -0.913543
    outer loop
      vertex -29 -3 2.33975
      vertex -27.0902 2 1.48944
      vertex -27.0902 -3 1.48944
    endloop
  endfacet
  facet normal -0.406742 0 -0.913543
    outer loop
      vertex -27.0902 2 1.48944
      vertex -29 -3 2.33975
      vertex -29 2 2.33975
    endloop
  endfacet
  facet normal -0.587851 0 0.808969
    outer loop
      vertex -21.4271 2 127.763
      vertex -19.9271 -3 128.853
      vertex -19.9271 2 128.853
    endloop
  endfacet
  facet normal -0.587851 0 0.808969
    outer loop
      vertex -19.9271 -3 128.853
      vertex -21.4271 2 127.763
      vertex -21.4271 -3 127.763
    endloop
  endfacet
  facet normal -0.207913 0 -0.978147
    outer loop
      vertex -27.0902 -3 1.48944
      vertex -25.0453 2 1.05478
      vertex -25.0453 -3 1.05478
    endloop
  endfacet
  facet normal -0.207913 0 -0.978147
    outer loop
      vertex -25.0453 2 1.05478
      vertex -27.0902 -3 1.48944
      vertex -27.0902 2 1.48944
    endloop
  endfacet
  facet normal 0.587851 0 0.808969
    outer loop
      vertex 19.9271 2 128.853
      vertex 21.4271 -3 127.763
      vertex 21.4271 2 127.763
    endloop
  endfacet
  facet normal 0.587851 0 0.808969
    outer loop
      vertex 21.4271 -3 127.763
      vertex 19.9271 2 128.853
      vertex 19.9271 -3 128.853
    endloop
  endfacet
  facet normal -0 0 1
    outer loop
      vertex -19.9271 2 128.853
      vertex 19.9271 -3 128.853
      vertex 19.9271 2 128.853
    endloop
  endfacet
  facet normal 0 0 1
    outer loop
      vertex 19.9271 -3 128.853
      vertex -19.9271 2 128.853
      vertex -19.9271 -3 128.853
    endloop
  endfacet
  facet normal 0 1 0
    outer loop
      vertex 22 2 126
      vertex 19.9271 2 128.853
      vertex 21.4271 2 127.763
    endloop
  endfacet
  facet normal 0 1 0
    outer loop
      vertex 19.9271 2 128.853
      vertex 0.485745 2 112.982
      vertex -19.9271 2 128.853
    endloop
  endfacet
  facet normal 0 1 0
    outer loop
      vertex 19.9271 2 128.853
      vertex 22 2 126
      vertex 4.05268 2 111.582
    endloop
  endfacet
  facet normal 0 1 -0
    outer loop
      vertex -1.44639 2 112.837
      vertex -19.9271 2 128.853
      vertex 0.485745 2 112.982
    endloop
  endfacet
  facet normal 0 1 -0
    outer loop
      vertex -3.25 2 112.129
      vertex -19.9271 2 128.853
      vertex -1.44639 2 112.837
    endloop
  endfacet
  facet normal 0 1 0
    outer loop
      vertex 19.9271 2 128.853
      vertex 2.37472 2 112.551
      vertex 0.485745 2 112.982
    endloop
  endfacet
  facet normal 0 1 0
    outer loop
      vertex 19.9271 2 128.853
      vertex 4.05268 2 111.582
      vertex 2.37472 2 112.551
    endloop
  endfacet
  facet normal 0 1 0
    outer loop
      vertex 22 2 126
      vertex 5.37055 2 110.162
      vertex 4.05268 2 111.582
    endloop
  endfacet
  facet normal 0 1 0
    outer loop
      vertex 22 2 126
      vertex 6.21122 2 108.416
      vertex 5.37055 2 110.162
    endloop
  endfacet
  facet normal 0 1 0
    outer loop
      vertex 22 2 126
      vertex 6.5 2 106.5
      vertex 6.21122 2 108.416
    endloop
  endfacet
  facet normal 0 1 0
    outer loop
      vertex 22 2 126
      vertex 6.21122 2 104.584
      vertex 6.5 2 106.5
    endloop
  endfacet
  facet normal 0 1 0
    outer loop
      vertex 6.21122 2 80.4159
      vertex 6.21122 2 104.584
      vertex 22 2 126
    endloop
  endfacet
  facet normal 0 1 0
    outer loop
      vertex 2.37472 2 100.449
      vertex 0.485745 2 84.9818
      vertex 0.485745 2 100.018
    endloop
  endfacet
  facet normal 0 1 0
    outer loop
      vertex 2.37472 2 84.5507
      vertex 2.37472 2 100.449
      vertex 4.05268 2 101.418
    endloop
  endfacet
  facet normal 0 1 0
    outer loop
      vertex 4.05268 2 83.5819
      vertex 4.05268 2 101.418
      vertex 5.37055 2 102.838
    endloop
  endfacet
  facet normal 0 1 0
    outer loop
      vertex 6.21122 2 104.584
      vertex 6.21122 2 80.4159
      vertex 5.37055 2 102.838
    endloop
  endfacet
  facet normal 0 1 0
    outer loop
      vertex 2.37472 2 100.449
      vertex 2.37472 2 84.5507
      vertex 0.485745 2 84.9818
    endloop
  endfacet
  facet normal 0 1 0
    outer loop
      vertex 4.05268 2 101.418
      vertex 4.05268 2 83.5819
      vertex 2.37472 2 84.5507
    endloop
  endfacet
  facet normal 0 1 0
    outer loop
      vertex 5.37055 2 102.838
      vertex 5.37055 2 82.1616
      vertex 4.05268 2 83.5819
    endloop
  endfacet
  facet normal 0 1 0
    outer loop
      vertex 5.37055 2 102.838
      vertex 6.21122 2 80.4159
      vertex 5.37055 2 82.1616
    endloop
  endfacet
  facet normal 0 1 0
    outer loop
      vertex 22 2 126
      vertex 6.5 2 78.5
      vertex 6.21122 2 80.4159
    endloop
  endfacet
  facet normal 0 1 0
    outer loop
      vertex 32 2 11
      vertex 6.5 2 78.5
      vertex 22 2 126
    endloop
  endfacet
  facet normal 0 1 0
    outer loop
      vertex 2.37472 2 72.4493
      vertex 0.485745 2 56.9818
      vertex 0.485745 2 72.0182
    endloop
  endfacet
  facet normal 0 1 0
    outer loop
      vertex 2.37472 2 56.5507
      vertex 2.37472 2 72.4493
      vertex 4.05268 2 73.4181
    endloop
  endfacet
  facet normal 0 1 0
    outer loop
      vertex 4.05268 2 55.5819
      vertex 4.05268 2 73.4181
      vertex 5.37055 2 74.8384
    endloop
  endfacet
  facet normal 0 1 0
    outer loop
      vertex 5.37055 2 54.1616
      vertex 5.37055 2 74.8384
      vertex 6.21122 2 76.5841
    endloop
  endfacet
  facet normal 0 1 0
    outer loop
      vertex 6.5 2 78.5
      vertex 32 2 11
      vertex 6.21122 2 76.5841
    endloop
  endfacet
  facet normal 0 1 0
    outer loop
      vertex 2.37472 2 72.4493
      vertex 2.37472 2 56.5507
      vertex 0.485745 2 56.9818
    endloop
  endfacet
  facet normal 0 1 0
    outer loop
      vertex 4.05268 2 73.4181
      vertex 4.05268 2 55.5819
      vertex 2.37472 2 56.5507
    endloop
  endfacet
  facet normal 0 1 0
    outer loop
      vertex 5.37055 2 74.8384
      vertex 5.37055 2 54.1616
      vertex 4.05268 2 55.5819
    endloop
  endfacet
  facet normal 0 1 0
    outer loop
      vertex 6.21122 2 76.5841
      vertex 6.21122 2 52.4159
      vertex 5.37055 2 54.1616
    endloop
  endfacet
  facet normal 0 1 0
    outer loop
      vertex 6.21122 2 76.5841
      vertex 32 2 11
      vertex 6.21122 2 52.4159
    endloop
  endfacet
  facet normal 0 1 0
    outer loop
      vertex 6.21122 2 52.4159
      vertex 32 2 11
      vertex 6.5 2 50.5
    endloop
  endfacet
  facet normal 0 1 0
    outer loop
      vertex 2.37472 2 44.4493
      vertex 0.485745 2 28.9818
      vertex 0.485745 2 44.0182
    endloop
  endfacet
  facet normal 0 1 0
    outer loop
      vertex 2.37472 2 28.5507
      vertex 2.37472 2 44.4493
      vertex 4.05268 2 45.4181
    endloop
  endfacet
  facet normal 0 1 0
    outer loop
      vertex 4.05268 2 27.5819
      vertex 4.05268 2 45.4181
      vertex 5.37055 2 46.8384
    endloop
  endfacet
  facet normal 0 1 0
    outer loop
      vertex 5.37055 2 26.1616
      vertex 5.37055 2 46.8384
      vertex 6.21122 2 48.5841
    endloop
  endfacet
  facet normal 0 1 0
    outer loop
      vertex 2.37472 2 44.4493
      vertex 2.37472 2 28.5507
      vertex 0.485745 2 28.9818
    endloop
  endfacet
  facet normal 0 1 0
    outer loop
      vertex 6.5 2 50.5
      vertex 32 2 11
      vertex 6.21122 2 48.5841
    endloop
  endfacet
  facet normal 0 1 0
    outer loop
      vertex 4.05268 2 45.4181
      vertex 4.05268 2 27.5819
      vertex 2.37472 2 28.5507
    endloop
  endfacet
  facet normal -0 1 0
    outer loop
      vertex 5.37055 2 26.1616
      vertex 6.21122 2 48.5841
      vertex 32 2 11
    endloop
  endfacet
  facet normal 0 1 0
    outer loop
      vertex 5.37055 2 46.8384
      vertex 5.37055 2 26.1616
      vertex 4.05268 2 27.5819
    endloop
  endfacet
  facet normal 0 1 0
    outer loop
      vertex 5.37055 2 26.1616
      vertex 32 2 11
      vertex 6.21122 2 24.4159
    endloop
  endfacet
  facet normal 0 1 0
    outer loop
      vertex 4.05268 2 17.4181
      vertex 23.0453 2 1.05478
      vertex 2.37472 2 16.4493
    endloop
  endfacet
  facet normal 0 1 0
    outer loop
      vertex 5.37055 2 18.8384
      vertex 23.0453 2 1.05478
      vertex 4.05268 2 17.4181
    endloop
  endfacet
  facet normal 0 1 0
    outer loop
      vertex 6.21122 2 20.5841
      vertex 23.0453 2 1.05478
      vertex 5.37055 2 18.8384
    endloop
  endfacet
  facet normal 0 1 -0
    outer loop
      vertex 23.0453 2 1.05478
      vertex 6.21122 2 20.5841
      vertex 32 2 11
    endloop
  endfacet
  facet normal 0 1 0
    outer loop
      vertex 6.5 2 22.5
      vertex 32 2 11
      vertex 6.21122 2 20.5841
    endloop
  endfacet
  facet normal 0 1 0
    outer loop
      vertex 6.21122 2 24.4159
      vertex 32 2 11
      vertex 6.5 2 22.5
    endloop
  endfacet
  facet normal 0 1 -0
    outer loop
      vertex -4.76484 2 110.921
      vertex -19.9271 2 128.853
      vertex -3.25 2 112.129
    endloop
  endfacet
  facet normal 0 1 0
    outer loop
      vertex -19.9271 2 128.853
      vertex -22 2 126
      vertex -21.4271 2 127.763
    endloop
  endfacet
  facet normal 0 1 0
    outer loop
      vertex -19.9271 2 128.853
      vertex -4.76484 2 110.921
      vertex -22 2 126
    endloop
  endfacet
  facet normal 0 1 -0
    outer loop
      vertex -5.8563 2 109.32
      vertex -22 2 126
      vertex -4.76484 2 110.921
    endloop
  endfacet
  facet normal 0 1 -0
    outer loop
      vertex -6.4274 2 107.469
      vertex -22 2 126
      vertex -5.8563 2 109.32
    endloop
  endfacet
  facet normal 0 1 -0
    outer loop
      vertex -6.4274 2 105.531
      vertex -22 2 126
      vertex -6.4274 2 107.469
    endloop
  endfacet
  facet normal 0 1 0
    outer loop
      vertex -5.8563 2 103.68
      vertex -22 2 126
      vertex -6.4274 2 105.531
    endloop
  endfacet
  facet normal 0 1 0
    outer loop
      vertex -5.8563 2 81.3202
      vertex -5.8563 2 103.68
      vertex -4.76484 2 102.079
    endloop
  endfacet
  facet normal 0 1 -0
    outer loop
      vertex 0.485745 2 84.9818
      vertex -1.44639 2 100.163
      vertex 0.485745 2 100.018
    endloop
  endfacet
  facet normal 0 1 0
    outer loop
      vertex -1.44639 2 84.837
      vertex -1.44639 2 100.163
      vertex 0.485745 2 84.9818
    endloop
  endfacet
  facet normal 0 1 0
    outer loop
      vertex -1.44639 2 100.163
      vertex -1.44639 2 84.837
      vertex -3.25 2 100.871
    endloop
  endfacet
  facet normal 0 1 0
    outer loop
      vertex -3.25 2 84.1292
      vertex -3.25 2 100.871
      vertex -1.44639 2 84.837
    endloop
  endfacet
  facet normal 0 1 0
    outer loop
      vertex -3.25 2 100.871
      vertex -3.25 2 84.1292
      vertex -4.76484 2 102.079
    endloop
  endfacet
  facet normal 0 1 0
    outer loop
      vertex -4.76484 2 82.9211
      vertex -4.76484 2 102.079
      vertex -3.25 2 84.1292
    endloop
  endfacet
  facet normal 0 1 0
    outer loop
      vertex -5.8563 2 81.3202
      vertex -4.76484 2 102.079
      vertex -4.76484 2 82.9211
    endloop
  endfacet
  facet normal 0 1 0
    outer loop
      vertex -5.8563 2 103.68
      vertex -5.8563 2 81.3202
      vertex -22 2 126
    endloop
  endfacet
  facet normal 0 1 -0
    outer loop
      vertex -6.4274 2 79.4688
      vertex -22 2 126
      vertex -5.8563 2 81.3202
    endloop
  endfacet
  facet normal 0 1 -0
    outer loop
      vertex -6.4274 2 77.5312
      vertex -22 2 126
      vertex -6.4274 2 79.4688
    endloop
  endfacet
  facet normal 0 1 0
    outer loop
      vertex -6.4274 2 51.4688
      vertex -6.4274 2 77.5312
      vertex -5.8563 2 75.6798
    endloop
  endfacet
  facet normal 0 1 -0
    outer loop
      vertex 0.485745 2 56.9818
      vertex -1.44639 2 72.163
      vertex 0.485745 2 72.0182
    endloop
  endfacet
  facet normal 0 1 0
    outer loop
      vertex -1.44639 2 56.837
      vertex -1.44639 2 72.163
      vertex 0.485745 2 56.9818
    endloop
  endfacet
  facet normal 0 1 0
    outer loop
      vertex -1.44639 2 72.163
      vertex -1.44639 2 56.837
      vertex -3.25 2 72.8708
    endloop
  endfacet
  facet normal 0 1 0
    outer loop
      vertex -3.25 2 56.1292
      vertex -3.25 2 72.8708
      vertex -1.44639 2 56.837
    endloop
  endfacet
  facet normal 0 1 0
    outer loop
      vertex -3.25 2 72.8708
      vertex -3.25 2 56.1292
      vertex -4.76484 2 74.0789
    endloop
  endfacet
  facet normal 0 1 0
    outer loop
      vertex -4.76484 2 54.9211
      vertex -4.76484 2 74.0789
      vertex -3.25 2 56.1292
    endloop
  endfacet
  facet normal 0 1 0
    outer loop
      vertex -4.76484 2 74.0789
      vertex -4.76484 2 54.9211
      vertex -5.8563 2 75.6798
    endloop
  endfacet
  facet normal 0 1 0
    outer loop
      vertex -5.8563 2 53.3202
      vertex -5.8563 2 75.6798
      vertex -4.76484 2 54.9211
    endloop
  endfacet
  facet normal 0 1 0
    outer loop
      vertex -6.4274 2 51.4688
      vertex -5.8563 2 75.6798
      vertex -5.8563 2 53.3202
    endloop
  endfacet
  facet normal 0 1 0
    outer loop
      vertex -6.4274 2 77.5312
      vertex -6.4274 2 51.4688
      vertex -34 2 11
    endloop
  endfacet
  facet normal 0 1 0
    outer loop
      vertex -34 2 11
      vertex -6.4274 2 51.4688
      vertex -6.4274 2 49.5312
    endloop
  endfacet
  facet normal 0 1 -0
    outer loop
      vertex 0.485745 2 28.9818
      vertex -1.44639 2 44.163
      vertex 0.485745 2 44.0182
    endloop
  endfacet
  facet normal 0 1 0
    outer loop
      vertex -1.44639 2 28.837
      vertex -1.44639 2 44.163
      vertex 0.485745 2 28.9818
    endloop
  endfacet
  facet normal 0 1 0
    outer loop
      vertex -1.44639 2 44.163
      vertex -1.44639 2 28.837
      vertex -3.25 2 44.8708
    endloop
  endfacet
  facet normal 0 1 0
    outer loop
      vertex -3.25 2 28.1292
      vertex -3.25 2 44.8708
      vertex -1.44639 2 28.837
    endloop
  endfacet
  facet normal 0 1 0
    outer loop
      vertex -3.25 2 44.8708
      vertex -3.25 2 28.1292
      vertex -4.76484 2 46.0789
    endloop
  endfacet
  facet normal 0 1 0
    outer loop
      vertex -4.76484 2 26.9211
      vertex -4.76484 2 46.0789
      vertex -3.25 2 28.1292
    endloop
  endfacet
  facet normal 0 1 0
    outer loop
      vertex -4.76484 2 46.0789
      vertex -4.76484 2 26.9211
      vertex -5.8563 2 47.6798
    endloop
  endfacet
  facet normal 0 1 0
    outer loop
      vertex -5.8563 2 25.3202
      vertex -5.8563 2 47.6798
      vertex -4.76484 2 26.9211
    endloop
  endfacet
  facet normal 0 1 0
    outer loop
      vertex -34 2 11
      vertex -5.8563 2 47.6798
      vertex -5.8563 2 25.3202
    endloop
  endfacet
  facet normal 0 1 0
    outer loop
      vertex -5.8563 2 47.6798
      vertex -34 2 11
      vertex -6.4274 2 49.5312
    endloop
  endfacet
  facet normal 0 1 0
    outer loop
      vertex -34 2 11
      vertex -5.8563 2 25.3202
      vertex -6.4274 2 23.4688
    endloop
  endfacet
  facet normal 0 1 0
    outer loop
      vertex -34 2 11
      vertex -6.4274 2 23.4688
      vertex -6.4274 2 21.5312
    endloop
  endfacet
  facet normal 0 1 0
    outer loop
      vertex 2.37472 2 16.4493
      vertex 23.0453 2 1.05478
      vertex 0.485745 2 16.0182
    endloop
  endfacet
  facet normal 0 1 0
    outer loop
      vertex -6.4274 2 77.5312
      vertex -34 2 11
      vertex -22 2 126
    endloop
  endfacet
  facet normal 0 1 0
    outer loop
      vertex -5.8563 2 19.6798
      vertex -34 2 11
      vertex -6.4274 2 21.5312
    endloop
  endfacet
  facet normal 0 1 0
    outer loop
      vertex -25.0453 2 1.05478
      vertex -5.8563 2 19.6798
      vertex -4.76484 2 18.0789
    endloop
  endfacet
  facet normal 0 1 0
    outer loop
      vertex -25.0453 2 1.05478
      vertex -4.76484 2 18.0789
      vertex -3.25 2 16.8708
    endloop
  endfacet
  facet normal 0 1 0
    outer loop
      vertex -25.0453 2 1.05478
      vertex -3.25 2 16.8708
      vertex -1.44639 2 16.163
    endloop
  endfacet
  facet normal 0 1 0
    outer loop
      vertex -25.0453 2 1.05478
      vertex 0.485745 2 16.0182
      vertex 23.0453 2 1.05478
    endloop
  endfacet
  facet normal 0 1 0
    outer loop
      vertex 23.0453 2 1.05478
      vertex 32 2 11
      vertex 31.7815 2 8.92088
    endloop
  endfacet
  facet normal 0 1 0
    outer loop
      vertex 0.485745 2 16.0182
      vertex -25.0453 2 1.05478
      vertex -1.44639 2 16.163
    endloop
  endfacet
  facet normal 0 1 0
    outer loop
      vertex 23.0453 2 1.05478
      vertex 31.7815 2 8.92088
      vertex 31.1355 2 6.93263
    endloop
  endfacet
  facet normal 0 1 0
    outer loop
      vertex -5.8563 2 19.6798
      vertex -25.0453 2 1.05478
      vertex -34 2 11
    endloop
  endfacet
  facet normal 0 1 0
    outer loop
      vertex 23.0453 2 1.05478
      vertex 31.1355 2 6.93263
      vertex 30.0902 2 5.12215
    endloop
  endfacet
  facet normal 0 1 0
    outer loop
      vertex -34 2 11
      vertex -25.0453 2 1.05478
      vertex -33.7815 2 8.92088
    endloop
  endfacet
  facet normal 0 1 0
    outer loop
      vertex 23.0453 2 1.05478
      vertex 30.0902 2 5.12215
      vertex 28.6913 2 3.56855
    endloop
  endfacet
  facet normal 0 1 0
    outer loop
      vertex -33.7815 2 8.92088
      vertex -25.0453 2 1.05478
      vertex -33.1355 2 6.93263
    endloop
  endfacet
  facet normal 0 1 0
    outer loop
      vertex 23.0453 2 1.05478
      vertex 28.6913 2 3.56855
      vertex 27 2 2.33975
    endloop
  endfacet
  facet normal 0 1 0
    outer loop
      vertex -33.1355 2 6.93263
      vertex -25.0453 2 1.05478
      vertex -32.0902 2 5.12215
    endloop
  endfacet
  facet normal 0 1 0
    outer loop
      vertex 23.0453 2 1.05478
      vertex 27 2 2.33975
      vertex 25.0902 2 1.48944
    endloop
  endfacet
  facet normal 0 1 0
    outer loop
      vertex -32.0902 2 5.12215
      vertex -25.0453 2 1.05478
      vertex -30.6913 2 3.56855
    endloop
  endfacet
  facet normal 0 1 0
    outer loop
      vertex -30.6913 2 3.56855
      vertex -25.0453 2 1.05478
      vertex -29 2 2.33975
    endloop
  endfacet
  facet normal 0 1 0
    outer loop
      vertex -29 2 2.33975
      vertex -25.0453 2 1.05478
      vertex -27.0902 2 1.48944
    endloop
  endfacet
  facet normal -0.98883 0 -0.149045
    outer loop
      vertex 6.5 -3 22.5
      vertex 6.21122 2 24.4159
      vertex 6.5 2 22.5
    endloop
  endfacet
  facet normal -0.98883 -0 -0.149045
    outer loop
      vertex 6.21122 2 24.4159
      vertex 6.5 -3 22.5
      vertex 6.21122 -3 24.4159
    endloop
  endfacet
  facet normal 0.623507 0 -0.781818
    outer loop
      vertex -4.76484 -3 26.9211
      vertex -3.25 2 28.1292
      vertex -3.25 -3 28.1292
    endloop
  endfacet
  facet normal 0.623507 0 -0.781818
    outer loop
      vertex -3.25 2 28.1292
      vertex -4.76484 -3 26.9211
      vertex -4.76484 2 26.9211
    endloop
  endfacet
  facet normal 0.0747334 0 0.997204
    outer loop
      vertex -1.44639 2 16.163
      vertex 0.485745 -3 16.0182
      vertex 0.485745 2 16.0182
    endloop
  endfacet
  facet normal 0.0747334 0 0.997204
    outer loop
      vertex 0.485745 -3 16.0182
      vertex -1.44639 2 16.163
      vertex -1.44639 -3 16.163
    endloop
  endfacet
  facet normal 1 -0 0
    outer loop
      vertex -6.4274 -3 23.4688
      vertex -6.4274 2 21.5312
      vertex -6.4274 2 23.4688
    endloop
  endfacet
  facet normal 1 0 0
    outer loop
      vertex -6.4274 2 21.5312
      vertex -6.4274 -3 23.4688
      vertex -6.4274 -3 21.5312
    endloop
  endfacet
  facet normal 0.623507 0 0.781818
    outer loop
      vertex -4.76484 2 18.0789
      vertex -3.25 -3 16.8708
      vertex -3.25 2 16.8708
    endloop
  endfacet
  facet normal 0.623507 0 0.781818
    outer loop
      vertex -3.25 -3 16.8708
      vertex -4.76484 2 18.0789
      vertex -4.76484 -3 18.0789
    endloop
  endfacet
  facet normal -0.733046 0 -0.680179
    outer loop
      vertex 5.37055 -3 26.1616
      vertex 4.05268 2 27.5819
      vertex 5.37055 2 26.1616
    endloop
  endfacet
  facet normal -0.733046 -0 -0.680179
    outer loop
      vertex 4.05268 2 27.5819
      vertex 5.37055 -3 26.1616
      vertex 4.05268 -3 27.5819
    endloop
  endfacet
  facet normal 0.826242 -0 0.563315
    outer loop
      vertex -5.8563 -3 19.6798
      vertex -4.76484 2 18.0789
      vertex -5.8563 2 19.6798
    endloop
  endfacet
  facet normal 0.826242 0 0.563315
    outer loop
      vertex -4.76484 2 18.0789
      vertex -5.8563 -3 19.6798
      vertex -4.76484 -3 18.0789
    endloop
  endfacet
  facet normal 0.0747334 0 -0.997204
    outer loop
      vertex -1.44639 -3 28.837
      vertex 0.485745 2 28.9818
      vertex 0.485745 -3 28.9818
    endloop
  endfacet
  facet normal 0.0747334 0 -0.997204
    outer loop
      vertex 0.485745 2 28.9818
      vertex -1.44639 -3 28.837
      vertex -1.44639 2 28.837
    endloop
  endfacet
  facet normal -0.900972 0 -0.433878
    outer loop
      vertex 6.21122 -3 24.4159
      vertex 5.37055 2 26.1616
      vertex 6.21122 2 24.4159
    endloop
  endfacet
  facet normal -0.900972 -0 -0.433878
    outer loop
      vertex 5.37055 2 26.1616
      vertex 6.21122 -3 24.4159
      vertex 5.37055 -3 26.1616
    endloop
  endfacet
  facet normal -0.222498 0 -0.974933
    outer loop
      vertex 0.485745 -3 28.9818
      vertex 2.37472 2 28.5507
      vertex 2.37472 -3 28.5507
    endloop
  endfacet
  facet normal -0.222498 0 -0.974933
    outer loop
      vertex 2.37472 2 28.5507
      vertex 0.485745 -3 28.9818
      vertex 0.485745 2 28.9818
    endloop
  endfacet
  facet normal -0.500011 0 0.866019
    outer loop
      vertex 2.37472 2 16.4493
      vertex 4.05268 -3 17.4181
      vertex 4.05268 2 17.4181
    endloop
  endfacet
  facet normal -0.500011 0 0.866019
    outer loop
      vertex 4.05268 -3 17.4181
      vertex 2.37472 2 16.4493
      vertex 2.37472 -3 16.4493
    endloop
  endfacet
  facet normal -0.98883 0 0.149045
    outer loop
      vertex 6.21122 -3 20.5841
      vertex 6.5 2 22.5
      vertex 6.21122 2 20.5841
    endloop
  endfacet
  facet normal -0.98883 0 0.149045
    outer loop
      vertex 6.5 2 22.5
      vertex 6.21122 -3 20.5841
      vertex 6.5 -3 22.5
    endloop
  endfacet
  facet normal -0.500011 0 -0.866019
    outer loop
      vertex 2.37472 -3 28.5507
      vertex 4.05268 2 27.5819
      vertex 4.05268 -3 27.5819
    endloop
  endfacet
  facet normal -0.500011 0 -0.866019
    outer loop
      vertex 4.05268 2 27.5819
      vertex 2.37472 -3 28.5507
      vertex 2.37472 2 28.5507
    endloop
  endfacet
  facet normal 0.95557 0 -0.294764
    outer loop
      vertex -5.8563 -3 25.3202
      vertex -6.4274 2 23.4688
      vertex -5.8563 2 25.3202
    endloop
  endfacet
  facet normal 0.95557 0 -0.294764
    outer loop
      vertex -6.4274 2 23.4688
      vertex -5.8563 -3 25.3202
      vertex -6.4274 -3 23.4688
    endloop
  endfacet
  facet normal -0.900972 0 0.433878
    outer loop
      vertex 5.37055 -3 18.8384
      vertex 6.21122 2 20.5841
      vertex 5.37055 2 18.8384
    endloop
  endfacet
  facet normal -0.900972 0 0.433878
    outer loop
      vertex 6.21122 2 20.5841
      vertex 5.37055 -3 18.8384
      vertex 6.21122 -3 20.5841
    endloop
  endfacet
  facet normal 0.365312 0 -0.930885
    outer loop
      vertex -3.25 -3 28.1292
      vertex -1.44639 2 28.837
      vertex -1.44639 -3 28.837
    endloop
  endfacet
  facet normal 0.365312 0 -0.930885
    outer loop
      vertex -1.44639 2 28.837
      vertex -3.25 -3 28.1292
      vertex -3.25 2 28.1292
    endloop
  endfacet
  facet normal 0.826242 0 -0.563315
    outer loop
      vertex -4.76484 -3 26.9211
      vertex -5.8563 2 25.3202
      vertex -4.76484 2 26.9211
    endloop
  endfacet
  facet normal 0.826242 0 -0.563315
    outer loop
      vertex -5.8563 2 25.3202
      vertex -4.76484 -3 26.9211
      vertex -5.8563 -3 25.3202
    endloop
  endfacet
  facet normal -0.733046 0 0.680179
    outer loop
      vertex 4.05268 -3 17.4181
      vertex 5.37055 2 18.8384
      vertex 4.05268 2 17.4181
    endloop
  endfacet
  facet normal -0.733046 0 0.680179
    outer loop
      vertex 5.37055 2 18.8384
      vertex 4.05268 -3 17.4181
      vertex 5.37055 -3 18.8384
    endloop
  endfacet
  facet normal -0.222498 0 0.974933
    outer loop
      vertex 0.485745 2 16.0182
      vertex 2.37472 -3 16.4493
      vertex 2.37472 2 16.4493
    endloop
  endfacet
  facet normal -0.222498 0 0.974933
    outer loop
      vertex 2.37472 -3 16.4493
      vertex 0.485745 2 16.0182
      vertex 0.485745 -3 16.0182
    endloop
  endfacet
  facet normal 0.365312 0 0.930885
    outer loop
      vertex -3.25 2 16.8708
      vertex -1.44639 -3 16.163
      vertex -1.44639 2 16.163
    endloop
  endfacet
  facet normal 0.365312 0 0.930885
    outer loop
      vertex -1.44639 -3 16.163
      vertex -3.25 2 16.8708
      vertex -3.25 -3 16.8708
    endloop
  endfacet
  facet normal 0.95557 -0 0.294764
    outer loop
      vertex -6.4274 -3 21.5312
      vertex -5.8563 2 19.6798
      vertex -6.4274 2 21.5312
    endloop
  endfacet
  facet normal 0.95557 0 0.294764
    outer loop
      vertex -5.8563 2 19.6798
      vertex -6.4274 -3 21.5312
      vertex -5.8563 -3 19.6798
    endloop
  endfacet
  facet normal -0.222498 0 0.974933
    outer loop
      vertex 0.485745 2 44.0182
      vertex 2.37472 -3 44.4493
      vertex 2.37472 2 44.4493
    endloop
  endfacet
  facet normal -0.222498 0 0.974933
    outer loop
      vertex 2.37472 -3 44.4493
      vertex 0.485745 2 44.0182
      vertex 0.485745 -3 44.0182
    endloop
  endfacet
  facet normal -0.900972 0 -0.433878
    outer loop
      vertex 6.21122 -3 52.4159
      vertex 5.37055 2 54.1616
      vertex 6.21122 2 52.4159
    endloop
  endfacet
  facet normal -0.900972 -0 -0.433878
    outer loop
      vertex 5.37055 2 54.1616
      vertex 6.21122 -3 52.4159
      vertex 5.37055 -3 54.1616
    endloop
  endfacet
  facet normal -0.98883 0 -0.149045
    outer loop
      vertex 6.5 -3 50.5
      vertex 6.21122 2 52.4159
      vertex 6.5 2 50.5
    endloop
  endfacet
  facet normal -0.98883 -0 -0.149045
    outer loop
      vertex 6.21122 2 52.4159
      vertex 6.5 -3 50.5
      vertex 6.21122 -3 52.4159
    endloop
  endfacet
  facet normal 0.365312 0 -0.930885
    outer loop
      vertex -3.25 -3 56.1292
      vertex -1.44639 2 56.837
      vertex -1.44639 -3 56.837
    endloop
  endfacet
  facet normal 0.365312 0 -0.930885
    outer loop
      vertex -1.44639 2 56.837
      vertex -3.25 -3 56.1292
      vertex -3.25 2 56.1292
    endloop
  endfacet
  facet normal -0.733046 0 0.680179
    outer loop
      vertex 4.05268 -3 45.4181
      vertex 5.37055 2 46.8384
      vertex 4.05268 2 45.4181
    endloop
  endfacet
  facet normal -0.733046 0 0.680179
    outer loop
      vertex 5.37055 2 46.8384
      vertex 4.05268 -3 45.4181
      vertex 5.37055 -3 46.8384
    endloop
  endfacet
  facet normal -0.222498 0 -0.974933
    outer loop
      vertex 0.485745 -3 56.9818
      vertex 2.37472 2 56.5507
      vertex 2.37472 -3 56.5507
    endloop
  endfacet
  facet normal -0.222498 0 -0.974933
    outer loop
      vertex 2.37472 2 56.5507
      vertex 0.485745 -3 56.9818
      vertex 0.485745 2 56.9818
    endloop
  endfacet
  facet normal 0.826242 0 -0.563315
    outer loop
      vertex -4.76484 -3 54.9211
      vertex -5.8563 2 53.3202
      vertex -4.76484 2 54.9211
    endloop
  endfacet
  facet normal 0.826242 0 -0.563315
    outer loop
      vertex -5.8563 2 53.3202
      vertex -4.76484 -3 54.9211
      vertex -5.8563 -3 53.3202
    endloop
  endfacet
  facet normal -0.733046 0 -0.680179
    outer loop
      vertex 5.37055 -3 54.1616
      vertex 4.05268 2 55.5819
      vertex 5.37055 2 54.1616
    endloop
  endfacet
  facet normal -0.733046 -0 -0.680179
    outer loop
      vertex 4.05268 2 55.5819
      vertex 5.37055 -3 54.1616
      vertex 4.05268 -3 55.5819
    endloop
  endfacet
  facet normal 0.0747334 0 -0.997204
    outer loop
      vertex -1.44639 -3 56.837
      vertex 0.485745 2 56.9818
      vertex 0.485745 -3 56.9818
    endloop
  endfacet
  facet normal 0.0747334 0 -0.997204
    outer loop
      vertex 0.485745 2 56.9818
      vertex -1.44639 -3 56.837
      vertex -1.44639 2 56.837
    endloop
  endfacet
  facet normal 0.0747334 0 0.997204
    outer loop
      vertex -1.44639 2 44.163
      vertex 0.485745 -3 44.0182
      vertex 0.485745 2 44.0182
    endloop
  endfacet
  facet normal 0.0747334 0 0.997204
    outer loop
      vertex 0.485745 -3 44.0182
      vertex -1.44639 2 44.163
      vertex -1.44639 -3 44.163
    endloop
  endfacet
  facet normal 0.95557 0 -0.294764
    outer loop
      vertex -5.8563 -3 53.3202
      vertex -6.4274 2 51.4688
      vertex -5.8563 2 53.3202
    endloop
  endfacet
  facet normal 0.95557 0 -0.294764
    outer loop
      vertex -6.4274 2 51.4688
      vertex -5.8563 -3 53.3202
      vertex -6.4274 -3 51.4688
    endloop
  endfacet
  facet normal -0.500011 0 0.866019
    outer loop
      vertex 2.37472 2 44.4493
      vertex 4.05268 -3 45.4181
      vertex 4.05268 2 45.4181
    endloop
  endfacet
  facet normal -0.500011 0 0.866019
    outer loop
      vertex 4.05268 -3 45.4181
      vertex 2.37472 2 44.4493
      vertex 2.37472 -3 44.4493
    endloop
  endfacet
  facet normal -0.900972 0 0.433878
    outer loop
      vertex 5.37055 -3 46.8384
      vertex 6.21122 2 48.5841
      vertex 5.37055 2 46.8384
    endloop
  endfacet
  facet normal -0.900972 0 0.433878
    outer loop
      vertex 6.21122 2 48.5841
      vertex 5.37055 -3 46.8384
      vertex 6.21122 -3 48.5841
    endloop
  endfacet
  facet normal -0.500011 0 -0.866019
    outer loop
      vertex 2.37472 -3 56.5507
      vertex 4.05268 2 55.5819
      vertex 4.05268 -3 55.5819
    endloop
  endfacet
  facet normal -0.500011 0 -0.866019
    outer loop
      vertex 4.05268 2 55.5819
      vertex 2.37472 -3 56.5507
      vertex 2.37472 2 56.5507
    endloop
  endfacet
  facet normal -0.98883 0 0.149045
    outer loop
      vertex 6.21122 -3 48.5841
      vertex 6.5 2 50.5
      vertex 6.21122 2 48.5841
    endloop
  endfacet
  facet normal -0.98883 0 0.149045
    outer loop
      vertex 6.5 2 50.5
      vertex 6.21122 -3 48.5841
      vertex 6.5 -3 50.5
    endloop
  endfacet
  facet normal 0.623507 0 0.781818
    outer loop
      vertex -4.76484 2 46.0789
      vertex -3.25 -3 44.8708
      vertex -3.25 2 44.8708
    endloop
  endfacet
  facet normal 0.623507 0 0.781818
    outer loop
      vertex -3.25 -3 44.8708
      vertex -4.76484 2 46.0789
      vertex -4.76484 -3 46.0789
    endloop
  endfacet
  facet normal 1 -0 0
    outer loop
      vertex -6.4274 -3 51.4688
      vertex -6.4274 2 49.5312
      vertex -6.4274 2 51.4688
    endloop
  endfacet
  facet normal 1 0 0
    outer loop
      vertex -6.4274 2 49.5312
      vertex -6.4274 -3 51.4688
      vertex -6.4274 -3 49.5312
    endloop
  endfacet
  facet normal 0.623507 0 -0.781818
    outer loop
      vertex -4.76484 -3 54.9211
      vertex -3.25 2 56.1292
      vertex -3.25 -3 56.1292
    endloop
  endfacet
  facet normal 0.623507 0 -0.781818
    outer loop
      vertex -3.25 2 56.1292
      vertex -4.76484 -3 54.9211
      vertex -4.76484 2 54.9211
    endloop
  endfacet
  facet normal 0.95557 -0 0.294764
    outer loop
      vertex -6.4274 -3 49.5312
      vertex -5.8563 2 47.6798
      vertex -6.4274 2 49.5312
    endloop
  endfacet
  facet normal 0.95557 0 0.294764
    outer loop
      vertex -5.8563 2 47.6798
      vertex -6.4274 -3 49.5312
      vertex -5.8563 -3 47.6798
    endloop
  endfacet
  facet normal 0.365312 0 0.930885
    outer loop
      vertex -3.25 2 44.8708
      vertex -1.44639 -3 44.163
      vertex -1.44639 2 44.163
    endloop
  endfacet
  facet normal 0.365312 0 0.930885
    outer loop
      vertex -1.44639 -3 44.163
      vertex -3.25 2 44.8708
      vertex -3.25 -3 44.8708
    endloop
  endfacet
  facet normal 0.826242 -0 0.563315
    outer loop
      vertex -5.8563 -3 47.6798
      vertex -4.76484 2 46.0789
      vertex -5.8563 2 47.6798
    endloop
  endfacet
  facet normal 0.826242 0 0.563315
    outer loop
      vertex -4.76484 2 46.0789
      vertex -5.8563 -3 47.6798
      vertex -4.76484 -3 46.0789
    endloop
  endfacet
  facet normal -0.98883 0 -0.149045
    outer loop
      vertex 6.5 -3 78.5
      vertex 6.21122 2 80.4159
      vertex 6.5 2 78.5
    endloop
  endfacet
  facet normal -0.98883 -0 -0.149045
    outer loop
      vertex 6.21122 2 80.4159
      vertex 6.5 -3 78.5
      vertex 6.21122 -3 80.4159
    endloop
  endfacet
  facet normal 0.623507 0 -0.781818
    outer loop
      vertex -4.76484 -3 82.9211
      vertex -3.25 2 84.1292
      vertex -3.25 -3 84.1292
    endloop
  endfacet
  facet normal 0.623507 0 -0.781818
    outer loop
      vertex -3.25 2 84.1292
      vertex -4.76484 -3 82.9211
      vertex -4.76484 2 82.9211
    endloop
  endfacet
  facet normal 0.0747334 0 0.997204
    outer loop
      vertex -1.44639 2 72.163
      vertex 0.485745 -3 72.0182
      vertex 0.485745 2 72.0182
    endloop
  endfacet
  facet normal 0.0747334 0 0.997204
    outer loop
      vertex 0.485745 -3 72.0182
      vertex -1.44639 2 72.163
      vertex -1.44639 -3 72.163
    endloop
  endfacet
  facet normal 1 -0 0
    outer loop
      vertex -6.4274 -3 79.4688
      vertex -6.4274 2 77.5312
      vertex -6.4274 2 79.4688
    endloop
  endfacet
  facet normal 1 0 0
    outer loop
      vertex -6.4274 2 77.5312
      vertex -6.4274 -3 79.4688
      vertex -6.4274 -3 77.5312
    endloop
  endfacet
  facet normal 0.623507 0 0.781818
    outer loop
      vertex -4.76484 2 74.0789
      vertex -3.25 -3 72.8708
      vertex -3.25 2 72.8708
    endloop
  endfacet
  facet normal 0.623507 0 0.781818
    outer loop
      vertex -3.25 -3 72.8708
      vertex -4.76484 2 74.0789
      vertex -4.76484 -3 74.0789
    endloop
  endfacet
  facet normal -0.733046 0 -0.680179
    outer loop
      vertex 5.37055 -3 82.1616
      vertex 4.05268 2 83.5819
      vertex 5.37055 2 82.1616
    endloop
  endfacet
  facet normal -0.733046 -0 -0.680179
    outer loop
      vertex 4.05268 2 83.5819
      vertex 5.37055 -3 82.1616
      vertex 4.05268 -3 83.5819
    endloop
  endfacet
  facet normal 0.826242 -0 0.563315
    outer loop
      vertex -5.8563 -3 75.6798
      vertex -4.76484 2 74.0789
      vertex -5.8563 2 75.6798
    endloop
  endfacet
  facet normal 0.826242 0 0.563315
    outer loop
      vertex -4.76484 2 74.0789
      vertex -5.8563 -3 75.6798
      vertex -4.76484 -3 74.0789
    endloop
  endfacet
  facet normal 0.0747334 0 -0.997204
    outer loop
      vertex -1.44639 -3 84.837
      vertex 0.485745 2 84.9818
      vertex 0.485745 -3 84.9818
    endloop
  endfacet
  facet normal 0.0747334 0 -0.997204
    outer loop
      vertex 0.485745 2 84.9818
      vertex -1.44639 -3 84.837
      vertex -1.44639 2 84.837
    endloop
  endfacet
  facet normal -0.900972 0 -0.433878
    outer loop
      vertex 6.21122 -3 80.4159
      vertex 5.37055 2 82.1616
      vertex 6.21122 2 80.4159
    endloop
  endfacet
  facet normal -0.900972 -0 -0.433878
    outer loop
      vertex 5.37055 2 82.1616
      vertex 6.21122 -3 80.4159
      vertex 5.37055 -3 82.1616
    endloop
  endfacet
  facet normal -0.222498 0 -0.974933
    outer loop
      vertex 0.485745 -3 84.9818
      vertex 2.37472 2 84.5507
      vertex 2.37472 -3 84.5507
    endloop
  endfacet
  facet normal -0.222498 0 -0.974933
    outer loop
      vertex 2.37472 2 84.5507
      vertex 0.485745 -3 84.9818
      vertex 0.485745 2 84.9818
    endloop
  endfacet
  facet normal -0.500011 0 0.866019
    outer loop
      vertex 2.37472 2 72.4493
      vertex 4.05268 -3 73.4181
      vertex 4.05268 2 73.4181
    endloop
  endfacet
  facet normal -0.500011 0 0.866019
    outer loop
      vertex 4.05268 -3 73.4181
      vertex 2.37472 2 72.4493
      vertex 2.37472 -3 72.4493
    endloop
  endfacet
  facet normal -0.98883 0 0.149045
    outer loop
      vertex 6.21122 -3 76.5841
      vertex 6.5 2 78.5
      vertex 6.21122 2 76.5841
    endloop
  endfacet
  facet normal -0.98883 0 0.149045
    outer loop
      vertex 6.5 2 78.5
      vertex 6.21122 -3 76.5841
      vertex 6.5 -3 78.5
    endloop
  endfacet
  facet normal -0.500011 0 -0.866019
    outer loop
      vertex 2.37472 -3 84.5507
      vertex 4.05268 2 83.5819
      vertex 4.05268 -3 83.5819
    endloop
  endfacet
  facet normal -0.500011 0 -0.866019
    outer loop
      vertex 4.05268 2 83.5819
      vertex 2.37472 -3 84.5507
      vertex 2.37472 2 84.5507
    endloop
  endfacet
  facet normal 0.365312 0 0.930885
    outer loop
      vertex -3.25 2 72.8708
      vertex -1.44639 -3 72.163
      vertex -1.44639 2 72.163
    endloop
  endfacet
  facet normal 0.365312 0 0.930885
    outer loop
      vertex -1.44639 -3 72.163
      vertex -3.25 2 72.8708
      vertex -3.25 -3 72.8708
    endloop
  endfacet
  facet normal 0.95557 0 -0.294764
    outer loop
      vertex -5.8563 -3 81.3202
      vertex -6.4274 2 79.4688
      vertex -5.8563 2 81.3202
    endloop
  endfacet
  facet normal 0.95557 0 -0.294764
    outer loop
      vertex -6.4274 2 79.4688
      vertex -5.8563 -3 81.3202
      vertex -6.4274 -3 79.4688
    endloop
  endfacet
  facet normal -0.900972 0 0.433878
    outer loop
      vertex 5.37055 -3 74.8384
      vertex 6.21122 2 76.5841
      vertex 5.37055 2 74.8384
    endloop
  endfacet
  facet normal -0.900972 0 0.433878
    outer loop
      vertex 6.21122 2 76.5841
      vertex 5.37055 -3 74.8384
      vertex 6.21122 -3 76.5841
    endloop
  endfacet
  facet normal 0.365312 0 -0.930885
    outer loop
      vertex -3.25 -3 84.1292
      vertex -1.44639 2 84.837
      vertex -1.44639 -3 84.837
    endloop
  endfacet
  facet normal 0.365312 0 -0.930885
    outer loop
      vertex -1.44639 2 84.837
      vertex -3.25 -3 84.1292
      vertex -3.25 2 84.1292
    endloop
  endfacet
  facet normal 0.826242 0 -0.563315
    outer loop
      vertex -4.76484 -3 82.9211
      vertex -5.8563 2 81.3202
      vertex -4.76484 2 82.9211
    endloop
  endfacet
  facet normal 0.826242 0 -0.563315
    outer loop
      vertex -5.8563 2 81.3202
      vertex -4.76484 -3 82.9211
      vertex -5.8563 -3 81.3202
    endloop
  endfacet
  facet normal -0.733046 0 0.680179
    outer loop
      vertex 4.05268 -3 73.4181
      vertex 5.37055 2 74.8384
      vertex 4.05268 2 73.4181
    endloop
  endfacet
  facet normal -0.733046 0 0.680179
    outer loop
      vertex 5.37055 2 74.8384
      vertex 4.05268 -3 73.4181
      vertex 5.37055 -3 74.8384
    endloop
  endfacet
  facet normal -0.222498 0 0.974933
    outer loop
      vertex 0.485745 2 72.0182
      vertex 2.37472 -3 72.4493
      vertex 2.37472 2 72.4493
    endloop
  endfacet
  facet normal -0.222498 0 0.974933
    outer loop
      vertex 2.37472 -3 72.4493
      vertex 0.485745 2 72.0182
      vertex 0.485745 -3 72.0182
    endloop
  endfacet
  facet normal 0.95557 -0 0.294764
    outer loop
      vertex -6.4274 -3 77.5312
      vertex -5.8563 2 75.6798
      vertex -6.4274 2 77.5312
    endloop
  endfacet
  facet normal 0.95557 0 0.294764
    outer loop
      vertex -5.8563 2 75.6798
      vertex -6.4274 -3 77.5312
      vertex -5.8563 -3 75.6798
    endloop
  endfacet
  facet normal -0.222449 0 0.974944
    outer loop
      vertex 0.485745 2 100.018
      vertex 2.37472 -3 100.449
      vertex 2.37472 2 100.449
    endloop
  endfacet
  facet normal -0.222449 0 0.974944
    outer loop
      vertex 2.37472 -3 100.449
      vertex 0.485745 2 100.018
      vertex 0.485745 -3 100.018
    endloop
  endfacet
  facet normal -0.901001 0 -0.433817
    outer loop
      vertex 6.21122 -3 108.416
      vertex 5.37055 2 110.162
      vertex 6.21122 2 108.416
    endloop
  endfacet
  facet normal -0.901001 -0 -0.433817
    outer loop
      vertex 5.37055 2 110.162
      vertex 6.21122 -3 108.416
      vertex 5.37055 -3 110.162
    endloop
  endfacet
  facet normal -0.988832 0 -0.149037
    outer loop
      vertex 6.5 -3 106.5
      vertex 6.21122 2 108.416
      vertex 6.5 2 106.5
    endloop
  endfacet
  facet normal -0.988832 -0 -0.149037
    outer loop
      vertex 6.21122 2 108.416
      vertex 6.5 -3 106.5
      vertex 6.21122 -3 108.416
    endloop
  endfacet
  facet normal 0.365402 0 -0.93085
    outer loop
      vertex -3.25 -3 112.129
      vertex -1.44639 2 112.837
      vertex -1.44639 -3 112.837
    endloop
  endfacet
  facet normal 0.365402 0 -0.93085
    outer loop
      vertex -1.44639 2 112.837
      vertex -3.25 -3 112.129
      vertex -3.25 2 112.129
    endloop
  endfacet
  facet normal -0.732974 0 0.680257
    outer loop
      vertex 4.05268 -3 101.418
      vertex 5.37055 2 102.838
      vertex 4.05268 2 101.418
    endloop
  endfacet
  facet normal -0.732974 0 0.680257
    outer loop
      vertex 5.37055 2 102.838
      vertex 4.05268 -3 101.418
      vertex 5.37055 -3 102.838
    endloop
  endfacet
  facet normal -0.222449 0 -0.974944
    outer loop
      vertex 0.485745 -3 112.982
      vertex 2.37472 2 112.551
      vertex 2.37472 -3 112.551
    endloop
  endfacet
  facet normal -0.222449 0 -0.974944
    outer loop
      vertex 2.37472 2 112.551
      vertex 0.485745 -3 112.982
      vertex 0.485745 2 112.982
    endloop
  endfacet
  facet normal 0.826259 0 -0.563291
    outer loop
      vertex -4.76484 -3 110.921
      vertex -5.8563 2 109.32
      vertex -4.76484 2 110.921
    endloop
  endfacet
  facet normal 0.826259 0 -0.563291
    outer loop
      vertex -5.8563 2 109.32
      vertex -4.76484 -3 110.921
      vertex -5.8563 -3 109.32
    endloop
  endfacet
  facet normal -0.732974 0 -0.680257
    outer loop
      vertex 5.37055 -3 110.162
      vertex 4.05268 2 111.582
      vertex 5.37055 2 110.162
    endloop
  endfacet
  facet normal -0.732974 -0 -0.680257
    outer loop
      vertex 4.05268 2 111.582
      vertex 5.37055 -3 110.162
      vertex 4.05268 -3 111.582
    endloop
  endfacet
  facet normal 0.0748361 0 -0.997196
    outer loop
      vertex -1.44639 -3 112.837
      vertex 0.485745 2 112.982
      vertex 0.485745 -3 112.982
    endloop
  endfacet
  facet normal 0.0748361 0 -0.997196
    outer loop
      vertex 0.485745 2 112.982
      vertex -1.44639 -3 112.837
      vertex -1.44639 2 112.837
    endloop
  endfacet
  facet normal 0.0748361 0 0.997196
    outer loop
      vertex -1.44639 2 100.163
      vertex 0.485745 -3 100.018
      vertex 0.485745 2 100.018
    endloop
  endfacet
  facet normal 0.0748361 0 0.997196
    outer loop
      vertex 0.485745 -3 100.018
      vertex -1.44639 2 100.163
      vertex -1.44639 -3 100.163
    endloop
  endfacet
  facet normal 0.955552 0 -0.294822
    outer loop
      vertex -5.8563 -3 109.32
      vertex -6.4274 2 107.469
      vertex -5.8563 2 109.32
    endloop
  endfacet
  facet normal 0.955552 0 -0.294822
    outer loop
      vertex -6.4274 2 107.469
      vertex -5.8563 -3 109.32
      vertex -6.4274 -3 107.469
    endloop
  endfacet
  facet normal -0.500089 0 0.865974
    outer loop
      vertex 2.37472 2 100.449
      vertex 4.05268 -3 101.418
      vertex 4.05268 2 101.418
    endloop
  endfacet
  facet normal -0.500089 0 0.865974
    outer loop
      vertex 4.05268 -3 101.418
      vertex 2.37472 2 100.449
      vertex 2.37472 -3 100.449
    endloop
  endfacet
  facet normal -0.901001 0 0.433817
    outer loop
      vertex 5.37055 -3 102.838
      vertex 6.21122 2 104.584
      vertex 5.37055 2 102.838
    endloop
  endfacet
  facet normal -0.901001 0 0.433817
    outer loop
      vertex 6.21122 2 104.584
      vertex 5.37055 -3 102.838
      vertex 6.21122 -3 104.584
    endloop
  endfacet
  facet normal -0.500089 0 -0.865974
    outer loop
      vertex 2.37472 -3 112.551
      vertex 4.05268 2 111.582
      vertex 4.05268 -3 111.582
    endloop
  endfacet
  facet normal -0.500089 0 -0.865974
    outer loop
      vertex 4.05268 2 111.582
      vertex 2.37472 -3 112.551
      vertex 2.37472 2 112.551
    endloop
  endfacet
  facet normal -0.988832 0 0.149037
    outer loop
      vertex 6.21122 -3 104.584
      vertex 6.5 2 106.5
      vertex 6.21122 2 104.584
    endloop
  endfacet
  facet normal -0.988832 0 0.149037
    outer loop
      vertex 6.5 2 106.5
      vertex 6.21122 -3 104.584
      vertex 6.5 -3 106.5
    endloop
  endfacet
  facet normal 0.623476 0 0.781843
    outer loop
      vertex -4.76484 2 102.079
      vertex -3.25 -3 100.871
      vertex -3.25 2 100.871
    endloop
  endfacet
  facet normal 0.623476 0 0.781843
    outer loop
      vertex -3.25 -3 100.871
      vertex -4.76484 2 102.079
      vertex -4.76484 -3 102.079
    endloop
  endfacet
  facet normal 1 -0 0
    outer loop
      vertex -6.4274 -3 107.469
      vertex -6.4274 2 105.531
      vertex -6.4274 2 107.469
    endloop
  endfacet
  facet normal 1 0 0
    outer loop
      vertex -6.4274 2 105.531
      vertex -6.4274 -3 107.469
      vertex -6.4274 -3 105.531
    endloop
  endfacet
  facet normal 0.623476 0 -0.781843
    outer loop
      vertex -4.76484 -3 110.921
      vertex -3.25 2 112.129
      vertex -3.25 -3 112.129
    endloop
  endfacet
  facet normal 0.623476 0 -0.781843
    outer loop
      vertex -3.25 2 112.129
      vertex -4.76484 -3 110.921
      vertex -4.76484 2 110.921
    endloop
  endfacet
  facet normal 0.955552 -0 0.294822
    outer loop
      vertex -6.4274 -3 105.531
      vertex -5.8563 2 103.68
      vertex -6.4274 2 105.531
    endloop
  endfacet
  facet normal 0.955552 0 0.294822
    outer loop
      vertex -5.8563 2 103.68
      vertex -6.4274 -3 105.531
      vertex -5.8563 -3 103.68
    endloop
  endfacet
  facet normal 0.365402 0 0.93085
    outer loop
      vertex -3.25 2 100.871
      vertex -1.44639 -3 100.163
      vertex -1.44639 2 100.163
    endloop
  endfacet
  facet normal 0.365402 0 0.93085
    outer loop
      vertex -1.44639 -3 100.163
      vertex -3.25 2 100.871
      vertex -3.25 -3 100.871
    endloop
  endfacet
  facet normal 0.826259 -0 0.563291
    outer loop
      vertex -5.8563 -3 103.68
      vertex -4.76484 2 102.079
      vertex -5.8563 2 103.68
    endloop
  endfacet
  facet normal 0.826259 0 0.563291
    outer loop
      vertex -4.76484 2 102.079
      vertex -5.8563 -3 103.68
      vertex -4.76484 -3 102.079
    endloop
  endfacet
endsolid OpenSCAD_Model
