solid OpenSCAD_Model
  facet normal -0.427563 -0.903986 0
    outer loop
      vertex -1.88559 -3.52768 0
      vertex -1.53073 -3.69552 3
      vertex -1.88559 -3.52768 3
    endloop
  endfacet
  facet normal -0.427563 -0.903986 -0
    outer loop
      vertex -1.53073 -3.69552 3
      vertex -1.88559 -3.52768 0
      vertex -1.53073 -3.69552 0
    endloop
  endfacet
  facet normal 0.989176 0.146736 0
    outer loop
      vertex 3.98074 0.392068 3
      vertex 3.92314 0.780361 0
      vertex 3.92314 0.780361 3
    endloop
  endfacet
  facet normal 0.989176 0.146736 0
    outer loop
      vertex 3.92314 0.780361 0
      vertex 3.98074 0.392068 3
      vertex 3.98074 0.392068 0
    endloop
  endfacet
  facet normal 0.998796 0.049065 0
    outer loop
      vertex 4 0 3
      vertex 3.98074 0.392068 0
      vertex 3.98074 0.392068 3
    endloop
  endfacet
  facet normal 0.998796 0.049065 0
    outer loop
      vertex 3.98074 0.392068 0
      vertex 4 0 3
      vertex 4 0 0
    endloop
  endfacet
  facet normal 0.970031 0.24298 0
    outer loop
      vertex 3.92314 0.780361 3
      vertex 3.82776 1.16114 0
      vertex 3.82776 1.16114 3
    endloop
  endfacet
  facet normal 0.970031 0.24298 0
    outer loop
      vertex 3.82776 1.16114 0
      vertex 3.92314 0.780361 3
      vertex 3.92314 0.780361 0
    endloop
  endfacet
  facet normal 0.427563 -0.903986 0
    outer loop
      vertex 1.53073 -3.69552 0
      vertex 1.88559 -3.52768 3
      vertex 1.53073 -3.69552 3
    endloop
  endfacet
  facet normal 0.427563 -0.903986 0
    outer loop
      vertex 1.88559 -3.52768 3
      vertex 1.53073 -3.69552 0
      vertex 1.88559 -3.52768 0
    endloop
  endfacet
  facet normal -0.671545 0.740964 0
    outer loop
      vertex -2.53757 3.09204 0
      vertex -2.82843 2.82843 3
      vertex -2.53757 3.09204 3
    endloop
  endfacet
  facet normal -0.671545 0.740964 0
    outer loop
      vertex -2.82843 2.82843 3
      vertex -2.53757 3.09204 0
      vertex -2.82843 2.82843 0
    endloop
  endfacet
  facet normal -0.970031 -0.24298 0
    outer loop
      vertex -3.82776 -1.16114 0
      vertex -3.92314 -0.780361 3
      vertex -3.92314 -0.780361 0
    endloop
  endfacet
  facet normal -0.970031 -0.24298 0
    outer loop
      vertex -3.92314 -0.780361 3
      vertex -3.82776 -1.16114 0
      vertex -3.82776 -1.16114 3
    endloop
  endfacet
  facet normal 0.427563 0.903986 -0
    outer loop
      vertex 1.88559 3.52768 0
      vertex 1.53073 3.69552 3
      vertex 1.88559 3.52768 3
    endloop
  endfacet
  facet normal 0.427563 0.903986 0
    outer loop
      vertex 1.53073 3.69552 3
      vertex 1.88559 3.52768 0
      vertex 1.53073 3.69552 0
    endloop
  endfacet
  facet normal -0.989176 0.146736 0
    outer loop
      vertex -3.98074 0.392068 0
      vertex -3.92314 0.780361 3
      vertex -3.92314 0.780361 0
    endloop
  endfacet
  facet normal -0.989176 0.146736 0
    outer loop
      vertex -3.92314 0.780361 3
      vertex -3.98074 0.392068 0
      vertex -3.98074 0.392068 3
    endloop
  endfacet
  facet normal -0.146736 -0.989176 0
    outer loop
      vertex -0.780361 -3.92314 0
      vertex -0.392068 -3.98074 3
      vertex -0.780361 -3.92314 3
    endloop
  endfacet
  facet normal -0.146736 -0.989176 -0
    outer loop
      vertex -0.392068 -3.98074 3
      vertex -0.780361 -3.92314 0
      vertex -0.392068 -3.98074 0
    endloop
  endfacet
  facet normal 0.24298 0.970031 -0
    outer loop
      vertex 1.16114 3.82776 0
      vertex 0.780361 3.92314 3
      vertex 1.16114 3.82776 3
    endloop
  endfacet
  facet normal 0.24298 0.970031 0
    outer loop
      vertex 0.780361 3.92314 3
      vertex 1.16114 3.82776 0
      vertex 0.780361 3.92314 0
    endloop
  endfacet
  facet normal -0.740964 0.671545 0
    outer loop
      vertex -3.09204 2.53757 0
      vertex -2.82843 2.82843 3
      vertex -2.82843 2.82843 0
    endloop
  endfacet
  facet normal -0.740964 0.671545 0
    outer loop
      vertex -2.82843 2.82843 3
      vertex -3.09204 2.53757 0
      vertex -3.09204 2.53757 3
    endloop
  endfacet
  facet normal 0.514095 -0.857733 0
    outer loop
      vertex 1.88559 -3.52768 0
      vertex 2.22228 -3.32588 3
      vertex 1.88559 -3.52768 3
    endloop
  endfacet
  facet normal 0.514095 -0.857733 0
    outer loop
      vertex 2.22228 -3.32588 3
      vertex 1.88559 -3.52768 0
      vertex 2.22228 -3.32588 0
    endloop
  endfacet
  facet normal -0.24298 -0.970031 0
    outer loop
      vertex -1.16114 -3.82776 0
      vertex -0.780361 -3.92314 3
      vertex -1.16114 -3.82776 3
    endloop
  endfacet
  facet normal -0.24298 -0.970031 -0
    outer loop
      vertex -0.780361 -3.92314 3
      vertex -1.16114 -3.82776 0
      vertex -0.780361 -3.92314 0
    endloop
  endfacet
  facet normal -0.336887 -0.941545 0
    outer loop
      vertex -1.53073 -3.69552 0
      vertex -1.16114 -3.82776 3
      vertex -1.53073 -3.69552 3
    endloop
  endfacet
  facet normal -0.336887 -0.941545 -0
    outer loop
      vertex -1.16114 -3.82776 3
      vertex -1.53073 -3.69552 0
      vertex -1.16114 -3.82776 0
    endloop
  endfacet
  facet normal -0.336887 0.941545 0
    outer loop
      vertex -1.16114 3.82776 0
      vertex -1.53073 3.69552 3
      vertex -1.16114 3.82776 3
    endloop
  endfacet
  facet normal -0.336887 0.941545 0
    outer loop
      vertex -1.53073 3.69552 3
      vertex -1.16114 3.82776 0
      vertex -1.53073 3.69552 0
    endloop
  endfacet
  facet normal 0.049065 -0.998796 0
    outer loop
      vertex 0 -4 0
      vertex 0.392068 -3.98074 3
      vertex 0 -4 3
    endloop
  endfacet
  facet normal 0.049065 -0.998796 0
    outer loop
      vertex 0.392068 -3.98074 3
      vertex 0 -4 0
      vertex 0.392068 -3.98074 0
    endloop
  endfacet
  facet normal 0.146736 -0.989176 0
    outer loop
      vertex 0.392068 -3.98074 0
      vertex 0.780361 -3.92314 3
      vertex 0.392068 -3.98074 3
    endloop
  endfacet
  facet normal 0.146736 -0.989176 0
    outer loop
      vertex 0.780361 -3.92314 3
      vertex 0.392068 -3.98074 0
      vertex 0.780361 -3.92314 0
    endloop
  endfacet
  facet normal -0.049065 0.998796 0
    outer loop
      vertex 0 4 0
      vertex -0.392068 3.98074 3
      vertex 0 4 3
    endloop
  endfacet
  facet normal -0.049065 0.998796 0
    outer loop
      vertex -0.392068 3.98074 3
      vertex 0 4 0
      vertex -0.392068 3.98074 0
    endloop
  endfacet
  facet normal -0.595708 -0.803201 0
    outer loop
      vertex -2.53757 -3.09204 0
      vertex -2.22228 -3.32588 3
      vertex -2.53757 -3.09204 3
    endloop
  endfacet
  facet normal -0.595708 -0.803201 -0
    outer loop
      vertex -2.22228 -3.32588 3
      vertex -2.53757 -3.09204 0
      vertex -2.22228 -3.32588 0
    endloop
  endfacet
  facet normal -0.903986 -0.427563 0
    outer loop
      vertex -3.52768 -1.88559 0
      vertex -3.69552 -1.53073 3
      vertex -3.69552 -1.53073 0
    endloop
  endfacet
  facet normal -0.903986 -0.427563 0
    outer loop
      vertex -3.69552 -1.53073 3
      vertex -3.52768 -1.88559 0
      vertex -3.52768 -1.88559 3
    endloop
  endfacet
  facet normal -0.146736 0.989176 0
    outer loop
      vertex -0.392068 3.98074 0
      vertex -0.780361 3.92314 3
      vertex -0.392068 3.98074 3
    endloop
  endfacet
  facet normal -0.146736 0.989176 0
    outer loop
      vertex -0.780361 3.92314 3
      vertex -0.392068 3.98074 0
      vertex -0.780361 3.92314 0
    endloop
  endfacet
  facet normal 0.049065 0.998796 -0
    outer loop
      vertex 0.392068 3.98074 0
      vertex 0 4 3
      vertex 0.392068 3.98074 3
    endloop
  endfacet
  facet normal 0.049065 0.998796 0
    outer loop
      vertex 0 4 3
      vertex 0.392068 3.98074 0
      vertex 0 4 0
    endloop
  endfacet
  facet normal 0.514095 0.857733 -0
    outer loop
      vertex 2.22228 3.32588 0
      vertex 1.88559 3.52768 3
      vertex 2.22228 3.32588 3
    endloop
  endfacet
  facet normal 0.514095 0.857733 0
    outer loop
      vertex 1.88559 3.52768 3
      vertex 2.22228 3.32588 0
      vertex 1.88559 3.52768 0
    endloop
  endfacet
  facet normal -0.998796 -0.049065 0
    outer loop
      vertex -3.98074 -0.392068 0
      vertex -4 0 3
      vertex -4 0 0
    endloop
  endfacet
  facet normal -0.998796 -0.049065 0
    outer loop
      vertex -4 0 3
      vertex -3.98074 -0.392068 0
      vertex -3.98074 -0.392068 3
    endloop
  endfacet
  facet normal 0.970031 -0.24298 0
    outer loop
      vertex 3.82776 -1.16114 3
      vertex 3.92314 -0.780361 0
      vertex 3.92314 -0.780361 3
    endloop
  endfacet
  facet normal 0.970031 -0.24298 0
    outer loop
      vertex 3.92314 -0.780361 0
      vertex 3.82776 -1.16114 3
      vertex 3.82776 -1.16114 0
    endloop
  endfacet
  facet normal 0.740964 0.671545 0
    outer loop
      vertex 3.09204 2.53757 3
      vertex 2.82843 2.82843 0
      vertex 2.82843 2.82843 3
    endloop
  endfacet
  facet normal 0.740964 0.671545 0
    outer loop
      vertex 2.82843 2.82843 0
      vertex 3.09204 2.53757 3
      vertex 3.09204 2.53757 0
    endloop
  endfacet
  facet normal 0.595708 0.803201 -0
    outer loop
      vertex 2.53757 3.09204 0
      vertex 2.22228 3.32588 3
      vertex 2.53757 3.09204 3
    endloop
  endfacet
  facet normal 0.595708 0.803201 0
    outer loop
      vertex 2.22228 3.32588 3
      vertex 2.53757 3.09204 0
      vertex 2.22228 3.32588 0
    endloop
  endfacet
  facet normal -0.595708 0.803201 0
    outer loop
      vertex -2.22228 3.32588 0
      vertex -2.53757 3.09204 3
      vertex -2.22228 3.32588 3
    endloop
  endfacet
  facet normal -0.595708 0.803201 0
    outer loop
      vertex -2.53757 3.09204 3
      vertex -2.22228 3.32588 0
      vertex -2.53757 3.09204 0
    endloop
  endfacet
  facet normal 0.803201 0.595708 0
    outer loop
      vertex 3.32588 2.22228 3
      vertex 3.09204 2.53757 0
      vertex 3.09204 2.53757 3
    endloop
  endfacet
  facet normal 0.803201 0.595708 0
    outer loop
      vertex 3.09204 2.53757 0
      vertex 3.32588 2.22228 3
      vertex 3.32588 2.22228 0
    endloop
  endfacet
  facet normal 0.989176 -0.146736 0
    outer loop
      vertex 3.92314 -0.780361 3
      vertex 3.98074 -0.392068 0
      vertex 3.98074 -0.392068 3
    endloop
  endfacet
  facet normal 0.989176 -0.146736 0
    outer loop
      vertex 3.98074 -0.392068 0
      vertex 3.92314 -0.780361 3
      vertex 3.92314 -0.780361 0
    endloop
  endfacet
  facet normal -0.941545 0.336887 0
    outer loop
      vertex -3.82776 1.16114 0
      vertex -3.69552 1.53073 3
      vertex -3.69552 1.53073 0
    endloop
  endfacet
  facet normal -0.941545 0.336887 0
    outer loop
      vertex -3.69552 1.53073 3
      vertex -3.82776 1.16114 0
      vertex -3.82776 1.16114 3
    endloop
  endfacet
  facet normal 0.903986 -0.427563 0
    outer loop
      vertex 3.52768 -1.88559 3
      vertex 3.69552 -1.53073 0
      vertex 3.69552 -1.53073 3
    endloop
  endfacet
  facet normal 0.903986 -0.427563 0
    outer loop
      vertex 3.69552 -1.53073 0
      vertex 3.52768 -1.88559 3
      vertex 3.52768 -1.88559 0
    endloop
  endfacet
  facet normal 0.998796 -0.049065 0
    outer loop
      vertex 3.98074 -0.392068 3
      vertex 4 0 0
      vertex 4 0 3
    endloop
  endfacet
  facet normal 0.998796 -0.049065 0
    outer loop
      vertex 4 0 0
      vertex 3.98074 -0.392068 3
      vertex 3.98074 -0.392068 0
    endloop
  endfacet
  facet normal 0 0 -1
    outer loop
      vertex 2 0 0
      vertex 4 0 0
      vertex 3.98074 -0.392068 0
    endloop
  endfacet
  facet normal 0 0 -1
    outer loop
      vertex 1.99037 -0.196033 0
      vertex 3.98074 -0.392068 0
      vertex 3.92314 -0.780361 0
    endloop
  endfacet
  facet normal 0 0 -1
    outer loop
      vertex 4 0 0
      vertex 2 0 0
      vertex 3.98074 0.392068 0
    endloop
  endfacet
  facet normal 0 0 -1
    outer loop
      vertex 1.96157 -0.390181 0
      vertex 3.92314 -0.780361 0
      vertex 3.82776 -1.16114 0
    endloop
  endfacet
  facet normal 0 0 -1
    outer loop
      vertex 1.99037 0.196033 0
      vertex 3.98074 0.392068 0
      vertex 2 0 0
    endloop
  endfacet
  facet normal 0 0 -1
    outer loop
      vertex 1.91388 -0.580569 0
      vertex 3.82776 -1.16114 0
      vertex 3.69552 -1.53073 0
    endloop
  endfacet
  facet normal -0 0 -1
    outer loop
      vertex 3.98074 0.392068 0
      vertex 1.99037 0.196033 0
      vertex 3.92314 0.780361 0
    endloop
  endfacet
  facet normal 0 0 -1
    outer loop
      vertex 1.84776 -0.765367 0
      vertex 3.69552 -1.53073 0
      vertex 3.52768 -1.88559 0
    endloop
  endfacet
  facet normal 0 0 -1
    outer loop
      vertex 1.96157 0.390181 0
      vertex 3.92314 0.780361 0
      vertex 1.99037 0.196033 0
    endloop
  endfacet
  facet normal 0 0 -1
    outer loop
      vertex 1.76384 -0.942793 0
      vertex 3.52768 -1.88559 0
      vertex 3.32588 -2.22228 0
    endloop
  endfacet
  facet normal -0 0 -1
    outer loop
      vertex 3.92314 0.780361 0
      vertex 1.96157 0.390181 0
      vertex 3.82776 1.16114 0
    endloop
  endfacet
  facet normal 0 0 -1
    outer loop
      vertex 1.66294 -1.11114 0
      vertex 3.32588 -2.22228 0
      vertex 3.09204 -2.53757 0
    endloop
  endfacet
  facet normal 0 0 -1
    outer loop
      vertex 1.91388 0.580569 0
      vertex 3.82776 1.16114 0
      vertex 1.96157 0.390181 0
    endloop
  endfacet
  facet normal 0 0 -1
    outer loop
      vertex 1.54602 -1.26879 0
      vertex 3.09204 -2.53757 0
      vertex 2.82843 -2.82843 0
    endloop
  endfacet
  facet normal -0 0 -1
    outer loop
      vertex 3.82776 1.16114 0
      vertex 1.91388 0.580569 0
      vertex 3.69552 1.53073 0
    endloop
  endfacet
  facet normal 0 0 -1
    outer loop
      vertex 1.41421 -1.41421 0
      vertex 2.82843 -2.82843 0
      vertex 2.53757 -3.09204 0
    endloop
  endfacet
  facet normal 0 0 -1
    outer loop
      vertex 1.84776 0.765367 0
      vertex 3.69552 1.53073 0
      vertex 1.91388 0.580569 0
    endloop
  endfacet
  facet normal 0 0 -1
    outer loop
      vertex 1.26879 -1.54602 0
      vertex 2.53757 -3.09204 0
      vertex 2.22228 -3.32588 0
    endloop
  endfacet
  facet normal -0 0 -1
    outer loop
      vertex 3.69552 1.53073 0
      vertex 1.84776 0.765367 0
      vertex 3.52768 1.88559 0
    endloop
  endfacet
  facet normal 0 0 -1
    outer loop
      vertex 1.76384 0.942793 0
      vertex 3.52768 1.88559 0
      vertex 1.84776 0.765367 0
    endloop
  endfacet
  facet normal 0 0 -1
    outer loop
      vertex 3.98074 -0.392068 0
      vertex 1.99037 -0.196033 0
      vertex 2 0 0
    endloop
  endfacet
  facet normal 0 0 -1
    outer loop
      vertex 3.92314 -0.780361 0
      vertex 1.96157 -0.390181 0
      vertex 1.99037 -0.196033 0
    endloop
  endfacet
  facet normal 0 0 -1
    outer loop
      vertex 3.82776 -1.16114 0
      vertex 1.91388 -0.580569 0
      vertex 1.96157 -0.390181 0
    endloop
  endfacet
  facet normal 0 0 -1
    outer loop
      vertex 1.11114 -1.66294 0
      vertex 2.22228 -3.32588 0
      vertex 1.88559 -3.52768 0
    endloop
  endfacet
  facet normal 0 0 -1
    outer loop
      vertex 3.69552 -1.53073 0
      vertex 1.84776 -0.765367 0
      vertex 1.91388 -0.580569 0
    endloop
  endfacet
  facet normal 0 0 -1
    outer loop
      vertex 3.52768 -1.88559 0
      vertex 1.76384 -0.942793 0
      vertex 1.84776 -0.765367 0
    endloop
  endfacet
  facet normal 0 0 -1
    outer loop
      vertex 3.32588 -2.22228 0
      vertex 1.66294 -1.11114 0
      vertex 1.76384 -0.942793 0
    endloop
  endfacet
  facet normal 0 0 -1
    outer loop
      vertex 3.09204 -2.53757 0
      vertex 1.54602 -1.26879 0
      vertex 1.66294 -1.11114 0
    endloop
  endfacet
  facet normal 0 0 -1
    outer loop
      vertex 0.942793 -1.76384 0
      vertex 1.88559 -3.52768 0
      vertex 1.53073 -3.69552 0
    endloop
  endfacet
  facet normal 0 0 -1
    outer loop
      vertex 2.82843 -2.82843 0
      vertex 1.41421 -1.41421 0
      vertex 1.54602 -1.26879 0
    endloop
  endfacet
  facet normal 0 0 -1
    outer loop
      vertex 2.53757 -3.09204 0
      vertex 1.26879 -1.54602 0
      vertex 1.41421 -1.41421 0
    endloop
  endfacet
  facet normal 0 0 -1
    outer loop
      vertex 0.765367 -1.84776 0
      vertex 1.53073 -3.69552 0
      vertex 1.16114 -3.82776 0
    endloop
  endfacet
  facet normal 0 0 -1
    outer loop
      vertex 2.22228 -3.32588 0
      vertex 1.11114 -1.66294 0
      vertex 1.26879 -1.54602 0
    endloop
  endfacet
  facet normal 0 0 -1
    outer loop
      vertex 1.88559 -3.52768 0
      vertex 0.942793 -1.76384 0
      vertex 1.11114 -1.66294 0
    endloop
  endfacet
  facet normal 0 0 -1
    outer loop
      vertex 0.580569 -1.91388 0
      vertex 1.16114 -3.82776 0
      vertex 0.780361 -3.92314 0
    endloop
  endfacet
  facet normal 0 0 -1
    outer loop
      vertex 1.53073 -3.69552 0
      vertex 0.765367 -1.84776 0
      vertex 0.942793 -1.76384 0
    endloop
  endfacet
  facet normal 0 0 -1
    outer loop
      vertex 1.16114 -3.82776 0
      vertex 0.580569 -1.91388 0
      vertex 0.765367 -1.84776 0
    endloop
  endfacet
  facet normal 0 0 -1
    outer loop
      vertex 0.390181 -1.96157 0
      vertex 0.780361 -3.92314 0
      vertex 0.392068 -3.98074 0
    endloop
  endfacet
  facet normal 0 0 -1
    outer loop
      vertex 0.780361 -3.92314 0
      vertex 0.390181 -1.96157 0
      vertex 0.580569 -1.91388 0
    endloop
  endfacet
  facet normal 0 0 -1
    outer loop
      vertex 0.392068 -3.98074 0
      vertex 0.196033 -1.99037 0
      vertex 0.390181 -1.96157 0
    endloop
  endfacet
  facet normal 0 0 -1
    outer loop
      vertex 0 -4 0
      vertex 0.196033 -1.99037 0
      vertex 0.392068 -3.98074 0
    endloop
  endfacet
  facet normal 0 0 -1
    outer loop
      vertex 0 -4 0
      vertex 0 -2 0
      vertex 0.196033 -1.99037 0
    endloop
  endfacet
  facet normal 0 0 -1
    outer loop
      vertex 0 -4 0
      vertex -0.196033 -1.99037 0
      vertex 0 -2 0
    endloop
  endfacet
  facet normal 0 0 -1
    outer loop
      vertex -0.392068 -3.98074 0
      vertex -0.196033 -1.99037 0
      vertex 0 -4 0
    endloop
  endfacet
  facet normal -0 0 -1
    outer loop
      vertex -0.196033 -1.99037 0
      vertex -0.392068 -3.98074 0
      vertex -0.390181 -1.96157 0
    endloop
  endfacet
  facet normal 0 0 -1
    outer loop
      vertex -0.780361 -3.92314 0
      vertex -0.390181 -1.96157 0
      vertex -0.392068 -3.98074 0
    endloop
  endfacet
  facet normal -0 0 -1
    outer loop
      vertex -0.390181 -1.96157 0
      vertex -0.780361 -3.92314 0
      vertex -0.580569 -1.91388 0
    endloop
  endfacet
  facet normal 0 0 -1
    outer loop
      vertex -1.16114 -3.82776 0
      vertex -0.580569 -1.91388 0
      vertex -0.780361 -3.92314 0
    endloop
  endfacet
  facet normal -0 0 -1
    outer loop
      vertex -0.580569 -1.91388 0
      vertex -1.16114 -3.82776 0
      vertex -0.765367 -1.84776 0
    endloop
  endfacet
  facet normal 0 0 -1
    outer loop
      vertex -1.53073 -3.69552 0
      vertex -0.765367 -1.84776 0
      vertex -1.16114 -3.82776 0
    endloop
  endfacet
  facet normal -0 0 -1
    outer loop
      vertex -0.765367 -1.84776 0
      vertex -1.53073 -3.69552 0
      vertex -0.942793 -1.76384 0
    endloop
  endfacet
  facet normal 0 0 -1
    outer loop
      vertex -1.88559 -3.52768 0
      vertex -0.942793 -1.76384 0
      vertex -1.53073 -3.69552 0
    endloop
  endfacet
  facet normal -0 0 -1
    outer loop
      vertex -0.942793 -1.76384 0
      vertex -1.88559 -3.52768 0
      vertex -1.11114 -1.66294 0
    endloop
  endfacet
  facet normal 0 0 -1
    outer loop
      vertex -2.22228 -3.32588 0
      vertex -1.11114 -1.66294 0
      vertex -1.88559 -3.52768 0
    endloop
  endfacet
  facet normal -0 0 -1
    outer loop
      vertex -1.11114 -1.66294 0
      vertex -2.22228 -3.32588 0
      vertex -1.26879 -1.54602 0
    endloop
  endfacet
  facet normal 0 0 -1
    outer loop
      vertex -2.53757 -3.09204 0
      vertex -1.26879 -1.54602 0
      vertex -2.22228 -3.32588 0
    endloop
  endfacet
  facet normal -0 0 -1
    outer loop
      vertex -1.26879 -1.54602 0
      vertex -2.53757 -3.09204 0
      vertex -1.41421 -1.41421 0
    endloop
  endfacet
  facet normal 0 0 -1
    outer loop
      vertex -2.82843 -2.82843 0
      vertex -1.41421 -1.41421 0
      vertex -2.53757 -3.09204 0
    endloop
  endfacet
  facet normal -0 0 -1
    outer loop
      vertex -1.41421 -1.41421 0
      vertex -2.82843 -2.82843 0
      vertex -1.54602 -1.26879 0
    endloop
  endfacet
  facet normal 0 0 -1
    outer loop
      vertex -3.09204 -2.53757 0
      vertex -1.54602 -1.26879 0
      vertex -2.82843 -2.82843 0
    endloop
  endfacet
  facet normal -0 0 -1
    outer loop
      vertex -1.54602 -1.26879 0
      vertex -3.09204 -2.53757 0
      vertex -1.66294 -1.11114 0
    endloop
  endfacet
  facet normal 0 0 -1
    outer loop
      vertex -3.32588 -2.22228 0
      vertex -1.66294 -1.11114 0
      vertex -3.09204 -2.53757 0
    endloop
  endfacet
  facet normal -0 0 -1
    outer loop
      vertex -1.66294 -1.11114 0
      vertex -3.32588 -2.22228 0
      vertex -1.76384 -0.942793 0
    endloop
  endfacet
  facet normal 0 0 -1
    outer loop
      vertex -3.52768 -1.88559 0
      vertex -1.76384 -0.942793 0
      vertex -3.32588 -2.22228 0
    endloop
  endfacet
  facet normal -0 0 -1
    outer loop
      vertex 3.52768 1.88559 0
      vertex 1.76384 0.942793 0
      vertex 3.32588 2.22228 0
    endloop
  endfacet
  facet normal 0 0 -1
    outer loop
      vertex 1.66294 1.11114 0
      vertex 3.32588 2.22228 0
      vertex 1.76384 0.942793 0
    endloop
  endfacet
  facet normal -0 0 -1
    outer loop
      vertex 3.32588 2.22228 0
      vertex 1.66294 1.11114 0
      vertex 3.09204 2.53757 0
    endloop
  endfacet
  facet normal 0 0 -1
    outer loop
      vertex 1.54602 1.26879 0
      vertex 3.09204 2.53757 0
      vertex 1.66294 1.11114 0
    endloop
  endfacet
  facet normal -0 0 -1
    outer loop
      vertex 3.09204 2.53757 0
      vertex 1.54602 1.26879 0
      vertex 2.82843 2.82843 0
    endloop
  endfacet
  facet normal 0 0 -1
    outer loop
      vertex 1.41421 1.41421 0
      vertex 2.82843 2.82843 0
      vertex 1.54602 1.26879 0
    endloop
  endfacet
  facet normal -0 0 -1
    outer loop
      vertex 2.82843 2.82843 0
      vertex 1.41421 1.41421 0
      vertex 2.53757 3.09204 0
    endloop
  endfacet
  facet normal 0 0 -1
    outer loop
      vertex 1.26879 1.54602 0
      vertex 2.53757 3.09204 0
      vertex 1.41421 1.41421 0
    endloop
  endfacet
  facet normal -0 0 -1
    outer loop
      vertex 2.53757 3.09204 0
      vertex 1.26879 1.54602 0
      vertex 2.22228 3.32588 0
    endloop
  endfacet
  facet normal 0 0 -1
    outer loop
      vertex 1.11114 1.66294 0
      vertex 2.22228 3.32588 0
      vertex 1.26879 1.54602 0
    endloop
  endfacet
  facet normal -0 0 -1
    outer loop
      vertex 2.22228 3.32588 0
      vertex 1.11114 1.66294 0
      vertex 1.88559 3.52768 0
    endloop
  endfacet
  facet normal 0 0 -1
    outer loop
      vertex 0.942793 1.76384 0
      vertex 1.88559 3.52768 0
      vertex 1.11114 1.66294 0
    endloop
  endfacet
  facet normal -0 0 -1
    outer loop
      vertex 1.88559 3.52768 0
      vertex 0.942793 1.76384 0
      vertex 1.53073 3.69552 0
    endloop
  endfacet
  facet normal 0 0 -1
    outer loop
      vertex 0.765367 1.84776 0
      vertex 1.53073 3.69552 0
      vertex 0.942793 1.76384 0
    endloop
  endfacet
  facet normal -0 0 -1
    outer loop
      vertex 1.53073 3.69552 0
      vertex 0.765367 1.84776 0
      vertex 1.16114 3.82776 0
    endloop
  endfacet
  facet normal 0 0 -1
    outer loop
      vertex 0.580569 1.91388 0
      vertex 1.16114 3.82776 0
      vertex 0.765367 1.84776 0
    endloop
  endfacet
  facet normal -0 0 -1
    outer loop
      vertex 1.16114 3.82776 0
      vertex 0.580569 1.91388 0
      vertex 0.780361 3.92314 0
    endloop
  endfacet
  facet normal 0 0 -1
    outer loop
      vertex 0.390181 1.96157 0
      vertex 0.780361 3.92314 0
      vertex 0.580569 1.91388 0
    endloop
  endfacet
  facet normal -0 0 -1
    outer loop
      vertex 0.780361 3.92314 0
      vertex 0.390181 1.96157 0
      vertex 0.392068 3.98074 0
    endloop
  endfacet
  facet normal 0 0 -1
    outer loop
      vertex 0.196033 1.99037 0
      vertex 0.392068 3.98074 0
      vertex 0.390181 1.96157 0
    endloop
  endfacet
  facet normal 0 0 -1
    outer loop
      vertex 0 2 0
      vertex 0.392068 3.98074 0
      vertex 0.196033 1.99037 0
    endloop
  endfacet
  facet normal 0 0 -1
    outer loop
      vertex 0 2 0
      vertex 0 4 0
      vertex 0.392068 3.98074 0
    endloop
  endfacet
  facet normal 0 0 -1
    outer loop
      vertex -0.196033 1.99037 0
      vertex 0 4 0
      vertex 0 2 0
    endloop
  endfacet
  facet normal 0 0 -1
    outer loop
      vertex -0.392068 3.98074 0
      vertex -0.196033 1.99037 0
      vertex -0.390181 1.96157 0
    endloop
  endfacet
  facet normal 0 0 -1
    outer loop
      vertex -0.196033 1.99037 0
      vertex -0.392068 3.98074 0
      vertex 0 4 0
    endloop
  endfacet
  facet normal 0 0 -1
    outer loop
      vertex -0.780361 3.92314 0
      vertex -0.390181 1.96157 0
      vertex -0.580569 1.91388 0
    endloop
  endfacet
  facet normal 0 0 -1
    outer loop
      vertex -1.16114 3.82776 0
      vertex -0.580569 1.91388 0
      vertex -0.765367 1.84776 0
    endloop
  endfacet
  facet normal 0 0 -1
    outer loop
      vertex -0.390181 1.96157 0
      vertex -0.780361 3.92314 0
      vertex -0.392068 3.98074 0
    endloop
  endfacet
  facet normal 0 0 -1
    outer loop
      vertex -1.53073 3.69552 0
      vertex -0.765367 1.84776 0
      vertex -0.942793 1.76384 0
    endloop
  endfacet
  facet normal 0 0 -1
    outer loop
      vertex -1.88559 3.52768 0
      vertex -0.942793 1.76384 0
      vertex -1.11114 1.66294 0
    endloop
  endfacet
  facet normal 0 0 -1
    outer loop
      vertex -0.580569 1.91388 0
      vertex -1.16114 3.82776 0
      vertex -0.780361 3.92314 0
    endloop
  endfacet
  facet normal 0 0 -1
    outer loop
      vertex -2.22228 3.32588 0
      vertex -1.11114 1.66294 0
      vertex -1.26879 1.54602 0
    endloop
  endfacet
  facet normal 0 0 -1
    outer loop
      vertex -2.53757 3.09204 0
      vertex -1.26879 1.54602 0
      vertex -1.41421 1.41421 0
    endloop
  endfacet
  facet normal 0 0 -1
    outer loop
      vertex -0.765367 1.84776 0
      vertex -1.53073 3.69552 0
      vertex -1.16114 3.82776 0
    endloop
  endfacet
  facet normal 0 0 -1
    outer loop
      vertex -2.82843 2.82843 0
      vertex -1.41421 1.41421 0
      vertex -1.54602 1.26879 0
    endloop
  endfacet
  facet normal 0 0 -1
    outer loop
      vertex -3.09204 2.53757 0
      vertex -1.54602 1.26879 0
      vertex -1.66294 1.11114 0
    endloop
  endfacet
  facet normal 0 0 -1
    outer loop
      vertex -3.32588 2.22228 0
      vertex -1.66294 1.11114 0
      vertex -1.76384 0.942793 0
    endloop
  endfacet
  facet normal 0 0 -1
    outer loop
      vertex -3.52768 1.88559 0
      vertex -1.76384 0.942793 0
      vertex -1.84776 0.765367 0
    endloop
  endfacet
  facet normal 0 0 -1
    outer loop
      vertex -0.942793 1.76384 0
      vertex -1.88559 3.52768 0
      vertex -1.53073 3.69552 0
    endloop
  endfacet
  facet normal 0 0 -1
    outer loop
      vertex -3.69552 1.53073 0
      vertex -1.84776 0.765367 0
      vertex -1.91388 0.580569 0
    endloop
  endfacet
  facet normal 0 0 -1
    outer loop
      vertex -3.82776 1.16114 0
      vertex -1.91388 0.580569 0
      vertex -1.96157 0.390181 0
    endloop
  endfacet
  facet normal 0 0 -1
    outer loop
      vertex -3.92314 0.780361 0
      vertex -1.96157 0.390181 0
      vertex -1.99037 0.196033 0
    endloop
  endfacet
  facet normal 0 0 -1
    outer loop
      vertex -3.98074 0.392068 0
      vertex -1.99037 0.196033 0
      vertex -2 0 0
    endloop
  endfacet
  facet normal -0 0 -1
    outer loop
      vertex -1.76384 -0.942793 0
      vertex -3.52768 -1.88559 0
      vertex -1.84776 -0.765367 0
    endloop
  endfacet
  facet normal 0 0 -1
    outer loop
      vertex -1.11114 1.66294 0
      vertex -2.22228 3.32588 0
      vertex -1.88559 3.52768 0
    endloop
  endfacet
  facet normal 0 0 -1
    outer loop
      vertex -3.69552 -1.53073 0
      vertex -1.84776 -0.765367 0
      vertex -3.52768 -1.88559 0
    endloop
  endfacet
  facet normal 0 0 -1
    outer loop
      vertex -1.26879 1.54602 0
      vertex -2.53757 3.09204 0
      vertex -2.22228 3.32588 0
    endloop
  endfacet
  facet normal -0 0 -1
    outer loop
      vertex -1.84776 -0.765367 0
      vertex -3.69552 -1.53073 0
      vertex -1.91388 -0.580569 0
    endloop
  endfacet
  facet normal 0 0 -1
    outer loop
      vertex -1.41421 1.41421 0
      vertex -2.82843 2.82843 0
      vertex -2.53757 3.09204 0
    endloop
  endfacet
  facet normal 0 0 -1
    outer loop
      vertex -3.82776 -1.16114 0
      vertex -1.91388 -0.580569 0
      vertex -3.69552 -1.53073 0
    endloop
  endfacet
  facet normal 0 0 -1
    outer loop
      vertex -1.54602 1.26879 0
      vertex -3.09204 2.53757 0
      vertex -2.82843 2.82843 0
    endloop
  endfacet
  facet normal -0 0 -1
    outer loop
      vertex -1.91388 -0.580569 0
      vertex -3.82776 -1.16114 0
      vertex -1.96157 -0.390181 0
    endloop
  endfacet
  facet normal 0 0 -1
    outer loop
      vertex -1.66294 1.11114 0
      vertex -3.32588 2.22228 0
      vertex -3.09204 2.53757 0
    endloop
  endfacet
  facet normal 0 0 -1
    outer loop
      vertex -3.92314 -0.780361 0
      vertex -1.96157 -0.390181 0
      vertex -3.82776 -1.16114 0
    endloop
  endfacet
  facet normal 0 0 -1
    outer loop
      vertex -1.76384 0.942793 0
      vertex -3.52768 1.88559 0
      vertex -3.32588 2.22228 0
    endloop
  endfacet
  facet normal -0 0 -1
    outer loop
      vertex -1.96157 -0.390181 0
      vertex -3.92314 -0.780361 0
      vertex -1.99037 -0.196033 0
    endloop
  endfacet
  facet normal 0 0 -1
    outer loop
      vertex -1.84776 0.765367 0
      vertex -3.69552 1.53073 0
      vertex -3.52768 1.88559 0
    endloop
  endfacet
  facet normal 0 0 -1
    outer loop
      vertex -3.98074 -0.392068 0
      vertex -1.99037 -0.196033 0
      vertex -3.92314 -0.780361 0
    endloop
  endfacet
  facet normal 0 0 -1
    outer loop
      vertex -1.91388 0.580569 0
      vertex -3.82776 1.16114 0
      vertex -3.69552 1.53073 0
    endloop
  endfacet
  facet normal -0 0 -1
    outer loop
      vertex -1.99037 -0.196033 0
      vertex -3.98074 -0.392068 0
      vertex -2 0 0
    endloop
  endfacet
  facet normal 0 0 -1
    outer loop
      vertex -1.96157 0.390181 0
      vertex -3.92314 0.780361 0
      vertex -3.82776 1.16114 0
    endloop
  endfacet
  facet normal 0 0 -1
    outer loop
      vertex -4 0 0
      vertex -2 0 0
      vertex -3.98074 -0.392068 0
    endloop
  endfacet
  facet normal 0 0 -1
    outer loop
      vertex -1.99037 0.196033 0
      vertex -3.98074 0.392068 0
      vertex -3.92314 0.780361 0
    endloop
  endfacet
  facet normal 0 0 -1
    outer loop
      vertex -2 0 0
      vertex -4 0 0
      vertex -3.98074 0.392068 0
    endloop
  endfacet
  facet normal 0.336887 -0.941545 0
    outer loop
      vertex 1.16114 -3.82776 0
      vertex 1.53073 -3.69552 3
      vertex 1.16114 -3.82776 3
    endloop
  endfacet
  facet normal 0.336887 -0.941545 0
    outer loop
      vertex 1.53073 -3.69552 3
      vertex 1.16114 -3.82776 0
      vertex 1.53073 -3.69552 0
    endloop
  endfacet
  facet normal 0.941545 0.336887 0
    outer loop
      vertex 3.82776 1.16114 3
      vertex 3.69552 1.53073 0
      vertex 3.69552 1.53073 3
    endloop
  endfacet
  facet normal 0.941545 0.336887 0
    outer loop
      vertex 3.69552 1.53073 0
      vertex 3.82776 1.16114 3
      vertex 3.82776 1.16114 0
    endloop
  endfacet
  facet normal 0.803201 -0.595708 0
    outer loop
      vertex 3.09204 -2.53757 3
      vertex 3.32588 -2.22228 0
      vertex 3.32588 -2.22228 3
    endloop
  endfacet
  facet normal 0.803201 -0.595708 0
    outer loop
      vertex 3.32588 -2.22228 0
      vertex 3.09204 -2.53757 3
      vertex 3.09204 -2.53757 0
    endloop
  endfacet
  facet normal 0.857733 -0.514095 0
    outer loop
      vertex 3.32588 -2.22228 3
      vertex 3.52768 -1.88559 0
      vertex 3.52768 -1.88559 3
    endloop
  endfacet
  facet normal 0.857733 -0.514095 0
    outer loop
      vertex 3.52768 -1.88559 0
      vertex 3.32588 -2.22228 3
      vertex 3.32588 -2.22228 0
    endloop
  endfacet
  facet normal 0.941545 -0.336887 0
    outer loop
      vertex 3.69552 -1.53073 3
      vertex 3.82776 -1.16114 0
      vertex 3.82776 -1.16114 3
    endloop
  endfacet
  facet normal 0.941545 -0.336887 0
    outer loop
      vertex 3.82776 -1.16114 0
      vertex 3.69552 -1.53073 3
      vertex 3.69552 -1.53073 0
    endloop
  endfacet
  facet normal -0.903986 0.427563 0
    outer loop
      vertex -3.69552 1.53073 0
      vertex -3.52768 1.88559 3
      vertex -3.52768 1.88559 0
    endloop
  endfacet
  facet normal -0.903986 0.427563 0
    outer loop
      vertex -3.52768 1.88559 3
      vertex -3.69552 1.53073 0
      vertex -3.69552 1.53073 3
    endloop
  endfacet
  facet normal -0.24298 0.970031 0
    outer loop
      vertex -0.780361 3.92314 0
      vertex -1.16114 3.82776 3
      vertex -0.780361 3.92314 3
    endloop
  endfacet
  facet normal -0.24298 0.970031 0
    outer loop
      vertex -1.16114 3.82776 3
      vertex -0.780361 3.92314 0
      vertex -1.16114 3.82776 0
    endloop
  endfacet
  facet normal 0.903986 0.427563 0
    outer loop
      vertex 3.69552 1.53073 3
      vertex 3.52768 1.88559 0
      vertex 3.52768 1.88559 3
    endloop
  endfacet
  facet normal 0.903986 0.427563 0
    outer loop
      vertex 3.52768 1.88559 0
      vertex 3.69552 1.53073 3
      vertex 3.69552 1.53073 0
    endloop
  endfacet
  facet normal 0.146736 0.989176 -0
    outer loop
      vertex 0.780361 3.92314 0
      vertex 0.392068 3.98074 3
      vertex 0.780361 3.92314 3
    endloop
  endfacet
  facet normal 0.146736 0.989176 0
    outer loop
      vertex 0.392068 3.98074 3
      vertex 0.780361 3.92314 0
      vertex 0.392068 3.98074 0
    endloop
  endfacet
  facet normal -0.857733 -0.514095 0
    outer loop
      vertex -3.32588 -2.22228 0
      vertex -3.52768 -1.88559 3
      vertex -3.52768 -1.88559 0
    endloop
  endfacet
  facet normal -0.857733 -0.514095 0
    outer loop
      vertex -3.52768 -1.88559 3
      vertex -3.32588 -2.22228 0
      vertex -3.32588 -2.22228 3
    endloop
  endfacet
  facet normal 0.857733 0.514095 0
    outer loop
      vertex 3.52768 1.88559 3
      vertex 3.32588 2.22228 0
      vertex 3.32588 2.22228 3
    endloop
  endfacet
  facet normal 0.857733 0.514095 0
    outer loop
      vertex 3.32588 2.22228 0
      vertex 3.52768 1.88559 3
      vertex 3.52768 1.88559 0
    endloop
  endfacet
  facet normal -0.740964 -0.671545 0
    outer loop
      vertex -2.82843 -2.82843 0
      vertex -3.09204 -2.53757 3
      vertex -3.09204 -2.53757 0
    endloop
  endfacet
  facet normal -0.740964 -0.671545 0
    outer loop
      vertex -3.09204 -2.53757 3
      vertex -2.82843 -2.82843 0
      vertex -2.82843 -2.82843 3
    endloop
  endfacet
  facet normal 0.24298 -0.970031 0
    outer loop
      vertex 0.780361 -3.92314 0
      vertex 1.16114 -3.82776 3
      vertex 0.780361 -3.92314 3
    endloop
  endfacet
  facet normal 0.24298 -0.970031 0
    outer loop
      vertex 1.16114 -3.82776 3
      vertex 0.780361 -3.92314 0
      vertex 1.16114 -3.82776 0
    endloop
  endfacet
  facet normal -0.514095 0.857733 0
    outer loop
      vertex -1.88559 3.52768 0
      vertex -2.22228 3.32588 3
      vertex -1.88559 3.52768 3
    endloop
  endfacet
  facet normal -0.514095 0.857733 0
    outer loop
      vertex -2.22228 3.32588 3
      vertex -1.88559 3.52768 0
      vertex -2.22228 3.32588 0
    endloop
  endfacet
  facet normal -0.427563 0.903986 0
    outer loop
      vertex -1.53073 3.69552 0
      vertex -1.88559 3.52768 3
      vertex -1.53073 3.69552 3
    endloop
  endfacet
  facet normal -0.427563 0.903986 0
    outer loop
      vertex -1.88559 3.52768 3
      vertex -1.53073 3.69552 0
      vertex -1.88559 3.52768 0
    endloop
  endfacet
  facet normal -0.941545 -0.336887 0
    outer loop
      vertex -3.69552 -1.53073 0
      vertex -3.82776 -1.16114 3
      vertex -3.82776 -1.16114 0
    endloop
  endfacet
  facet normal -0.941545 -0.336887 0
    outer loop
      vertex -3.82776 -1.16114 3
      vertex -3.69552 -1.53073 0
      vertex -3.69552 -1.53073 3
    endloop
  endfacet
  facet normal -0.514095 -0.857733 0
    outer loop
      vertex -2.22228 -3.32588 0
      vertex -1.88559 -3.52768 3
      vertex -2.22228 -3.32588 3
    endloop
  endfacet
  facet normal -0.514095 -0.857733 -0
    outer loop
      vertex -1.88559 -3.52768 3
      vertex -2.22228 -3.32588 0
      vertex -1.88559 -3.52768 0
    endloop
  endfacet
  facet normal 0.671545 0.740964 -0
    outer loop
      vertex 2.82843 2.82843 0
      vertex 2.53757 3.09204 3
      vertex 2.82843 2.82843 3
    endloop
  endfacet
  facet normal 0.671545 0.740964 0
    outer loop
      vertex 2.53757 3.09204 3
      vertex 2.82843 2.82843 0
      vertex 2.53757 3.09204 0
    endloop
  endfacet
  facet normal 0.336887 0.941545 -0
    outer loop
      vertex 1.53073 3.69552 0
      vertex 1.16114 3.82776 3
      vertex 1.53073 3.69552 3
    endloop
  endfacet
  facet normal 0.336887 0.941545 0
    outer loop
      vertex 1.16114 3.82776 3
      vertex 1.53073 3.69552 0
      vertex 1.16114 3.82776 0
    endloop
  endfacet
  facet normal -0.970031 0.24298 0
    outer loop
      vertex -3.92314 0.780361 0
      vertex -3.82776 1.16114 3
      vertex -3.82776 1.16114 0
    endloop
  endfacet
  facet normal -0.970031 0.24298 0
    outer loop
      vertex -3.82776 1.16114 3
      vertex -3.92314 0.780361 0
      vertex -3.92314 0.780361 3
    endloop
  endfacet
  facet normal -0.803201 -0.595708 0
    outer loop
      vertex -3.09204 -2.53757 0
      vertex -3.32588 -2.22228 3
      vertex -3.32588 -2.22228 0
    endloop
  endfacet
  facet normal -0.803201 -0.595708 0
    outer loop
      vertex -3.32588 -2.22228 3
      vertex -3.09204 -2.53757 0
      vertex -3.09204 -2.53757 3
    endloop
  endfacet
  facet normal -0.989176 -0.146736 0
    outer loop
      vertex -3.92314 -0.780361 0
      vertex -3.98074 -0.392068 3
      vertex -3.98074 -0.392068 0
    endloop
  endfacet
  facet normal -0.989176 -0.146736 0
    outer loop
      vertex -3.98074 -0.392068 3
      vertex -3.92314 -0.780361 0
      vertex -3.92314 -0.780361 3
    endloop
  endfacet
  facet normal 0.595708 -0.803201 0
    outer loop
      vertex 2.22228 -3.32588 0
      vertex 2.53757 -3.09204 3
      vertex 2.22228 -3.32588 3
    endloop
  endfacet
  facet normal 0.595708 -0.803201 0
    outer loop
      vertex 2.53757 -3.09204 3
      vertex 2.22228 -3.32588 0
      vertex 2.53757 -3.09204 0
    endloop
  endfacet
  facet normal -0.671545 -0.740964 0
    outer loop
      vertex -2.82843 -2.82843 0
      vertex -2.53757 -3.09204 3
      vertex -2.82843 -2.82843 3
    endloop
  endfacet
  facet normal -0.671545 -0.740964 -0
    outer loop
      vertex -2.53757 -3.09204 3
      vertex -2.82843 -2.82843 0
      vertex -2.53757 -3.09204 0
    endloop
  endfacet
  facet normal -0.803201 0.595708 0
    outer loop
      vertex -3.32588 2.22228 0
      vertex -3.09204 2.53757 3
      vertex -3.09204 2.53757 0
    endloop
  endfacet
  facet normal -0.803201 0.595708 0
    outer loop
      vertex -3.09204 2.53757 3
      vertex -3.32588 2.22228 0
      vertex -3.32588 2.22228 3
    endloop
  endfacet
  facet normal -0.857733 0.514095 0
    outer loop
      vertex -3.52768 1.88559 0
      vertex -3.32588 2.22228 3
      vertex -3.32588 2.22228 0
    endloop
  endfacet
  facet normal -0.857733 0.514095 0
    outer loop
      vertex -3.32588 2.22228 3
      vertex -3.52768 1.88559 0
      vertex -3.52768 1.88559 3
    endloop
  endfacet
  facet normal 0 0 1
    outer loop
      vertex 2 0 3
      vertex 4 0 3
      vertex 3.98074 0.392068 3
    endloop
  endfacet
  facet normal 0 0 1
    outer loop
      vertex 1.99037 0.196033 3
      vertex 3.98074 0.392068 3
      vertex 3.92314 0.780361 3
    endloop
  endfacet
  facet normal 0 0 1
    outer loop
      vertex 4 0 3
      vertex 2 0 3
      vertex 3.98074 -0.392068 3
    endloop
  endfacet
  facet normal 0 0 1
    outer loop
      vertex 1.96157 0.390181 3
      vertex 3.92314 0.780361 3
      vertex 3.82776 1.16114 3
    endloop
  endfacet
  facet normal -0 0 1
    outer loop
      vertex 1.99037 -0.196033 3
      vertex 3.98074 -0.392068 3
      vertex 2 0 3
    endloop
  endfacet
  facet normal 0 0 1
    outer loop
      vertex 1.91388 0.580569 3
      vertex 3.82776 1.16114 3
      vertex 3.69552 1.53073 3
    endloop
  endfacet
  facet normal 0 0 1
    outer loop
      vertex 3.98074 -0.392068 3
      vertex 1.99037 -0.196033 3
      vertex 3.92314 -0.780361 3
    endloop
  endfacet
  facet normal 0 0 1
    outer loop
      vertex 1.84776 0.765367 3
      vertex 3.69552 1.53073 3
      vertex 3.52768 1.88559 3
    endloop
  endfacet
  facet normal -0 0 1
    outer loop
      vertex 1.96157 -0.390181 3
      vertex 3.92314 -0.780361 3
      vertex 1.99037 -0.196033 3
    endloop
  endfacet
  facet normal 0 0 1
    outer loop
      vertex 1.76384 0.942793 3
      vertex 3.52768 1.88559 3
      vertex 3.32588 2.22228 3
    endloop
  endfacet
  facet normal 0 0 1
    outer loop
      vertex 3.92314 -0.780361 3
      vertex 1.96157 -0.390181 3
      vertex 3.82776 -1.16114 3
    endloop
  endfacet
  facet normal 0 0 1
    outer loop
      vertex 1.66294 1.11114 3
      vertex 3.32588 2.22228 3
      vertex 3.09204 2.53757 3
    endloop
  endfacet
  facet normal -0 0 1
    outer loop
      vertex 1.91388 -0.580569 3
      vertex 3.82776 -1.16114 3
      vertex 1.96157 -0.390181 3
    endloop
  endfacet
  facet normal 0 0 1
    outer loop
      vertex 1.54602 1.26879 3
      vertex 3.09204 2.53757 3
      vertex 2.82843 2.82843 3
    endloop
  endfacet
  facet normal 0 0 1
    outer loop
      vertex 3.82776 -1.16114 3
      vertex 1.91388 -0.580569 3
      vertex 3.69552 -1.53073 3
    endloop
  endfacet
  facet normal 0 0 1
    outer loop
      vertex 1.41421 1.41421 3
      vertex 2.82843 2.82843 3
      vertex 2.53757 3.09204 3
    endloop
  endfacet
  facet normal -0 0 1
    outer loop
      vertex 1.84776 -0.765367 3
      vertex 3.69552 -1.53073 3
      vertex 1.91388 -0.580569 3
    endloop
  endfacet
  facet normal 0 0 1
    outer loop
      vertex 1.26879 1.54602 3
      vertex 2.53757 3.09204 3
      vertex 2.22228 3.32588 3
    endloop
  endfacet
  facet normal 0 0 1
    outer loop
      vertex 3.69552 -1.53073 3
      vertex 1.84776 -0.765367 3
      vertex 3.52768 -1.88559 3
    endloop
  endfacet
  facet normal -0 0 1
    outer loop
      vertex 1.76384 -0.942793 3
      vertex 3.52768 -1.88559 3
      vertex 1.84776 -0.765367 3
    endloop
  endfacet
  facet normal 0 0 1
    outer loop
      vertex 3.98074 0.392068 3
      vertex 1.99037 0.196033 3
      vertex 2 0 3
    endloop
  endfacet
  facet normal 0 0 1
    outer loop
      vertex 3.92314 0.780361 3
      vertex 1.96157 0.390181 3
      vertex 1.99037 0.196033 3
    endloop
  endfacet
  facet normal 0 0 1
    outer loop
      vertex 3.82776 1.16114 3
      vertex 1.91388 0.580569 3
      vertex 1.96157 0.390181 3
    endloop
  endfacet
  facet normal 0 0 1
    outer loop
      vertex 1.11114 1.66294 3
      vertex 2.22228 3.32588 3
      vertex 1.88559 3.52768 3
    endloop
  endfacet
  facet normal 0 0 1
    outer loop
      vertex 3.69552 1.53073 3
      vertex 1.84776 0.765367 3
      vertex 1.91388 0.580569 3
    endloop
  endfacet
  facet normal 0 0 1
    outer loop
      vertex 3.52768 1.88559 3
      vertex 1.76384 0.942793 3
      vertex 1.84776 0.765367 3
    endloop
  endfacet
  facet normal 0 0 1
    outer loop
      vertex 3.32588 2.22228 3
      vertex 1.66294 1.11114 3
      vertex 1.76384 0.942793 3
    endloop
  endfacet
  facet normal 0 0 1
    outer loop
      vertex 3.09204 2.53757 3
      vertex 1.54602 1.26879 3
      vertex 1.66294 1.11114 3
    endloop
  endfacet
  facet normal 0 0 1
    outer loop
      vertex 0.942793 1.76384 3
      vertex 1.88559 3.52768 3
      vertex 1.53073 3.69552 3
    endloop
  endfacet
  facet normal 0 0 1
    outer loop
      vertex 2.82843 2.82843 3
      vertex 1.41421 1.41421 3
      vertex 1.54602 1.26879 3
    endloop
  endfacet
  facet normal 0 0 1
    outer loop
      vertex 2.53757 3.09204 3
      vertex 1.26879 1.54602 3
      vertex 1.41421 1.41421 3
    endloop
  endfacet
  facet normal 0 0 1
    outer loop
      vertex 0.765367 1.84776 3
      vertex 1.53073 3.69552 3
      vertex 1.16114 3.82776 3
    endloop
  endfacet
  facet normal 0 0 1
    outer loop
      vertex 2.22228 3.32588 3
      vertex 1.11114 1.66294 3
      vertex 1.26879 1.54602 3
    endloop
  endfacet
  facet normal 0 0 1
    outer loop
      vertex 1.88559 3.52768 3
      vertex 0.942793 1.76384 3
      vertex 1.11114 1.66294 3
    endloop
  endfacet
  facet normal 0 0 1
    outer loop
      vertex 0.580569 1.91388 3
      vertex 1.16114 3.82776 3
      vertex 0.780361 3.92314 3
    endloop
  endfacet
  facet normal 0 0 1
    outer loop
      vertex 1.53073 3.69552 3
      vertex 0.765367 1.84776 3
      vertex 0.942793 1.76384 3
    endloop
  endfacet
  facet normal 0 0 1
    outer loop
      vertex 1.16114 3.82776 3
      vertex 0.580569 1.91388 3
      vertex 0.765367 1.84776 3
    endloop
  endfacet
  facet normal 0 0 1
    outer loop
      vertex 0.390181 1.96157 3
      vertex 0.780361 3.92314 3
      vertex 0.392068 3.98074 3
    endloop
  endfacet
  facet normal 0 0 1
    outer loop
      vertex 0.780361 3.92314 3
      vertex 0.390181 1.96157 3
      vertex 0.580569 1.91388 3
    endloop
  endfacet
  facet normal 0 0 1
    outer loop
      vertex 0.392068 3.98074 3
      vertex 0.196033 1.99037 3
      vertex 0.390181 1.96157 3
    endloop
  endfacet
  facet normal 0 0 1
    outer loop
      vertex 0 4 3
      vertex 0.196033 1.99037 3
      vertex 0.392068 3.98074 3
    endloop
  endfacet
  facet normal 0 0 1
    outer loop
      vertex 0 4 3
      vertex 0 2 3
      vertex 0.196033 1.99037 3
    endloop
  endfacet
  facet normal 0 0 1
    outer loop
      vertex 0 4 3
      vertex -0.196033 1.99037 3
      vertex 0 2 3
    endloop
  endfacet
  facet normal -0 0 1
    outer loop
      vertex -0.392068 3.98074 3
      vertex -0.196033 1.99037 3
      vertex 0 4 3
    endloop
  endfacet
  facet normal 0 0 1
    outer loop
      vertex -0.196033 1.99037 3
      vertex -0.392068 3.98074 3
      vertex -0.390181 1.96157 3
    endloop
  endfacet
  facet normal -0 0 1
    outer loop
      vertex -0.780361 3.92314 3
      vertex -0.390181 1.96157 3
      vertex -0.392068 3.98074 3
    endloop
  endfacet
  facet normal 0 0 1
    outer loop
      vertex -0.390181 1.96157 3
      vertex -0.780361 3.92314 3
      vertex -0.580569 1.91388 3
    endloop
  endfacet
  facet normal -0 0 1
    outer loop
      vertex -1.16114 3.82776 3
      vertex -0.580569 1.91388 3
      vertex -0.780361 3.92314 3
    endloop
  endfacet
  facet normal 0 0 1
    outer loop
      vertex -0.580569 1.91388 3
      vertex -1.16114 3.82776 3
      vertex -0.765367 1.84776 3
    endloop
  endfacet
  facet normal -0 0 1
    outer loop
      vertex -1.53073 3.69552 3
      vertex -0.765367 1.84776 3
      vertex -1.16114 3.82776 3
    endloop
  endfacet
  facet normal 0 0 1
    outer loop
      vertex -0.765367 1.84776 3
      vertex -1.53073 3.69552 3
      vertex -0.942793 1.76384 3
    endloop
  endfacet
  facet normal -0 0 1
    outer loop
      vertex -1.88559 3.52768 3
      vertex -0.942793 1.76384 3
      vertex -1.53073 3.69552 3
    endloop
  endfacet
  facet normal 0 0 1
    outer loop
      vertex -0.942793 1.76384 3
      vertex -1.88559 3.52768 3
      vertex -1.11114 1.66294 3
    endloop
  endfacet
  facet normal -0 0 1
    outer loop
      vertex -2.22228 3.32588 3
      vertex -1.11114 1.66294 3
      vertex -1.88559 3.52768 3
    endloop
  endfacet
  facet normal 0 0 1
    outer loop
      vertex -1.11114 1.66294 3
      vertex -2.22228 3.32588 3
      vertex -1.26879 1.54602 3
    endloop
  endfacet
  facet normal -0 0 1
    outer loop
      vertex -2.53757 3.09204 3
      vertex -1.26879 1.54602 3
      vertex -2.22228 3.32588 3
    endloop
  endfacet
  facet normal 0 0 1
    outer loop
      vertex -1.26879 1.54602 3
      vertex -2.53757 3.09204 3
      vertex -1.41421 1.41421 3
    endloop
  endfacet
  facet normal -0 0 1
    outer loop
      vertex -2.82843 2.82843 3
      vertex -1.41421 1.41421 3
      vertex -2.53757 3.09204 3
    endloop
  endfacet
  facet normal 0 0 1
    outer loop
      vertex -1.41421 1.41421 3
      vertex -2.82843 2.82843 3
      vertex -1.54602 1.26879 3
    endloop
  endfacet
  facet normal -0 0 1
    outer loop
      vertex -3.09204 2.53757 3
      vertex -1.54602 1.26879 3
      vertex -2.82843 2.82843 3
    endloop
  endfacet
  facet normal 0 0 1
    outer loop
      vertex -1.54602 1.26879 3
      vertex -3.09204 2.53757 3
      vertex -1.66294 1.11114 3
    endloop
  endfacet
  facet normal -0 0 1
    outer loop
      vertex -3.32588 2.22228 3
      vertex -1.66294 1.11114 3
      vertex -3.09204 2.53757 3
    endloop
  endfacet
  facet normal 0 0 1
    outer loop
      vertex -1.66294 1.11114 3
      vertex -3.32588 2.22228 3
      vertex -1.76384 0.942793 3
    endloop
  endfacet
  facet normal -0 0 1
    outer loop
      vertex -3.52768 1.88559 3
      vertex -1.76384 0.942793 3
      vertex -3.32588 2.22228 3
    endloop
  endfacet
  facet normal 0 0 1
    outer loop
      vertex 3.52768 -1.88559 3
      vertex 1.76384 -0.942793 3
      vertex 3.32588 -2.22228 3
    endloop
  endfacet
  facet normal -0 0 1
    outer loop
      vertex 1.66294 -1.11114 3
      vertex 3.32588 -2.22228 3
      vertex 1.76384 -0.942793 3
    endloop
  endfacet
  facet normal 0 0 1
    outer loop
      vertex 3.32588 -2.22228 3
      vertex 1.66294 -1.11114 3
      vertex 3.09204 -2.53757 3
    endloop
  endfacet
  facet normal -0 0 1
    outer loop
      vertex 1.54602 -1.26879 3
      vertex 3.09204 -2.53757 3
      vertex 1.66294 -1.11114 3
    endloop
  endfacet
  facet normal 0 0 1
    outer loop
      vertex 3.09204 -2.53757 3
      vertex 1.54602 -1.26879 3
      vertex 2.82843 -2.82843 3
    endloop
  endfacet
  facet normal -0 0 1
    outer loop
      vertex 1.41421 -1.41421 3
      vertex 2.82843 -2.82843 3
      vertex 1.54602 -1.26879 3
    endloop
  endfacet
  facet normal 0 0 1
    outer loop
      vertex 2.82843 -2.82843 3
      vertex 1.41421 -1.41421 3
      vertex 2.53757 -3.09204 3
    endloop
  endfacet
  facet normal -0 0 1
    outer loop
      vertex 1.26879 -1.54602 3
      vertex 2.53757 -3.09204 3
      vertex 1.41421 -1.41421 3
    endloop
  endfacet
  facet normal 0 0 1
    outer loop
      vertex 2.53757 -3.09204 3
      vertex 1.26879 -1.54602 3
      vertex 2.22228 -3.32588 3
    endloop
  endfacet
  facet normal -0 0 1
    outer loop
      vertex 1.11114 -1.66294 3
      vertex 2.22228 -3.32588 3
      vertex 1.26879 -1.54602 3
    endloop
  endfacet
  facet normal 0 0 1
    outer loop
      vertex 2.22228 -3.32588 3
      vertex 1.11114 -1.66294 3
      vertex 1.88559 -3.52768 3
    endloop
  endfacet
  facet normal -0 0 1
    outer loop
      vertex 0.942793 -1.76384 3
      vertex 1.88559 -3.52768 3
      vertex 1.11114 -1.66294 3
    endloop
  endfacet
  facet normal 0 0 1
    outer loop
      vertex 1.88559 -3.52768 3
      vertex 0.942793 -1.76384 3
      vertex 1.53073 -3.69552 3
    endloop
  endfacet
  facet normal -0 0 1
    outer loop
      vertex 0.765367 -1.84776 3
      vertex 1.53073 -3.69552 3
      vertex 0.942793 -1.76384 3
    endloop
  endfacet
  facet normal 0 0 1
    outer loop
      vertex 1.53073 -3.69552 3
      vertex 0.765367 -1.84776 3
      vertex 1.16114 -3.82776 3
    endloop
  endfacet
  facet normal -0 0 1
    outer loop
      vertex 0.580569 -1.91388 3
      vertex 1.16114 -3.82776 3
      vertex 0.765367 -1.84776 3
    endloop
  endfacet
  facet normal 0 0 1
    outer loop
      vertex 1.16114 -3.82776 3
      vertex 0.580569 -1.91388 3
      vertex 0.780361 -3.92314 3
    endloop
  endfacet
  facet normal -0 0 1
    outer loop
      vertex 0.390181 -1.96157 3
      vertex 0.780361 -3.92314 3
      vertex 0.580569 -1.91388 3
    endloop
  endfacet
  facet normal 0 0 1
    outer loop
      vertex 0.780361 -3.92314 3
      vertex 0.390181 -1.96157 3
      vertex 0.392068 -3.98074 3
    endloop
  endfacet
  facet normal -0 0 1
    outer loop
      vertex 0.196033 -1.99037 3
      vertex 0.392068 -3.98074 3
      vertex 0.390181 -1.96157 3
    endloop
  endfacet
  facet normal -0 0 1
    outer loop
      vertex 0 -2 3
      vertex 0.392068 -3.98074 3
      vertex 0.196033 -1.99037 3
    endloop
  endfacet
  facet normal 0 0 1
    outer loop
      vertex 0 -2 3
      vertex 0 -4 3
      vertex 0.392068 -3.98074 3
    endloop
  endfacet
  facet normal 0 0 1
    outer loop
      vertex -0.196033 -1.99037 3
      vertex 0 -4 3
      vertex 0 -2 3
    endloop
  endfacet
  facet normal 0 0 1
    outer loop
      vertex -0.392068 -3.98074 3
      vertex -0.196033 -1.99037 3
      vertex -0.390181 -1.96157 3
    endloop
  endfacet
  facet normal 0 0 1
    outer loop
      vertex -0.196033 -1.99037 3
      vertex -0.392068 -3.98074 3
      vertex 0 -4 3
    endloop
  endfacet
  facet normal 0 0 1
    outer loop
      vertex -0.780361 -3.92314 3
      vertex -0.390181 -1.96157 3
      vertex -0.580569 -1.91388 3
    endloop
  endfacet
  facet normal 0 0 1
    outer loop
      vertex -1.16114 -3.82776 3
      vertex -0.580569 -1.91388 3
      vertex -0.765367 -1.84776 3
    endloop
  endfacet
  facet normal 0 0 1
    outer loop
      vertex -0.390181 -1.96157 3
      vertex -0.780361 -3.92314 3
      vertex -0.392068 -3.98074 3
    endloop
  endfacet
  facet normal 0 0 1
    outer loop
      vertex -1.53073 -3.69552 3
      vertex -0.765367 -1.84776 3
      vertex -0.942793 -1.76384 3
    endloop
  endfacet
  facet normal 0 0 1
    outer loop
      vertex -1.88559 -3.52768 3
      vertex -0.942793 -1.76384 3
      vertex -1.11114 -1.66294 3
    endloop
  endfacet
  facet normal 0 0 1
    outer loop
      vertex -0.580569 -1.91388 3
      vertex -1.16114 -3.82776 3
      vertex -0.780361 -3.92314 3
    endloop
  endfacet
  facet normal 0 0 1
    outer loop
      vertex -2.22228 -3.32588 3
      vertex -1.11114 -1.66294 3
      vertex -1.26879 -1.54602 3
    endloop
  endfacet
  facet normal 0 0 1
    outer loop
      vertex -2.53757 -3.09204 3
      vertex -1.26879 -1.54602 3
      vertex -1.41421 -1.41421 3
    endloop
  endfacet
  facet normal 0 0 1
    outer loop
      vertex -0.765367 -1.84776 3
      vertex -1.53073 -3.69552 3
      vertex -1.16114 -3.82776 3
    endloop
  endfacet
  facet normal 0 0 1
    outer loop
      vertex -2.82843 -2.82843 3
      vertex -1.41421 -1.41421 3
      vertex -1.54602 -1.26879 3
    endloop
  endfacet
  facet normal 0 0 1
    outer loop
      vertex -3.09204 -2.53757 3
      vertex -1.54602 -1.26879 3
      vertex -1.66294 -1.11114 3
    endloop
  endfacet
  facet normal 0 0 1
    outer loop
      vertex -3.32588 -2.22228 3
      vertex -1.66294 -1.11114 3
      vertex -1.76384 -0.942793 3
    endloop
  endfacet
  facet normal 0 0 1
    outer loop
      vertex -3.52768 -1.88559 3
      vertex -1.76384 -0.942793 3
      vertex -1.84776 -0.765367 3
    endloop
  endfacet
  facet normal 0 0 1
    outer loop
      vertex -0.942793 -1.76384 3
      vertex -1.88559 -3.52768 3
      vertex -1.53073 -3.69552 3
    endloop
  endfacet
  facet normal 0 0 1
    outer loop
      vertex -3.69552 -1.53073 3
      vertex -1.84776 -0.765367 3
      vertex -1.91388 -0.580569 3
    endloop
  endfacet
  facet normal 0 0 1
    outer loop
      vertex -3.82776 -1.16114 3
      vertex -1.91388 -0.580569 3
      vertex -1.96157 -0.390181 3
    endloop
  endfacet
  facet normal 0 0 1
    outer loop
      vertex -3.92314 -0.780361 3
      vertex -1.96157 -0.390181 3
      vertex -1.99037 -0.196033 3
    endloop
  endfacet
  facet normal 0 0 1
    outer loop
      vertex -3.98074 -0.392068 3
      vertex -1.99037 -0.196033 3
      vertex -2 0 3
    endloop
  endfacet
  facet normal 0 0 1
    outer loop
      vertex -1.76384 0.942793 3
      vertex -3.52768 1.88559 3
      vertex -1.84776 0.765367 3
    endloop
  endfacet
  facet normal 0 0 1
    outer loop
      vertex -1.11114 -1.66294 3
      vertex -2.22228 -3.32588 3
      vertex -1.88559 -3.52768 3
    endloop
  endfacet
  facet normal -0 0 1
    outer loop
      vertex -3.69552 1.53073 3
      vertex -1.84776 0.765367 3
      vertex -3.52768 1.88559 3
    endloop
  endfacet
  facet normal 0 0 1
    outer loop
      vertex -1.26879 -1.54602 3
      vertex -2.53757 -3.09204 3
      vertex -2.22228 -3.32588 3
    endloop
  endfacet
  facet normal 0 0 1
    outer loop
      vertex -1.84776 0.765367 3
      vertex -3.69552 1.53073 3
      vertex -1.91388 0.580569 3
    endloop
  endfacet
  facet normal 0 0 1
    outer loop
      vertex -1.41421 -1.41421 3
      vertex -2.82843 -2.82843 3
      vertex -2.53757 -3.09204 3
    endloop
  endfacet
  facet normal -0 0 1
    outer loop
      vertex -3.82776 1.16114 3
      vertex -1.91388 0.580569 3
      vertex -3.69552 1.53073 3
    endloop
  endfacet
  facet normal 0 0 1
    outer loop
      vertex -1.54602 -1.26879 3
      vertex -3.09204 -2.53757 3
      vertex -2.82843 -2.82843 3
    endloop
  endfacet
  facet normal 0 0 1
    outer loop
      vertex -1.91388 0.580569 3
      vertex -3.82776 1.16114 3
      vertex -1.96157 0.390181 3
    endloop
  endfacet
  facet normal 0 0 1
    outer loop
      vertex -1.66294 -1.11114 3
      vertex -3.32588 -2.22228 3
      vertex -3.09204 -2.53757 3
    endloop
  endfacet
  facet normal -0 0 1
    outer loop
      vertex -3.92314 0.780361 3
      vertex -1.96157 0.390181 3
      vertex -3.82776 1.16114 3
    endloop
  endfacet
  facet normal 0 0 1
    outer loop
      vertex -1.76384 -0.942793 3
      vertex -3.52768 -1.88559 3
      vertex -3.32588 -2.22228 3
    endloop
  endfacet
  facet normal 0 0 1
    outer loop
      vertex -1.96157 0.390181 3
      vertex -3.92314 0.780361 3
      vertex -1.99037 0.196033 3
    endloop
  endfacet
  facet normal 0 0 1
    outer loop
      vertex -1.84776 -0.765367 3
      vertex -3.69552 -1.53073 3
      vertex -3.52768 -1.88559 3
    endloop
  endfacet
  facet normal -0 0 1
    outer loop
      vertex -3.98074 0.392068 3
      vertex -1.99037 0.196033 3
      vertex -3.92314 0.780361 3
    endloop
  endfacet
  facet normal 0 0 1
    outer loop
      vertex -1.91388 -0.580569 3
      vertex -3.82776 -1.16114 3
      vertex -3.69552 -1.53073 3
    endloop
  endfacet
  facet normal 0 0 1
    outer loop
      vertex -1.99037 0.196033 3
      vertex -3.98074 0.392068 3
      vertex -2 0 3
    endloop
  endfacet
  facet normal 0 0 1
    outer loop
      vertex -1.96157 -0.390181 3
      vertex -3.92314 -0.780361 3
      vertex -3.82776 -1.16114 3
    endloop
  endfacet
  facet normal 0 0 1
    outer loop
      vertex -4 0 3
      vertex -2 0 3
      vertex -3.98074 0.392068 3
    endloop
  endfacet
  facet normal 0 0 1
    outer loop
      vertex -1.99037 -0.196033 3
      vertex -3.98074 -0.392068 3
      vertex -3.92314 -0.780361 3
    endloop
  endfacet
  facet normal 0 0 1
    outer loop
      vertex -2 0 3
      vertex -4 0 3
      vertex -3.98074 -0.392068 3
    endloop
  endfacet
  facet normal -0.049065 -0.998796 0
    outer loop
      vertex -0.392068 -3.98074 0
      vertex 0 -4 3
      vertex -0.392068 -3.98074 3
    endloop
  endfacet
  facet normal -0.049065 -0.998796 -0
    outer loop
      vertex 0 -4 3
      vertex -0.392068 -3.98074 0
      vertex 0 -4 0
    endloop
  endfacet
  facet normal -0.998796 0.049065 0
    outer loop
      vertex -4 0 0
      vertex -3.98074 0.392068 3
      vertex -3.98074 0.392068 0
    endloop
  endfacet
  facet normal -0.998796 0.049065 0
    outer loop
      vertex -3.98074 0.392068 3
      vertex -4 0 0
      vertex -4 0 3
    endloop
  endfacet
  facet normal 0.740964 -0.671545 0
    outer loop
      vertex 2.82843 -2.82843 3
      vertex 3.09204 -2.53757 0
      vertex 3.09204 -2.53757 3
    endloop
  endfacet
  facet normal 0.740964 -0.671545 0
    outer loop
      vertex 3.09204 -2.53757 0
      vertex 2.82843 -2.82843 3
      vertex 2.82843 -2.82843 0
    endloop
  endfacet
  facet normal 0.671545 -0.740964 0
    outer loop
      vertex 2.53757 -3.09204 0
      vertex 2.82843 -2.82843 3
      vertex 2.53757 -3.09204 3
    endloop
  endfacet
  facet normal 0.671545 -0.740964 0
    outer loop
      vertex 2.82843 -2.82843 3
      vertex 2.53757 -3.09204 0
      vertex 2.82843 -2.82843 0
    endloop
  endfacet
  facet normal -0.989176 -0.146735 0
    outer loop
      vertex 1.99037 0.196033 0
      vertex 1.96157 0.390181 3
      vertex 1.96157 0.390181 0
    endloop
  endfacet
  facet normal -0.989176 -0.146735 0
    outer loop
      vertex 1.96157 0.390181 3
      vertex 1.99037 0.196033 0
      vertex 1.99037 0.196033 3
    endloop
  endfacet
  facet normal -0.998796 -0.0490652 0
    outer loop
      vertex 2 0 0
      vertex 1.99037 0.196033 3
      vertex 1.99037 0.196033 0
    endloop
  endfacet
  facet normal -0.998796 -0.0490652 0
    outer loop
      vertex 1.99037 0.196033 3
      vertex 2 0 0
      vertex 2 0 3
    endloop
  endfacet
  facet normal -0.970031 -0.242982 0
    outer loop
      vertex 1.96157 0.390181 0
      vertex 1.91388 0.580569 3
      vertex 1.91388 0.580569 0
    endloop
  endfacet
  facet normal -0.970031 -0.242982 0
    outer loop
      vertex 1.91388 0.580569 3
      vertex 1.96157 0.390181 0
      vertex 1.96157 0.390181 3
    endloop
  endfacet
  facet normal 0.51409 0.857736 -0
    outer loop
      vertex -0.942793 -1.76384 0
      vertex -1.11114 -1.66294 3
      vertex -0.942793 -1.76384 3
    endloop
  endfacet
  facet normal 0.51409 0.857736 0
    outer loop
      vertex -1.11114 -1.66294 3
      vertex -0.942793 -1.76384 0
      vertex -1.11114 -1.66294 0
    endloop
  endfacet
  facet normal 0.51409 -0.857736 0
    outer loop
      vertex -1.11114 1.66294 0
      vertex -0.942793 1.76384 3
      vertex -1.11114 1.66294 3
    endloop
  endfacet
  facet normal 0.51409 -0.857736 0
    outer loop
      vertex -0.942793 1.76384 3
      vertex -1.11114 1.66294 0
      vertex -0.942793 1.76384 0
    endloop
  endfacet
  facet normal 0.941547 -0.336882 0
    outer loop
      vertex -1.91388 0.580569 3
      vertex -1.84776 0.765367 0
      vertex -1.84776 0.765367 3
    endloop
  endfacet
  facet normal 0.941547 -0.336882 0
    outer loop
      vertex -1.84776 0.765367 0
      vertex -1.91388 0.580569 3
      vertex -1.91388 0.580569 0
    endloop
  endfacet
  facet normal -0.336882 -0.941547 0
    outer loop
      vertex 0.580569 1.91388 0
      vertex 0.765367 1.84776 3
      vertex 0.580569 1.91388 3
    endloop
  endfacet
  facet normal -0.336882 -0.941547 -0
    outer loop
      vertex 0.765367 1.84776 3
      vertex 0.580569 1.91388 0
      vertex 0.765367 1.84776 0
    endloop
  endfacet
  facet normal 0.941547 0.336882 0
    outer loop
      vertex -1.84776 -0.765367 3
      vertex -1.91388 -0.580569 0
      vertex -1.91388 -0.580569 3
    endloop
  endfacet
  facet normal 0.941547 0.336882 0
    outer loop
      vertex -1.91388 -0.580569 0
      vertex -1.84776 -0.765367 3
      vertex -1.84776 -0.765367 0
    endloop
  endfacet
  facet normal 0.146735 -0.989176 0
    outer loop
      vertex -0.390181 1.96157 0
      vertex -0.196033 1.99037 3
      vertex -0.390181 1.96157 3
    endloop
  endfacet
  facet normal 0.146735 -0.989176 0
    outer loop
      vertex -0.196033 1.99037 3
      vertex -0.390181 1.96157 0
      vertex -0.196033 1.99037 0
    endloop
  endfacet
  facet normal -0.146735 0.989176 0
    outer loop
      vertex 0.390181 -1.96157 0
      vertex 0.196033 -1.99037 3
      vertex 0.390181 -1.96157 3
    endloop
  endfacet
  facet normal -0.146735 0.989176 0
    outer loop
      vertex 0.196033 -1.99037 3
      vertex 0.390181 -1.96157 0
      vertex 0.196033 -1.99037 0
    endloop
  endfacet
  facet normal 0.740928 -0.671584 0
    outer loop
      vertex -1.54602 1.26879 3
      vertex -1.41421 1.41421 0
      vertex -1.41421 1.41421 3
    endloop
  endfacet
  facet normal 0.740928 -0.671584 0
    outer loop
      vertex -1.41421 1.41421 0
      vertex -1.54602 1.26879 3
      vertex -1.54602 1.26879 0
    endloop
  endfacet
  facet normal -0.427571 0.903982 0
    outer loop
      vertex 0.942793 -1.76384 0
      vertex 0.765367 -1.84776 3
      vertex 0.942793 -1.76384 3
    endloop
  endfacet
  facet normal -0.427571 0.903982 0
    outer loop
      vertex 0.765367 -1.84776 3
      vertex 0.942793 -1.76384 0
      vertex 0.765367 -1.84776 0
    endloop
  endfacet
  facet normal -0.80321 0.595695 0
    outer loop
      vertex 1.54602 -1.26879 0
      vertex 1.66294 -1.11114 3
      vertex 1.66294 -1.11114 0
    endloop
  endfacet
  facet normal -0.80321 0.595695 0
    outer loop
      vertex 1.66294 -1.11114 3
      vertex 1.54602 -1.26879 0
      vertex 1.54602 -1.26879 3
    endloop
  endfacet
  facet normal -0.989176 0.146735 0
    outer loop
      vertex 1.96157 -0.390181 0
      vertex 1.99037 -0.196033 3
      vertex 1.99037 -0.196033 0
    endloop
  endfacet
  facet normal -0.989176 0.146735 0
    outer loop
      vertex 1.99037 -0.196033 3
      vertex 1.96157 -0.390181 0
      vertex 1.96157 -0.390181 3
    endloop
  endfacet
  facet normal -0.671584 0.740928 0
    outer loop
      vertex 1.41421 -1.41421 0
      vertex 1.26879 -1.54602 3
      vertex 1.41421 -1.41421 3
    endloop
  endfacet
  facet normal -0.671584 0.740928 0
    outer loop
      vertex 1.26879 -1.54602 3
      vertex 1.41421 -1.41421 0
      vertex 1.26879 -1.54602 0
    endloop
  endfacet
  facet normal -0.0490652 -0.998796 0
    outer loop
      vertex 0 2 0
      vertex 0.196033 1.99037 3
      vertex 0 2 3
    endloop
  endfacet
  facet normal -0.0490652 -0.998796 -0
    outer loop
      vertex 0.196033 1.99037 3
      vertex 0 2 0
      vertex 0.196033 1.99037 0
    endloop
  endfacet
  facet normal -0.427571 -0.903982 0
    outer loop
      vertex 0.765367 1.84776 0
      vertex 0.942793 1.76384 3
      vertex 0.765367 1.84776 3
    endloop
  endfacet
  facet normal -0.427571 -0.903982 -0
    outer loop
      vertex 0.942793 1.76384 3
      vertex 0.765367 1.84776 0
      vertex 0.942793 1.76384 0
    endloop
  endfacet
  facet normal 0.427571 -0.903982 0
    outer loop
      vertex -0.942793 1.76384 0
      vertex -0.765367 1.84776 3
      vertex -0.942793 1.76384 3
    endloop
  endfacet
  facet normal 0.427571 -0.903982 0
    outer loop
      vertex -0.765367 1.84776 3
      vertex -0.942793 1.76384 0
      vertex -0.765367 1.84776 0
    endloop
  endfacet
  facet normal 0.857736 0.51409 0
    outer loop
      vertex -1.66294 -1.11114 3
      vertex -1.76384 -0.942793 0
      vertex -1.76384 -0.942793 3
    endloop
  endfacet
  facet normal 0.857736 0.51409 0
    outer loop
      vertex -1.76384 -0.942793 0
      vertex -1.66294 -1.11114 3
      vertex -1.66294 -1.11114 0
    endloop
  endfacet
  facet normal 0.242982 0.970031 -0
    outer loop
      vertex -0.390181 -1.96157 0
      vertex -0.580569 -1.91388 3
      vertex -0.390181 -1.96157 3
    endloop
  endfacet
  facet normal 0.242982 0.970031 0
    outer loop
      vertex -0.580569 -1.91388 3
      vertex -0.390181 -1.96157 0
      vertex -0.580569 -1.91388 0
    endloop
  endfacet
  facet normal -0.740928 0.671584 0
    outer loop
      vertex 1.41421 -1.41421 0
      vertex 1.54602 -1.26879 3
      vertex 1.54602 -1.26879 0
    endloop
  endfacet
  facet normal -0.740928 0.671584 0
    outer loop
      vertex 1.54602 -1.26879 3
      vertex 1.41421 -1.41421 0
      vertex 1.41421 -1.41421 3
    endloop
  endfacet
  facet normal 0.970031 0.242982 0
    outer loop
      vertex -1.91388 -0.580569 3
      vertex -1.96157 -0.390181 0
      vertex -1.96157 -0.390181 3
    endloop
  endfacet
  facet normal 0.970031 0.242982 0
    outer loop
      vertex -1.96157 -0.390181 0
      vertex -1.91388 -0.580569 3
      vertex -1.91388 -0.580569 0
    endloop
  endfacet
  facet normal 0.671584 0.740928 -0
    outer loop
      vertex -1.26879 -1.54602 0
      vertex -1.41421 -1.41421 3
      vertex -1.26879 -1.54602 3
    endloop
  endfacet
  facet normal 0.671584 0.740928 0
    outer loop
      vertex -1.41421 -1.41421 3
      vertex -1.26879 -1.54602 0
      vertex -1.41421 -1.41421 0
    endloop
  endfacet
  facet normal -0.970031 0.242982 0
    outer loop
      vertex 1.91388 -0.580569 0
      vertex 1.96157 -0.390181 3
      vertex 1.96157 -0.390181 0
    endloop
  endfacet
  facet normal -0.970031 0.242982 0
    outer loop
      vertex 1.96157 -0.390181 3
      vertex 1.91388 -0.580569 0
      vertex 1.91388 -0.580569 3
    endloop
  endfacet
  facet normal 0.336882 -0.941547 0
    outer loop
      vertex -0.765367 1.84776 0
      vertex -0.580569 1.91388 3
      vertex -0.765367 1.84776 3
    endloop
  endfacet
  facet normal 0.336882 -0.941547 0
    outer loop
      vertex -0.580569 1.91388 3
      vertex -0.765367 1.84776 0
      vertex -0.580569 1.91388 0
    endloop
  endfacet
  facet normal 0.595695 -0.80321 0
    outer loop
      vertex -1.26879 1.54602 0
      vertex -1.11114 1.66294 3
      vertex -1.26879 1.54602 3
    endloop
  endfacet
  facet normal 0.595695 -0.80321 0
    outer loop
      vertex -1.11114 1.66294 3
      vertex -1.26879 1.54602 0
      vertex -1.11114 1.66294 0
    endloop
  endfacet
  facet normal -0.242982 0.970031 0
    outer loop
      vertex 0.580569 -1.91388 0
      vertex 0.390181 -1.96157 3
      vertex 0.580569 -1.91388 3
    endloop
  endfacet
  facet normal -0.242982 0.970031 0
    outer loop
      vertex 0.390181 -1.96157 3
      vertex 0.580569 -1.91388 0
      vertex 0.390181 -1.96157 0
    endloop
  endfacet
  facet normal 0.242982 -0.970031 0
    outer loop
      vertex -0.580569 1.91388 0
      vertex -0.390181 1.96157 3
      vertex -0.580569 1.91388 3
    endloop
  endfacet
  facet normal 0.242982 -0.970031 0
    outer loop
      vertex -0.390181 1.96157 3
      vertex -0.580569 1.91388 0
      vertex -0.390181 1.96157 0
    endloop
  endfacet
  facet normal -0.80321 -0.595695 0
    outer loop
      vertex 1.66294 1.11114 0
      vertex 1.54602 1.26879 3
      vertex 1.54602 1.26879 0
    endloop
  endfacet
  facet normal -0.80321 -0.595695 0
    outer loop
      vertex 1.54602 1.26879 3
      vertex 1.66294 1.11114 0
      vertex 1.66294 1.11114 3
    endloop
  endfacet
  facet normal 0.857736 -0.51409 0
    outer loop
      vertex -1.76384 0.942793 3
      vertex -1.66294 1.11114 0
      vertex -1.66294 1.11114 3
    endloop
  endfacet
  facet normal 0.857736 -0.51409 0
    outer loop
      vertex -1.66294 1.11114 0
      vertex -1.76384 0.942793 3
      vertex -1.76384 0.942793 0
    endloop
  endfacet
  facet normal -0.146735 -0.989176 0
    outer loop
      vertex 0.196033 1.99037 0
      vertex 0.390181 1.96157 3
      vertex 0.196033 1.99037 3
    endloop
  endfacet
  facet normal -0.146735 -0.989176 -0
    outer loop
      vertex 0.390181 1.96157 3
      vertex 0.196033 1.99037 0
      vertex 0.390181 1.96157 0
    endloop
  endfacet
  facet normal -0.998796 0.0490652 0
    outer loop
      vertex 1.99037 -0.196033 0
      vertex 2 0 3
      vertex 2 0 0
    endloop
  endfacet
  facet normal -0.998796 0.0490652 0
    outer loop
      vertex 2 0 3
      vertex 1.99037 -0.196033 0
      vertex 1.99037 -0.196033 3
    endloop
  endfacet
  facet normal -0.903982 0.427571 0
    outer loop
      vertex 1.76384 -0.942793 0
      vertex 1.84776 -0.765367 3
      vertex 1.84776 -0.765367 0
    endloop
  endfacet
  facet normal -0.903982 0.427571 0
    outer loop
      vertex 1.84776 -0.765367 3
      vertex 1.76384 -0.942793 0
      vertex 1.76384 -0.942793 3
    endloop
  endfacet
  facet normal -0.242982 -0.970031 0
    outer loop
      vertex 0.390181 1.96157 0
      vertex 0.580569 1.91388 3
      vertex 0.390181 1.96157 3
    endloop
  endfacet
  facet normal -0.242982 -0.970031 -0
    outer loop
      vertex 0.580569 1.91388 3
      vertex 0.390181 1.96157 0
      vertex 0.580569 1.91388 0
    endloop
  endfacet
  facet normal -0.51409 -0.857736 0
    outer loop
      vertex 0.942793 1.76384 0
      vertex 1.11114 1.66294 3
      vertex 0.942793 1.76384 3
    endloop
  endfacet
  facet normal -0.51409 -0.857736 -0
    outer loop
      vertex 1.11114 1.66294 3
      vertex 0.942793 1.76384 0
      vertex 1.11114 1.66294 0
    endloop
  endfacet
  facet normal -0.595695 -0.80321 0
    outer loop
      vertex 1.11114 1.66294 0
      vertex 1.26879 1.54602 3
      vertex 1.11114 1.66294 3
    endloop
  endfacet
  facet normal -0.595695 -0.80321 -0
    outer loop
      vertex 1.26879 1.54602 3
      vertex 1.11114 1.66294 0
      vertex 1.26879 1.54602 0
    endloop
  endfacet
  facet normal -0.0490652 0.998796 0
    outer loop
      vertex 0.196033 -1.99037 0
      vertex 0 -2 3
      vertex 0.196033 -1.99037 3
    endloop
  endfacet
  facet normal -0.0490652 0.998796 0
    outer loop
      vertex 0 -2 3
      vertex 0.196033 -1.99037 0
      vertex 0 -2 0
    endloop
  endfacet
  facet normal -0.941547 -0.336882 0
    outer loop
      vertex 1.91388 0.580569 0
      vertex 1.84776 0.765367 3
      vertex 1.84776 0.765367 0
    endloop
  endfacet
  facet normal -0.941547 -0.336882 0
    outer loop
      vertex 1.84776 0.765367 3
      vertex 1.91388 0.580569 0
      vertex 1.91388 0.580569 3
    endloop
  endfacet
  facet normal -0.857736 0.51409 0
    outer loop
      vertex 1.66294 -1.11114 0
      vertex 1.76384 -0.942793 3
      vertex 1.76384 -0.942793 0
    endloop
  endfacet
  facet normal -0.857736 0.51409 0
    outer loop
      vertex 1.76384 -0.942793 3
      vertex 1.66294 -1.11114 0
      vertex 1.66294 -1.11114 3
    endloop
  endfacet
  facet normal 0.998796 -0.0490652 0
    outer loop
      vertex -2 0 3
      vertex -1.99037 0.196033 0
      vertex -1.99037 0.196033 3
    endloop
  endfacet
  facet normal 0.998796 -0.0490652 0
    outer loop
      vertex -1.99037 0.196033 0
      vertex -2 0 3
      vertex -2 0 0
    endloop
  endfacet
  facet normal -0.941547 0.336882 0
    outer loop
      vertex 1.84776 -0.765367 0
      vertex 1.91388 -0.580569 3
      vertex 1.91388 -0.580569 0
    endloop
  endfacet
  facet normal -0.941547 0.336882 0
    outer loop
      vertex 1.91388 -0.580569 3
      vertex 1.84776 -0.765367 0
      vertex 1.84776 -0.765367 3
    endloop
  endfacet
  facet normal 0.0490652 -0.998796 0
    outer loop
      vertex -0.196033 1.99037 0
      vertex 0 2 3
      vertex -0.196033 1.99037 3
    endloop
  endfacet
  facet normal 0.0490652 -0.998796 0
    outer loop
      vertex 0 2 3
      vertex -0.196033 1.99037 0
      vertex 0 2 0
    endloop
  endfacet
  facet normal -0.740928 -0.671584 0
    outer loop
      vertex 1.54602 1.26879 0
      vertex 1.41421 1.41421 3
      vertex 1.41421 1.41421 0
    endloop
  endfacet
  facet normal -0.740928 -0.671584 0
    outer loop
      vertex 1.41421 1.41421 3
      vertex 1.54602 1.26879 0
      vertex 1.54602 1.26879 3
    endloop
  endfacet
  facet normal 0.903982 0.427571 0
    outer loop
      vertex -1.76384 -0.942793 3
      vertex -1.84776 -0.765367 0
      vertex -1.84776 -0.765367 3
    endloop
  endfacet
  facet normal 0.903982 0.427571 0
    outer loop
      vertex -1.84776 -0.765367 0
      vertex -1.76384 -0.942793 3
      vertex -1.76384 -0.942793 0
    endloop
  endfacet
  facet normal -0.903982 -0.427571 0
    outer loop
      vertex 1.84776 0.765367 0
      vertex 1.76384 0.942793 3
      vertex 1.76384 0.942793 0
    endloop
  endfacet
  facet normal -0.903982 -0.427571 0
    outer loop
      vertex 1.76384 0.942793 3
      vertex 1.84776 0.765367 0
      vertex 1.84776 0.765367 3
    endloop
  endfacet
  facet normal -0.595695 0.80321 0
    outer loop
      vertex 1.26879 -1.54602 0
      vertex 1.11114 -1.66294 3
      vertex 1.26879 -1.54602 3
    endloop
  endfacet
  facet normal -0.595695 0.80321 0
    outer loop
      vertex 1.11114 -1.66294 3
      vertex 1.26879 -1.54602 0
      vertex 1.11114 -1.66294 0
    endloop
  endfacet
  facet normal -0.857736 -0.51409 0
    outer loop
      vertex 1.76384 0.942793 0
      vertex 1.66294 1.11114 3
      vertex 1.66294 1.11114 0
    endloop
  endfacet
  facet normal -0.857736 -0.51409 0
    outer loop
      vertex 1.66294 1.11114 3
      vertex 1.76384 0.942793 0
      vertex 1.76384 0.942793 3
    endloop
  endfacet
  facet normal 0.671584 -0.740928 0
    outer loop
      vertex -1.41421 1.41421 0
      vertex -1.26879 1.54602 3
      vertex -1.41421 1.41421 3
    endloop
  endfacet
  facet normal 0.671584 -0.740928 0
    outer loop
      vertex -1.26879 1.54602 3
      vertex -1.41421 1.41421 0
      vertex -1.26879 1.54602 0
    endloop
  endfacet
  facet normal 0.903982 -0.427571 0
    outer loop
      vertex -1.84776 0.765367 3
      vertex -1.76384 0.942793 0
      vertex -1.76384 0.942793 3
    endloop
  endfacet
  facet normal 0.903982 -0.427571 0
    outer loop
      vertex -1.76384 0.942793 0
      vertex -1.84776 0.765367 3
      vertex -1.84776 0.765367 0
    endloop
  endfacet
  facet normal -0.671584 -0.740928 0
    outer loop
      vertex 1.26879 1.54602 0
      vertex 1.41421 1.41421 3
      vertex 1.26879 1.54602 3
    endloop
  endfacet
  facet normal -0.671584 -0.740928 -0
    outer loop
      vertex 1.41421 1.41421 3
      vertex 1.26879 1.54602 0
      vertex 1.41421 1.41421 0
    endloop
  endfacet
  facet normal 0.740928 0.671584 0
    outer loop
      vertex -1.41421 -1.41421 3
      vertex -1.54602 -1.26879 0
      vertex -1.54602 -1.26879 3
    endloop
  endfacet
  facet normal 0.740928 0.671584 0
    outer loop
      vertex -1.54602 -1.26879 0
      vertex -1.41421 -1.41421 3
      vertex -1.41421 -1.41421 0
    endloop
  endfacet
  facet normal 0.595695 0.80321 -0
    outer loop
      vertex -1.11114 -1.66294 0
      vertex -1.26879 -1.54602 3
      vertex -1.11114 -1.66294 3
    endloop
  endfacet
  facet normal 0.595695 0.80321 0
    outer loop
      vertex -1.26879 -1.54602 3
      vertex -1.11114 -1.66294 0
      vertex -1.26879 -1.54602 0
    endloop
  endfacet
  facet normal 0.989176 0.146735 0
    outer loop
      vertex -1.96157 -0.390181 3
      vertex -1.99037 -0.196033 0
      vertex -1.99037 -0.196033 3
    endloop
  endfacet
  facet normal 0.989176 0.146735 0
    outer loop
      vertex -1.99037 -0.196033 0
      vertex -1.96157 -0.390181 3
      vertex -1.96157 -0.390181 0
    endloop
  endfacet
  facet normal 0.80321 0.595695 0
    outer loop
      vertex -1.54602 -1.26879 3
      vertex -1.66294 -1.11114 0
      vertex -1.66294 -1.11114 3
    endloop
  endfacet
  facet normal 0.80321 0.595695 0
    outer loop
      vertex -1.66294 -1.11114 0
      vertex -1.54602 -1.26879 3
      vertex -1.54602 -1.26879 0
    endloop
  endfacet
  facet normal -0.336882 0.941547 0
    outer loop
      vertex 0.765367 -1.84776 0
      vertex 0.580569 -1.91388 3
      vertex 0.765367 -1.84776 3
    endloop
  endfacet
  facet normal -0.336882 0.941547 0
    outer loop
      vertex 0.580569 -1.91388 3
      vertex 0.765367 -1.84776 0
      vertex 0.580569 -1.91388 0
    endloop
  endfacet
  facet normal 0.998796 0.0490652 0
    outer loop
      vertex -1.99037 -0.196033 3
      vertex -2 0 0
      vertex -2 0 3
    endloop
  endfacet
  facet normal 0.998796 0.0490652 0
    outer loop
      vertex -2 0 0
      vertex -1.99037 -0.196033 3
      vertex -1.99037 -0.196033 0
    endloop
  endfacet
  facet normal 0.970031 -0.242982 0
    outer loop
      vertex -1.96157 0.390181 3
      vertex -1.91388 0.580569 0
      vertex -1.91388 0.580569 3
    endloop
  endfacet
  facet normal 0.970031 -0.242982 0
    outer loop
      vertex -1.91388 0.580569 0
      vertex -1.96157 0.390181 3
      vertex -1.96157 0.390181 0
    endloop
  endfacet
  facet normal 0.80321 -0.595695 0
    outer loop
      vertex -1.66294 1.11114 3
      vertex -1.54602 1.26879 0
      vertex -1.54602 1.26879 3
    endloop
  endfacet
  facet normal 0.80321 -0.595695 0
    outer loop
      vertex -1.54602 1.26879 0
      vertex -1.66294 1.11114 3
      vertex -1.66294 1.11114 0
    endloop
  endfacet
  facet normal -0.51409 0.857736 0
    outer loop
      vertex 1.11114 -1.66294 0
      vertex 0.942793 -1.76384 3
      vertex 1.11114 -1.66294 3
    endloop
  endfacet
  facet normal -0.51409 0.857736 0
    outer loop
      vertex 0.942793 -1.76384 3
      vertex 1.11114 -1.66294 0
      vertex 0.942793 -1.76384 0
    endloop
  endfacet
  facet normal 0.427571 0.903982 -0
    outer loop
      vertex -0.765367 -1.84776 0
      vertex -0.942793 -1.76384 3
      vertex -0.765367 -1.84776 3
    endloop
  endfacet
  facet normal 0.427571 0.903982 0
    outer loop
      vertex -0.942793 -1.76384 3
      vertex -0.765367 -1.84776 0
      vertex -0.942793 -1.76384 0
    endloop
  endfacet
  facet normal 0.0490652 0.998796 -0
    outer loop
      vertex 0 -2 0
      vertex -0.196033 -1.99037 3
      vertex 0 -2 3
    endloop
  endfacet
  facet normal 0.0490652 0.998796 0
    outer loop
      vertex -0.196033 -1.99037 3
      vertex 0 -2 0
      vertex -0.196033 -1.99037 0
    endloop
  endfacet
  facet normal 0.146735 0.989176 -0
    outer loop
      vertex -0.196033 -1.99037 0
      vertex -0.390181 -1.96157 3
      vertex -0.196033 -1.99037 3
    endloop
  endfacet
  facet normal 0.146735 0.989176 0
    outer loop
      vertex -0.390181 -1.96157 3
      vertex -0.196033 -1.99037 0
      vertex -0.390181 -1.96157 0
    endloop
  endfacet
  facet normal 0.989176 -0.146735 0
    outer loop
      vertex -1.99037 0.196033 3
      vertex -1.96157 0.390181 0
      vertex -1.96157 0.390181 3
    endloop
  endfacet
  facet normal 0.989176 -0.146735 0
    outer loop
      vertex -1.96157 0.390181 0
      vertex -1.99037 0.196033 3
      vertex -1.99037 0.196033 0
    endloop
  endfacet
  facet normal 0.336882 0.941547 -0
    outer loop
      vertex -0.580569 -1.91388 0
      vertex -0.765367 -1.84776 3
      vertex -0.580569 -1.91388 3
    endloop
  endfacet
  facet normal 0.336882 0.941547 0
    outer loop
      vertex -0.765367 -1.84776 3
      vertex -0.580569 -1.91388 0
      vertex -0.765367 -1.84776 0
    endloop
  endfacet
endsolid OpenSCAD_Model
